<?xml version="1.0" encoding="utf-8"?>
<!-- Generator: Adobe Illustrator 16.0.0, SVG Export Plug-In . SVG Version: 6.00 Build 0)  -->
<!DOCTYPE svg PUBLIC "-//W3C//DTD SVG 1.1//EN" "http://www.w3.org/Graphics/SVG/1.1/DTD/svg11.dtd">
<svg version="1.1" id="Layer_1" xmlns="http://www.w3.org/2000/svg" xmlns:xlink="http://www.w3.org/1999/xlink" x="0px" y="0px"
	 width="450px" height="480px" viewBox="36.566 15.566 450 480" enable-background="new 36.566 15.566 450 480"
	 xml:space="preserve">
<path fill="#EFEFEF" stroke="#EFEFEF" stroke-width="3" stroke-miterlimit="10" d="M89.631,281.733
	c-12.148,8.766-14.923,27.799-9.35,40.877c0.757,1.778,3.551,0.684,2.791-1.098c-4.837-11.35-2.829-26.016,5.788-35.166
	c6.616-7.028,19.12-10.182,23.306,0.783c0.689,1.809,3.481,0.706,2.791-1.101C110.472,274.282,98.461,275.357,89.631,281.733z"/>
<path fill="#FFFFFF" d="M56.318,515.733c5.687-1.855,11.286-3.962,16.646-6.854c12.785-6.89,24.496-15.826,38.817-19.371
	c1.874-0.463,0.75-3.249-1.099-2.792c-13.182,3.262-24.381,11.03-35.967,17.768c-8.287,4.817-17.119,7.675-26.041,10.428
	C51.218,515.217,53.767,515.488,56.318,515.733z"/>
<path fill="#EFEFEF" d="M132.337,464.48c-5.691-5.47-11.261-10.876-19.106-12.937c-1.874-0.494-2.31,2.477-0.459,2.962
	c7.155,1.883,12.346,7.167,17.513,12.144c-0.029,0.009-0.058,0.013-0.087,0.024c-7.518,2.992-11.399,11.119-14.061,18.244
	c-3.009,8.059-4.895,17.112-4.566,25.739c0.073,1.94,3.055,1.603,2.983-0.318c-0.277-7.31,1.331-14.802,3.488-21.742
	c2.198-7.068,5.856-16.184,13.256-19.131c1.087-0.433,1.11-1.622,0.563-2.338C132.733,466.74,133.27,465.377,132.337,464.48z"/>
<path fill="#EFEFEF" stroke="#EFEFEF" stroke-width="2" stroke-miterlimit="10" d="M80.523,402.516
	c12.521,3.299,23.746,10.62,34.333,17.812c0.137,0.093,0.276,0.153,0.415,0.199c-10.093,5.027-17.59,16.969-13.11,28.167
	c0.174,0.436,0.471,0.697,0.808,0.822c3.459,9.218,6.531,18.557,8.97,28.105c0.479,1.874,3.031,0.842,2.559-1.005
	c-2.857-11.187-6.783-22.005-11.011-32.744l-0.003-0.007c-0.383-9.163,5.927-17.635,13.999-21.087
	c0.165-0.068,0.413-0.208,0.529-0.309c11.912,1.037,22.467,5.034,33.086,10.513c5.92,3.055,11.506,6.614,16.403,11.141
	c4.619,4.271,7.749,9.708,12.223,14.073c1.383,1.35,3.243-1.025,1.87-2.364c-4.448-4.339-7.745-9.695-12.209-14.078
	c-4.54-4.458-10.056-7.684-15.564-10.779c-11.389-6.402-23.463-10.738-36.541-11.624c0.118-0.482-0.016-1.004-0.569-1.381
	c-8.343-5.665-16.854-11.053-26.13-15.075c-4.118-1.785-8.416-3.105-12.778-4.138c-4.695-1.114-9.552-1.761-10.301-7.257
	c-0.492-3.602-0.508-7.958,0.569-11.48c1.298-4.234,7.443-4.91,11.056-5.378c9.921-1.29,19.497,2.503,28.662,5.734
	c8.95,3.156,18.218,4.984,27.379,7.395c8.865,2.331,17.186,6.001,24.925,10.907c5.428,3.436,10.733,7.049,16.239,10.356
	c3.532,2.431,7.256,4.561,11.399,6.033c0.183,0.066,0.356,0.089,0.524,0.09c2.51,0.849,5.08,1.295,7.562,0.902
	c1.909-0.299,1.594-3.285-0.318-2.984c-2.009,0.317-4.138,0.024-6.285-0.622c-0.086-0.053-0.181-0.097-0.288-0.137
	c-14.614-5.192-24.145-18.522-38.085-25.027c-0.091-0.061-0.195-0.114-0.311-0.157c-10.696-3.991-22.523-2.797-33.014-7.419
	c-0.472-0.209-0.899-0.164-1.245,0.025c-7.542-2.36-14.94-5.126-22.624-7.028c-5.893-1.459-12.785-1.972-18.935-0.438
	c-0.083-0.174-0.203-0.34-0.371-0.491c-7.693-6.973-6.856-18.469,0.578-25.22c4.733-4.296,11.576-5.385,17.713-5.732
	c13.68-0.776,27.398,2.906,40.731,5.438c7.036,1.334,14.184,1.649,21.195,3.151c9.837,2.104,19.175,6.289,27.662,11.629
	c11.366,7.151,25.303,19.863,39.792,17.829c1.917-0.27,1.6-3.251-0.317-2.984c-9.177,1.29-18.387-4.749-25.779-9.425
	c-7.343-4.644-14.312-9.692-22.14-13.53c-15.676-7.685-33.294-8.317-50.165-11.65c-0.539-0.107-1.086-0.216-1.632-0.324
	c1.397-25.408,37.046-25.678,55.366-24.306c12.779,0.958,24.311,4.425,33.146,14.186c8.461,9.353,12.944,21.872,17.488,33.438
	c-0.684,0.282-1.196,1.003-0.866,1.897c3.323,8.968,1.82,17.72,2.699,27c0.993,10.483,0.14,21.585-3.566,31.48
	c-3.226,8.608-7.276,16.653-8.402,25.887c-1.261,10.339-1.547,20.451-8.127,29.1c-0.189,0.247-0.275,0.499-0.303,0.746
	c-0.195,0.256-0.312,0.586-0.292,0.988c0.675,12.725-1.345,26.006-5.734,38.516c0.1,0.029,0.2,0.054,0.299,0.084
	c1.034-0.292,2.068-0.575,3.102-0.863c4.069-12.286,5.938-25.233,5.329-37.676c5.824-7.688,7.268-16.489,8.212-25.874
	c1.136-11.313,5.291-20.699,9.23-31.214c3.52-9.396,3.917-19.982,3.354-29.904c-0.555-9.796,0.472-19.565-2.865-28.945
	c0.708-0.269,1.245-0.996,0.885-1.906c-5.024-12.763-10.042-26.775-19.999-36.645c-9.74-9.652-22.015-12.517-35.29-13.41
	c-19.537-1.319-55.083,0.455-56.622,26.843c-12.788-2.481-26.841-4.665-39.159-0.168c-13.751,5.023-18.585,22.526-8.282,33.05
	c-1.014,0.395-1.997,0.857-2.938,1.395c-5.602,3.202-4.709,12.932-3.989,18.196C65.686,400.373,74.659,400.971,80.523,402.516z"/>
<path fill="#EFEFEF" d="M159.225,455.783c-6.056,2.2-12.59,2.442-18.777,4.168c-1.864,0.521-0.746,3.308,1.099,2.793
	c6.194-1.729,12.704-1.964,18.778-4.169C162.143,457.911,161.04,455.122,159.225,455.783z"/>
<path fill="#EFEFEF" d="M153.331,418.81c-5.091-2.101-13.049-2.21-15.963-7.62c-0.905-1.685-3.708-0.603-2.792,1.098
	c3.555,6.602,11.347,6.712,17.558,9.274C153.922,422.298,155.122,419.549,153.331,418.81z"/>
<path fill="#EFEFEF" d="M170.631,376.656c-4.341,3.175-10.723,4.296-15.785,2.329c-1.8-0.697-3.002,2.049-1.196,2.752
	c6.071,2.359,13.556,1.143,18.783-2.683C173.992,377.914,172.194,375.512,170.631,376.656z"/>
<path fill="#EFEFEF" d="M208.007,346.299c-6.685,2.937-13.045,2.382-19.93,0.543c-1.871-0.5-2.307,2.472-0.459,2.963
	c7.404,1.98,14.342,2.426,21.489-0.715C210.871,348.315,209.779,345.517,208.007,346.299z"/>
<path fill="none" stroke="#EFEFEF" stroke-width="3" stroke-miterlimit="10" d="M44.361,510.479
	c25.083-29.01,46.473-61.56,72.15-91.203"/>
<path fill="none" stroke="#EFEFEF" stroke-width="6" stroke-miterlimit="10" d="M196.115,318.985
	c0.682-0.837,1.364-1.671,2.045-2.508c-12.922-10.173-25.845-20.346-38.767-30.517c-5.617-3.27-9.328-7.767-14.868-10.978
	c-3.414-2.519-6.827-5.038-9.399-8.696c-1.138-0.839-1.979,0.299-2.819,1.436C66.54,341.339,7.788,407.832-60.256,479.769
	c-5.188,5.837-9.388,11.528-14.502,16.869"/>
<line fill="none" stroke="#EFEFEF" stroke-width="3" stroke-miterlimit="10" x1="141.288" y1="387.985" x2="142.435" y2="386.535"/>
<path fill="#EFEFEF" stroke="#EFEFEF" stroke-width="2" stroke-miterlimit="10" d="M209.658,200.402
	c-2.502-6.422-9.966-8.86-16.355-8.488c-0.756,0.044-1.164,0.528-1.271,1.093c-2.77,2.562-5.675,3.544-6.875,7.406
	c-0.942,3.026-0.936,6.149,0.419,9.02c2.941,6.239,10.16,5.872,15.605,3.925C206.349,211.507,212.077,206.612,209.658,200.402z
	 M201.134,210.137c-4.183,1.934-8.959,2.682-12.319-1.174c-2.012-2.309-1.403-5.779-0.581-8.423c0.75-2.405,3.967-3.6,5.673-5.208
	c0.147-0.137,0.25-0.287,0.33-0.444c4.162-0.104,8.478,1.14,11.354,4.285C209.741,203.714,205.2,208.256,201.134,210.137z"/>
<path fill="#EFEFEF" stroke="#EFEFEF" stroke-width="2" stroke-miterlimit="10" d="M248.002,174.211
	c-1.389-5.448-6.609-11.369-12.712-10.019c-0.36-0.089-0.759-0.062-1.155,0.16c-2.652,1.483-5.479,2.528-7.532,4.859
	c-1.906,2.169-1.067,6.066-0.52,8.545c1.343,6.075,6.376,9.322,12.485,8.157C243.642,184.945,249.443,179.863,248.002,174.211z
	 M237.327,183.107c-5.218,0.996-7.841-3.078-8.637-7.546c-0.894-5.041,2.723-6.407,6.391-8.338c0.136,0.007,0.28,0.004,0.438-0.034
	c4.313-0.995,7.355,2.67,9.06,6.182C246.984,178.333,241.659,182.28,237.327,183.107z"/>
<path fill="#EFEFEF" stroke="#EFEFEF" stroke-width="2" stroke-miterlimit="10" d="M287.188,146.441
	c-1.264-6.26-7.928-9.941-13.853-9.395c-0.077,0.008-0.142,0.024-0.211,0.041c-0.21-0.019-0.438,0.01-0.678,0.103
	c-5.887,2.286-9.419,7.024-7.989,13.452c1.313,5.895,6.15,10.354,12.339,9.06C282.613,158.485,288.444,152.66,287.188,146.441z
	 M275.577,156.91c-4.668,0.977-7.492-3.687-8.351-7.551c-1.033-4.635,2.262-7.766,6.204-9.328c0.068,0.002,0.136,0.009,0.208,0.002
	c4.735-0.437,8.176,1.976,10.305,6.111C286.542,151.186,279.739,156.039,275.577,156.91z"/>
<path fill="#EFEFEF" stroke="#EFEFEF" stroke-width="2" stroke-miterlimit="10" d="M310.852,110.527
	c-0.355-0.306-0.856-0.439-1.432-0.209c-5.482,2.19-8.639,7.2-7.974,13.108c0.56,4.985,4.676,9.508,9.899,9.361
	c5.847-0.167,15.115-5.445,14.398-12.319C325.005,113.436,317.405,109.386,310.852,110.527z M322.041,123.477
	c-1.844,4.003-8.252,6.978-12.483,6.105c-3.46-0.711-5.053-4.553-5.229-7.687c-0.216-3.753,2.126-6.792,5.308-8.382
	c0.312,0.146,0.678,0.199,1.086,0.084C316.329,112.017,325.083,116.875,322.041,123.477z"/>
<path fill="#EFEFEF" stroke="#EFEFEF" stroke-width="2" stroke-miterlimit="10" d="M390.446,57.635
	c-5.12-1.668-12.706,2.017-12.927,7.789c0,0.019,0.003,0.037,0.002,0.054c-3.045,4.314-1.103,10.099,3.001,13.445
	c5.335,4.351,14.459-0.356,17.481-5.539C401.179,67.934,395.998,59.444,390.446,57.635z M395.735,71.342
	c-1.425,3.899-8.51,7.417-12.319,5.856c-3.782-1.551-6.181-7.666-2.903-10.711c0.647-0.6,0.614-1.444,0.259-2.05
	c1.098-3.004,5.046-4.407,8.109-4.101C392.864,60.737,397.051,67.743,395.735,71.342z"/>
<path fill="#EFEFEF" stroke="#EFEFEF" stroke-width="2" stroke-miterlimit="10" d="M355.625,83.35
	c-5.402-2.952-13.129,1.044-14.157,6.938c-2.42,5.933-2.458,12.815,4.482,15.551c5.891,2.324,13.294-1.742,16.028-6.99
	C364.987,93.081,360.668,86.106,355.625,83.35z M358.569,98.781c-2.223,3.376-6.95,5.033-10.809,4.461
	c-5.913-0.877-5.284-7.042-3.702-11.318c0.145-0.185,0.253-0.42,0.288-0.719c0.003-0.014,0.006-0.027,0.009-0.039
	c0.09-0.218,0.181-0.433,0.273-0.636c0.148-0.324,0.178-0.628,0.12-0.9c1.646-4.235,7.524-5.129,11.144-2.618
	C359.54,89.543,361.047,95.012,358.569,98.781z"/>
<path fill="none" stroke="#EFEFEF" stroke-width="3" stroke-miterlimit="10" d="M196.486,213.368
	c-16.386,15.806-32.25,31.342-48.953,48.015c-29.599,31.764-54.403,61.793-83.013,93.406c-0.839,1.138-1.53,3.264-2.371,4.403
	c-19.371,19.098-32.66,38.29-52.032,57.389c-0.84,1.14-1.53,3.264-2.37,4.403c-24.412,25.925-45.855,51.402-68.758,77.094"/>
<path fill="none" stroke="#EFEFEF" stroke-width="3" stroke-miterlimit="10" d="M70.628,369.661
	c-6.518,7.6-13.035,15.199-19.552,22.797C36.985,408.891,22.893,425.321,8.8,441.752c-13.478,15.714-26.956,31.431-40.434,47.145
	c-3.126,3.645-6.249,7.284-9.375,10.93"/>
<polyline fill="none" stroke="#EFEFEF" stroke-width="3" stroke-miterlimit="10" points="235.795,184.75 149.271,277.968 
	97.72,338.076 "/>
<path fill="none" stroke="#EFEFEF" stroke-width="3" stroke-miterlimit="10" d="M67.075,394.176
	c-7.484,8.735-14.97,17.473-22.456,26.206c-14.605,17.048-29.211,34.094-43.818,51.144c-8.621,10.061-17.242,20.122-25.863,30.184"
	/>
<path fill="none" stroke="#EFEFEF" stroke-width="3" stroke-miterlimit="10" d="M67.075,394.176"/>
<line fill="none" stroke="#EFEFEF" stroke-width="3" stroke-miterlimit="10" x1="86.074" y1="372.002" x2="85.78" y2="372.347"/>
<polyline fill="none" stroke="#EFEFEF" stroke-width="3" stroke-miterlimit="10" points="276.796,159.703 159.647,286.131 
	113.137,340.415 "/>
<path fill="none" stroke="#EFEFEF" stroke-width="2" stroke-miterlimit="10" d="M81.828,401.345
	c-7.67,9.183-15.341,18.363-23.012,27.544c-14.411,17.252-28.823,34.501-43.234,51.749c-6.59,7.887-13.18,15.774-19.769,23.66"/>
<polyline fill="none" stroke="#EFEFEF" stroke-width="2" stroke-miterlimit="10" points="311.346,132.789 170.013,295.799 
	153.785,315.223 "/>
<path fill="none" stroke="#EFEFEF" stroke-width="2" stroke-miterlimit="10" d="M95.827,405.804
	c-7.757,9.345-15.514,18.688-23.271,28.034c-14.329,17.261-28.658,34.521-42.987,51.783c-5.71,6.879-11.422,13.761-17.133,20.641"/>
<polyline fill="none" stroke="#EFEFEF" stroke-width="2" stroke-miterlimit="10" points="349.69,105.336 181.431,302.68 
	171.514,314.628 "/>
<path fill="none" stroke="#EFEFEF" stroke-width="2" stroke-miterlimit="10" d="M107.655,413.654
	c-26.464,31.662-51.958,63.819-77.096,95.562"/>
<polyline fill="none" stroke="#EFEFEF" stroke-width="2" stroke-miterlimit="10" points="385.34,80.273 190.93,310.427 
	186.249,316.23 "/>
<path fill="#EFEFEF" stroke="#EFEFEF" stroke-width="2" stroke-miterlimit="10" d="M93.803,340.248
	c0.034-0.005,0.069-0.017,0.102-0.018c1.172-0.174,2.422-0.193,3.563,0.152c-5.238-3.831-10.422-7.73-15.195-12.154
	c-2.369-2.196-5.514,1.692-3.161,3.874c3.304,3.063,6.792,5.888,10.357,8.62C90.85,340.209,92.319,340.13,93.803,340.248z"/>
<path fill="#EFEFEF" stroke="#EFEFEF" stroke-width="2" stroke-miterlimit="10" d="M101.943,437.8
	c-11.567-10.396-24.181-19.543-35.806-29.875c-10.104-8.979-19.85-18.849-32.085-24.938c-2.896-1.439-4.954,3.118-2.075,4.549
	c12.259,6.103,22.033,16.296,32.155,25.292c11.237,9.989,23.464,18.795,34.65,28.847C101.188,443.835,104.335,439.947,101.943,437.8
	z"/>
<path fill="#EFEFEF" d="M59.292,492.891c-11.64-8.909-24.532-16.06-35.762-25.518c-12.451-10.489-23.868-22.14-36.467-32.482
	c-2.495-2.047-5.654,1.829-3.159,3.874c12.107,9.94,23.427,20.766,35.067,31.231c11.38,10.235,25.044,17.494,37.161,26.769
	C58.688,498.725,61.857,494.854,59.292,492.891z"/>
<path fill="#EFEFEF" d="M42.739,431.517c-10.908,1.107-9.19,18.02,1.718,16.913C55.363,447.323,53.645,430.41,42.739,431.517z"/>
<path fill="#EFEFEF" d="M127.844,464.59c0-0.29-0.084-0.592-0.305-0.881c-0.62-0.811-1.284-1.249-2.089-1.634
	c-0.47-0.614-0.808-1.355-1.097-2.058c-0.762-1.842-3.243-0.721-2.792,1.101c0.61,2.458,1.183,5.812-0.329,8.052
	c-0.334,0.494-0.338,1.015-0.153,1.45c-8.319,4.144-15.073,10.709-20.875,17.934c-1.21,1.508,1.145,3.368,2.358,1.855
	c6.048-7.529,13.119-14.362,22.127-18.164c0.781-0.329,1.008-1.051,0.866-1.693c0.888-0.412,1.571-1.104,1.644-2.148
	c0.807-0.475,1.684-0.881,2.326-1.344C131.051,465.958,129.382,463.66,127.844,464.59z"/>
<path fill="#EFEFEF" d="M172.766,444.828c-2.863-4.615-5.075-9.565-9.72-12.667c-3.31-2.209-7.279-3.107-11.115-4.062
	c-0.18-0.365-0.532-0.642-1.089-0.68c-3.08-0.196-5.913-1.51-8.965-1.841c-1.922-0.211-2.383,2.753-0.46,2.964
	c2.611,0.282,5.062,1.28,7.643,1.689c0.181,0.177,0.411,0.322,0.703,0.397c2.211,0.585,4.371,1.114,6.464,1.81
	c-0.274,0.802,0.046,1.834,1.129,2.007c2.902,0.466,5.443,2.28,6.852,4.869c0.517,0.949,1.641,1.014,2.35,0.58
	c1.412,2.241,2.573,4.737,3.812,6.734C171.385,448.273,173.779,446.459,172.766,444.828z"/>
<path fill="#EFEFEF" d="M194.807,365.192c-7.276-4.987-12.492-12.892-21.37-15.271c-2.043-0.548-4.098-1.041-6.156-1.515
	c-3.866-1.45-7.601-3.225-11.558-4.435c-5.567-1.7-11.069-0.076-16.746-0.365c-1.893-0.098-2.412,2.712-0.46,2.965
	c0.935,0.122,1.868,0.247,2.804,0.372c0.124,0.036,0.258,0.058,0.406,0.055c5.427,0.735,10.843,1.55,16.226,2.54
	c1.662,0.595,3.302,1.194,4.914,1.703c7.714,2.433,14.633,5.099,20.454,10.964c0.777,0.783,1.832,0.228,2.241-0.596
	c2.316,2.02,4.678,4.084,7.386,5.941C194.536,368.636,196.407,366.289,194.807,365.192z"/>
<path fill="none" stroke="#EFEFEF" stroke-width="6" stroke-miterlimit="10" d="M141.271,253.652c0,0,11.174-13.698,5.722-32.745
	c-5.453-19.047-8.324-9.375,3.875-14.634c12.199-5.259,121.926-86.092,121.926-86.092l125.311-85.766c0,0,13.023-7.018,18.263-8.22
	c5.238-1.203,11.473-2.505,22.09-0.235c10.617,2.273,16.923,4.983,24.031,12.303c7.109,7.319,12.854,11.09,17.551,24.352
	c4.697,13.259,3.229,8.717,2.871,11.77c-0.359,3.052-0.634-2.952-1.984,3.551c-1.353,6.503,1.724,0.494,2.461,4.441
	c0.736,3.946-0.571,17.48-7.953,27.276c-7.38,9.796-26.368,20.771-30.613,21.872c-4.244,1.102-32.273-1.079-37.612-0.871
	c-5.34,0.208-9.983,0.679-18.162,9.215c-8.181,8.536-20.856,68.459-29.821,85.785c-8.96,17.326-17.158,57.622-36.251,65.331
	c-3.741,1.509-5.764-2.725-7.917-3.722c-1.541-0.713-16.36-19.357-49.35-13.331c-27.878,5.093-33.039,13.658-42.28,21.632
	c-6.593,5.688-13.414,11.415-13.414,11.415l-11.853,9.495l-61.941-48.24c0,0-1.243,0.127-0.652-3.952
	C136.158,260.203,141.271,253.652,141.271,253.652z"/>
<path fill="#EFEFEF" stroke="#EFEFEF" stroke-miterlimit="10" d="M389.347,108.611c0.598-0.115,1.197-0.221,1.794-0.346
	c2.578-0.545,4.541,1.001,4.619,3.642c0.049,1.729,0.352,2.144,1.946,2.617c0.521,0.156,1.074,0.215,1.583,0.407
	c0.991,0.377,1.812,0.164,2.665-0.447c1.406-1.01,1.438-0.974,2.7,0.208c0.193,0.18,0.308,0.445,0.459,0.67
	c-0.801,1.357-1.897,2.373-3.506,2.549c-1.482,0.162-2.82-0.396-4.029-1.222c-0.857-0.586-1.767-1.017-2.765-1.303
	c-0.674-0.192-1.208-0.099-1.661,0.435c-0.427,0.507-0.267,1.064-0.012,1.54c0.32,0.598,0.75,1.138,1.156,1.686
	c0.422,0.574,0.51,1.119-0.092,1.617c-0.541,0.449-1.117,0.507-1.661,0.006c-0.351-0.323-0.712-0.655-0.982-1.045
	c-1.485-2.141-3.223-4.077-4.876-6.08c-0.975-1.182-0.893-1.224,0.097-2.387c0.744-0.881,2.038-1.205,2.42-2.432L389.347,108.611z
	 M390.13,111.087c-0.999,0.824-1.034,1.741-0.101,2.802c0.602,0.686,1.325,0.794,1.965,0.293c1.139-0.895,1.433-2.34,0.65-3.197
	C391.981,110.255,391.096,110.291,390.13,111.087z"/>
<path fill="#EFEFEF" stroke="#EFEFEF" stroke-miterlimit="10" d="M370.086,153.91c-0.906,0.574-1.561,1.464-2.74,1.708
	c-3.087,0.638-6.464-0.789-8.067-3.506c-1.328-2.249-0.995-6.626,2.389-8.33c1.396-0.703,2.193-0.559,3.413,0.661l0.004,0.023
	c-0.189,0.229-0.284,0.485-0.263,0.782c-0.108,0.135-0.213,0.269-0.321,0.401c-0.385,0.135-0.762,0.313-1.155,0.399
	c-1.261,0.275-2.1,0.995-2.32,2.276c-0.236,1.337,0.31,2.42,1.356,3.215c0.645,0.492,1.354,0.931,2.088,1.276
	c2.271,1.071,5.047-0.508,5.154-2.902c0.045-0.946-1.158-1.771-1.976-1.315c-0.276,0.156-0.45,0.494-0.675,0.747
	c-0.383,0.426-0.824,0.806-1.41,0.448c-0.624-0.38-0.657-0.999-0.415-1.626c0.314-0.821,0.662-1.632,0.995-2.445l0.028-0.067
	c0.684-0.723,1.575-0.276,2.364-0.41l0.061,0.009c0.882,0.782,1.839,1.422,3.027,1.64c0.79,0.657,0.821,1.484,0.638,2.426
	C371.924,151.046,371.147,152.541,370.086,153.91z"/>
<path fill="#EFEFEF" stroke="#EFEFEF" stroke-miterlimit="10" d="M367.017,159.748c0.696,1.802,0.245,2.65-1.632,2.821
	c-0.731,0.067-1.333,0.099-1.468,0.968c-0.18,0.287-0.369,0.569-0.539,0.862c-1.167,2.048-1.151,2.257,0.314,4.143
	c-0.164,1.049,0.017,2.305-1.525,2.512c-0.409-0.583-0.87-1.112-1.469-1.507c-0.585-0.727-1.068-1.563-2.042-1.862
	c-0.962-1.207-1.818-2.513-3.158-3.367c-0.371-0.488-0.767-0.96-1.114-1.464c-0.993-1.438-0.314-3.002,1.447-3.3
	c0.742-0.128,1.499-0.056,2.235,0.103c0.894,0.191,1.76,0.248,2.543-0.341l0.016,0.001c0.557,0.284,1.129,0.326,1.718,0.108
	l0.039,0.001c0.915,0.629,1.886,0.581,2.88,0.229C365.839,159.832,366.418,159.985,367.017,159.748z M358.55,163.9
	c0.548,0.47,0.899,1.307,1.769,1.194c0.815-0.104,0.922-0.9,1.102-1.535c0.296-1.033,0.119-1.29-0.976-1.513
	c-0.528-0.108-1.067-0.17-1.602-0.247c-0.404-0.059-0.841-0.141-1.055,0.331c-0.147,0.327-0.059,0.667,0.15,0.958
	C358.136,163.362,358.345,163.629,358.55,163.9z"/>
<path fill="#EFEFEF" stroke="#EFEFEF" stroke-miterlimit="10" d="M372.828,129.435c0.75,1.036,1.944,1.428,2.998,2
	c1.082,0.59,2.041,1.296,2.893,2.189c1.253,1.31,1.608,2.765,0.995,4.47c-0.113,0.312-0.146,0.653-0.216,0.981
	c-0.545,0.606-1.098,1.215-1.646,1.822c-1.287,1.422-2.897,1.504-4.52,0.872c-2.306-0.901-4.312-2.355-6.289-3.821
	c-0.267-0.198-0.495-0.475-0.687-0.753c-0.365-0.525-0.26-1.04,0.155-1.495c0.366-0.399,0.827-0.493,1.312-0.264
	c0.548,0.263,1.075,0.577,1.61,0.868c1.348,0.901,2.683,1.818,4.044,2.7c1.634,1.061,3.647,0.196,4.033-1.691
	c0.117-0.582,0.047-1.125-0.411-1.48c-0.838-0.647-1.476-1.604-2.632-1.785c-0.719-1.024-1.931-1.429-2.824-2.238
	c-0.623-0.564-1.688-1.003-1.271-2.029C370.892,128.492,371.967,129.332,372.828,129.435z"/>
<path fill="#EFEFEF" stroke="#EFEFEF" stroke-miterlimit="10" d="M382.018,131.666c-1.176-2.394-2.351-4.788-3.523-7.186
	c-0.358-0.736-0.679-1.492-1.061-2.218c-0.464-0.878-0.178-1.562,0.454-2.212c0.689-0.708,1.41-0.945,2.393-0.532
	c3.009,1.266,6.046,2.455,9.062,3.692c0.544,0.221,1.344,0.394,1.008,1.232c-0.29,0.716-0.874,1.306-1.765,1.054
	c-0.717-0.201-1.405-0.685-2.133-0.15c-1.059,0.775-1.838,1.833-2.591,2.884c-0.339,0.47-0.147,1.099,0.091,1.582
	c0.365,0.74,0.143,1.319-0.304,1.891C383.066,132.46,382.657,132.438,382.018,131.666z M383.139,125.562
	c0.376-0.521,1.322-0.972,0.646-1.963c-0.437-0.649-2.904-1.509-3.064-1.097c-0.385,0.985,0.162,1.82,0.665,2.626
	c0.108,0.171,0.257,0.317,0.372,0.486C382.174,126.25,382.615,126.16,383.139,125.562z"/>
<path fill="#EFEFEF" stroke="#EFEFEF" stroke-miterlimit="10" d="M358.97,180.596c-0.806,0.451-1.645,0.65-2.524,0.221
	c-0.506-0.249-0.911-0.602-0.846-1.255c0.061-0.612,0.375-1.003,0.987-1.126c0.131-0.025,0.269-0.023,0.403-0.047
	c0.974-0.183,1.648-0.724,1.677-1.742c0.028-0.941-0.605-1.407-1.47-1.697c-2.443-0.817-4.639-2.202-7.009-3.185l-0.052-0.022
	c-0.162-0.211-0.323-0.419-0.484-0.629l-0.008,0.018c0.037-0.206,0.078-0.411,0.114-0.619c0.164-0.221,0.33-0.44,0.497-0.66
	c1.083-0.396,2.147,0.077,3.223,0.069l0.022,0.009c0.728,0.638,1.438,1.312,2.537,1.049l0.012,0.002
	c0.753,0.818,1.658,1.322,2.792,1.362l0.049,0.004c0.194,0.036,0.393,0.073,0.586,0.11c0.205,0.164,0.408,0.331,0.612,0.496
	c0.239,0.305,0.479,0.612,0.718,0.919c0.174,0.425,0.348,0.85,0.52,1.274c-0.168,1.623-0.571,3.176-1.423,4.586
	C359.522,179.941,359.205,180.223,358.97,180.596z"/>
<path fill="#EFEFEF" stroke="#EFEFEF" stroke-width="2" stroke-miterlimit="10" d="M327.293,239.302
	c0.894,0.179,1.329-0.098,1.085-1.07c-0.394-1.585-1.058-3.105-1.23-4.75c-0.048-0.477-0.162-0.943-0.227-1.417
	c-0.059-0.428-0.016-0.837,0.467-1.012c0.451-0.164,0.79,0.061,1.095,0.369c0.827,0.847,1.276,1.942,1.838,2.954
	c0.509,0.923,1.127,1.724,2.073,2.21c1.145,0.593,2.017,0.143,1.912-1.091c-0.115-1.36-0.318-2.714-0.322-4.085
	c-0.002-0.646-0.583-0.876-0.972-1.248c-0.805-0.767-1.566-1.56-1.486-2.798c0.403-0.045,0.592-0.263,0.482-0.664
	c-0.125-0.46-0.16-0.907,0.06-1.349c0.541,1.179,1.042,2.38,1.634,3.528c0.673,1.305,1.935,2.171,2.644,1.921
	c0.783-0.275,0.961-1.811,0.562-3.376c-0.419-1.649-1.539-2.844-2.439-4.188c0.987-0.54-0.086-1.182,0.089-1.763
	c0.916,1.016,1.772,2.096,2.767,3.029c1.249,1.173,2.51,0.717,2.81-0.971c0.265-1.494,0.175-2.996-0.14-4.482
	c-0.37-1.757-1.354-2.63-3.195-2.804c-0.617-0.058-1.215-0.083-1.575-0.74c-1.405-2.559-1.163-4.648,0.256-6.706
	c0.187-0.273,0.445-0.571,0.834-0.358c0.254,0.138,0.311,0.443,0.299,0.722c-0.038,0.853-0.501,1.531-0.896,2.256
	c-0.439,0.811-0.229,1.64,0.438,2.235c0.63,0.566,1.104-0.061,1.605-0.381c1.056-0.672,1.135-0.665,1.618,0.448
	c0.272,0.622,0.488,1.279,0.633,1.94c0.124,0.552,0.271,1.042,0.684,1.45c0.84,0.834,1.668,0.653,1.928-0.523
	c0.312-1.403,0.494-2.852,0.151-4.274c-0.492-2.046-0.832-4.141-1.738-6.066c-0.614-1.307-1.265-2.561-2.835-3.025
	c-1.986-0.587-2.692-2.024-2.235-4.104c0.195-0.902,0.733-1.058,1.5-0.952c0.432,0.06,0.723,0.311,1.019,0.619
	c1.338,1.389,1.376,1.418,2.875,0.356c0.75-0.533,1.256-0.361,1.719,0.291c0.273,0.389,0.477,0.829,0.731,1.232
	c0.691,1.096,1.236,2.284,2.147,3.243c0.589,0.618,1.165,1.197,2.11,0.929c0.932-0.269,1.192-1.062,1.341-1.889
	c0.229-1.276,0.419-2.561,0.624-3.842c0.708,0.169,0.72,0.713,0.666,1.274c-0.104,1.142-0.224,2.28-0.338,3.421l-0.008,0.056
	c-0.513,0.551-0.684,1.274-0.944,1.943c-0.287,0.734-0.764,1.212-1.505,1.44c-0.264-0.037-0.521-0.076-0.782-0.11
	c-0.133-0.035-0.269-0.067-0.404-0.101c-0.87-0.884-1.741-1.766-2.61-2.65c-0.4-0.63-0.808-1.257-1.197-1.894
	c-0.369-0.612-0.804-1.238-1.598-0.839c-0.839,0.423-0.459,1.166-0.211,1.792c0.402,1.01,0.84,2.006,1.263,3.009
	c0.063,0.127,0.125,0.253,0.188,0.381c-0.032,0.474,0.211,0.831,0.491,1.174l0.003,0.019c0.004,0.17,0.012,0.342,0.017,0.514
	c0.162,0.232,0.324,0.463,0.483,0.696c-0.003,0.173-0.005,0.345-0.009,0.516l-0.008,0.084c0,0.159-0.002,0.318-0.004,0.477
	c0.08,0.134,0.159,0.268,0.239,0.403c-0.163,0.496-0.123,0.958,0.241,1.362c0.075,0.14,0.146,0.275,0.221,0.415
	c-0.188,0.605-0.271,1.219,0.074,1.79c0.647,1.084,0.423,2.254,0.368,3.402c-0.06,1.24-0.353,2.319-1.866,2.512
	c-0.724,0.092-0.993,0.631-1.091,1.306c-0.114,0.812-0.331,1.612-0.41,2.425c-0.126,1.291-0.653,2.419-1.568,3.252
	c-0.64,0.579-0.847,1.16-0.875,1.95c-0.032,0.888-0.094,1.785-0.261,2.655c-0.192,0.984-0.639,1.864-1.841,1.862
	c-0.937-0.004-1.15,0.516-1.171,1.304c-0.025,0.957-0.016,1.922-0.154,2.865c-0.273,1.805-1.498,2.225-2.889,0.993
	c-0.45-0.4-0.756-0.961-1.153-1.426c-0.181-0.21-0.446-0.335-0.733-0.196c-0.263,0.13-0.393,0.381-0.397,0.666
	c-0.004,0.201-0.009,0.45,0.096,0.598c1.062,1.497,0.79,3.42,1.621,4.985c-0.128,0.086-0.253,0.173-0.379,0.259
	c-0.203-0.354-0.475-0.686-0.587-1.064c-0.416-1.429-1.237-2.368-2.782-2.585C327.816,239.977,327.518,239.659,327.293,239.302z"/>
<path fill="#EFEFEF" stroke="#EFEFEF" stroke-width="2" stroke-miterlimit="10" d="M326.802,207.413
	c1.975,3.553,3.953,7.104,5.924,10.662c0.62,1.127,1.22,2.264,1.833,3.398c-0.175,0.581,0.896,1.223-0.091,1.763
	c-1.76-0.058-1.762-0.058-2.244,1.52c-0.059,0.198-0.104,0.398-0.156,0.595c-0.218,0.441-0.183,0.888-0.06,1.349
	c0.109,0.401-0.077,0.619-0.48,0.664c-0.143-0.229-0.284-0.454-0.428-0.682c-0.01-0.169-0.021-0.339-0.033-0.51
	c-0.427-0.715-0.681-1.497-0.805-2.312c-0.118-0.757-0.029-1.417,0.546-2.073c1.251-1.436,1.26-2.269,0.078-3.81
	c-1.753-2.281-3.299-4.701-4.936-7.063c-0.864-1.246-1.441-2.634-2.229-3.912c0.078-0.096,0.133-0.203,0.168-0.319
	c0.885-0.968,1.668-0.538,2.432,0.178C326.483,207.043,326.643,207.229,326.802,207.413z"/>
<path fill="#EFEFEF" stroke="#EFEFEF" stroke-width="2" stroke-miterlimit="10" d="M319.6,257.481
	c0.761,2.007,2.139,3.645,3.354,5.357c1.021,1.446,2.009,2.92,3.012,4.377c0.154,0.884,0.689,1.528,1.329,2.104l0.013,0.053
	c0.042,0.927,0.567,1.672,0.949,2.464c0.638,1.33,0.221,2.547-0.413,3.713c-0.329,0.604-0.874,0.656-1.356,0.166
	c-0.329-0.333-0.616-0.735-0.829-1.154c-0.717-1.395-1.458-2.792-2.072-4.22c-2.218-5.178-5.344-9.822-8.266-14.591
	c-0.602-0.979-1.417-1.843-2.222-2.675c-0.574-0.595-1.067-0.455-1.474,0.252c-0.314,0.554-0.407,1.162-0.384,1.785
	c0.066,1.652-0.378,3.253-0.482,4.886c-0.027,0.405-0.154,0.807-0.276,1.197c-0.169,0.548-0.613,0.71-1.133,0.659
	c-0.578-0.055-0.837-0.432-0.811-0.984c0.027-0.544,0.013-1.12,0.185-1.621c0.878-2.534,0.803-5.245,1.525-7.809
	c0.46-1.638,0.062-3.11-1.224-4.292c-0.673-1.46-1.619-2.677-3.051-3.467c-0.093-0.096-0.189-0.181-0.299-0.255
	c-0.75-0.866-1.383-1.897-2.732-1.9l-0.044-0.004c-1.349,0.252-2.216,0.94-2.207,2.425l0.008-0.009
	c-0.013,0.199-0.025,0.398-0.038,0.595l0.003-0.013c-0.009,0.196-0.017,0.392-0.022,0.587l-0.001,0.001
	c-0.018,0.195-0.037,0.39-0.055,0.585l-0.003-0.015c-0.386,0.411-0.487,0.897-0.374,1.44v-0.002
	c-0.011,0.195-0.027,0.391-0.043,0.585l-0.004-0.006c-0.729,1.373-0.635,2.854-0.565,4.33l-0.003,0.019
	c-0.013,0.188-0.029,0.376-0.044,0.564l-0.002,0.012c-0.011,0.189-0.022,0.378-0.037,0.567v0.015
	c-0.327,0.754-0.466,1.519-0.163,2.313h0.002c-0.011,0.194-0.022,0.39-0.036,0.584h-0.002c-0.237,1.349-0.37,2.659,1.239,3.324
	l-0.008-0.001c0.522,0.82,1.601,0.68,2.242,1.29l-0.001-0.006c-0.229,1.381-0.222,2.778-0.942,4.094
	c-0.531,0.964-1.108,1.44-2.178,1.476c-1.152,0.035-1.932-0.467-2.466-1.446c-0.388-0.713-0.298-1.616-0.917-2.23l-0.002,0.004
	c0.225-0.758,0.3-1.53,0.19-2.312v-0.02c0.188-0.516,0.083-1.001-0.144-1.475c0.186-0.729,0.281-1.461,0.346-2.219
	c0.319-3.939,0.706-7.881,1.968-11.662c0.501-1.498,0.563-3.097,1.143-4.579c0.827-2.109,2.11-2.602,3.962-1.3
	c1.396,0.982,2.709,2.08,3.794,3.436c0.769,0.959,1.603,1.88,2.505,2.712c0.701,0.646,1.161,0.49,1.536-0.391
	c0.257-0.61,0.38-1.286,1.354-1.855c-0.089,1.285-0.079,2.288-0.239,3.266c-0.213,1.311,0.101,2.463,0.889,3.472
	C315.607,252.266,317.353,255.068,319.6,257.481z"/>
<path fill="#EFEFEF" d="M330.662,245.157c-1.048-1.244-1.927-2.653-3.635-3.184c-0.404-0.126-0.687-0.642-1.025-0.979
	c-0.185-0.722-0.367-1.446-0.578-2.282c0.793-0.176,1.345,0.166,1.872,0.591c0.223,0.357,0.522,0.675,0.93,0.733
	c1.546,0.217,2.367,1.157,2.783,2.586c0.11,0.379,0.384,0.71,0.585,1.064l0.021,0.004c0.063,0.302,0.13,0.606,0.192,0.908
	c-0.288,0.247-0.577,0.493-0.866,0.741C330.847,245.276,330.756,245.214,330.662,245.157z"/>
<path fill="#EFEFEF" stroke="#EFEFEF" stroke-width="2" stroke-miterlimit="10" d="M330.662,245.157
	c-0.502-0.101-0.829-0.454-1.175-0.787c-0.301-0.287-0.651-0.609-1.062-0.288c-0.376,0.294-0.282,0.749-0.118,1.136
	c1.136,2.684,0.991,5.452,0.608,8.251c-0.103,0.742-0.432,1.282-0.991,1.717c-1.047,0.817-2.056,0.696-2.794-0.416
	c-0.451-0.678-0.751-1.457-1.157-2.167c-0.376-0.664-0.832-1.171-1.702-1.308c-2.875-0.449-3.859-1.83-3.312-4.673
	c0.218-1.133,0.655-2.229,1.024-3.332c0.081-0.248,0.261-0.484,0.449-0.671c0.343-0.338,0.748-0.724,1.247-0.37
	c0.382,0.271,0.277,0.758,0.121,1.136c-0.236,0.564-0.51,1.116-0.822,1.642c-0.599,1.016-0.546,2.092-0.348,3.181
	c0.119,0.652,0.488,1.195,1.143,1.304c0.773,0.13,1.033-0.489,1.21-1.113c0.073-0.254,0.118-0.537,0.55-0.651
	c0.802,0.509,0.748,1.481,0.995,2.287c0.276,0.919,0.477,1.864,1.26,2.526c0.681,0.571,1.24,0.475,1.647-0.322
	c0.423-0.832,0.418-1.732,0.248-2.611c-0.376-1.943-0.773-3.885-1.234-5.808c-0.227-0.937-0.348-1.876-0.448-2.827
	c0.34,0.338,0.622,0.854,1.027,0.979C328.735,242.503,329.614,243.913,330.662,245.157z"/>
<path fill="none" stroke="#EFEFEF" stroke-width="6" stroke-miterlimit="10" d="M193.864,175.188l-3.262-2.432
	c0,0-2.732,2.789-6.143,1.378c-3.409-1.414-11.514-14.411-11.514-14.411s-2.091-0.792-0.13-3.757
	c1.961-2.963,5.662-6.104,8.62-6.655c2.961-0.552,1.515-2.416,5.098-1.774c3.583,0.641,12.431,11.051,13.356,15.228
	c0.928,4.178-0.296,2.041-1.089,4.131c-0.792,2.09-2.208,2.988-0.865,3.857c1.346,0.869,2.89,1.214,2.89,1.214L193.864,175.188z"/>
<path fill="none" stroke="#EFEFEF" stroke-width="6" stroke-miterlimit="10" d="M342.166,71.675l-3.263-2.432
	c0,0-2.731,2.789-6.142,1.377c-3.41-1.413-11.516-14.41-11.516-14.41s-2.091-0.793-0.129-3.756c1.961-2.963,5.661-6.105,8.622-6.657
	c2.958-0.551,1.515-2.416,5.096-1.774c3.581,0.643,12.431,11.051,13.356,15.229c0.927,4.177-0.293,2.04-1.087,4.131
	c-0.793,2.091-2.21,2.988-0.866,3.857c1.345,0.869,2.016,0.885,2.016,0.885L342.166,71.675z"/>
<path fill="none" stroke="#EFEFEF" stroke-width="6" stroke-miterlimit="10" d="M231.609,148.49c0,0-0.749-2.437-4.444-0.889
	c-3.696,1.547-1.129-1.226-5.549-6.808c-4.419-5.581-7.872-8.246-8.307-10.883c-0.438-2.635-0.224-3.83,4.069-6.109
	c4.291-2.278,6.718-3.111,8.339-2.019c1.071,0.723,0.143,2.247,7.678,11.281c3.103,3.721,4.037,4.281,3.99,6.296
	c-0.088,3.8-2.251,2.574-0.874,4.612C237.89,146.009,231.609,148.49,231.609,148.49z"/>
<path fill="none" stroke="#EFEFEF" stroke-width="6" stroke-miterlimit="10" d="M252.861,98.753c0,0-6.676,5.2-6.149,12.017
	c0.523,6.815,2.45,7.625,4.16,9.628c1.711,2.006,8.646,2.642,11.411,1.857c2.77-0.784,2.784-2.293,3.483-2.029
	c0.694,0.264,2.439,2.6,2.439,2.6l5.136-3.871l-1.166-3.232c0,0,7.569-6.297,3.876-14.634c-3.695-8.335-8.773-7.233-11.421-6.881
	C259.338,94.913,253.542,98.853,252.861,98.753z"/>
<path fill="none" stroke="#EFEFEF" stroke-width="6" stroke-miterlimit="10" d="M361.799,23.361c0,0-6.674,5.2-6.148,12.016
	c0.526,6.816,2.448,7.625,4.161,9.63c1.71,2.004,8.644,2.64,11.413,1.856c2.768-0.785,2.783-2.293,3.479-2.029
	c0.698,0.264,2.444,2.601,2.444,2.601l5.135-3.873l-1.168-3.231c0,0,7.571-6.297,3.874-14.633c-3.69-8.336-8.771-7.235-11.419-6.882
	C368.282,19.52,362.483,23.46,361.799,23.361z"/>
<path fill="none" stroke="#EFEFEF" stroke-width="6" stroke-miterlimit="10" d="M304.798,97.165c0,0-1.247-2.385-3.367-1.835
	c-2.123,0.55-6.415,2.83-11.447-2.189c-5.031-5.015-5.631-5.3-6.464-9.226c-0.644-3.034,1.03-5.26,3.876-8.017
	c1.449-1.403,3.122-3.082,7.398-4.688c5.516-2.071,6.714-1.52,9.138-0.759c2.42,0.759,6.315,9.41,6.315,9.41
	s4.035,3.443-0.119,8.723c-4.154,5.279-3.299,2.177-2.815,3.636c0.482,1.458,1.465,2.866,1.465,2.866L304.798,97.165z"/>
<path fill="#EFEFEF" d="M192.499,309.718c-4.279-3.762-9.329-6.416-13.745-9.997c-4.327-3.508-8.208-7.517-12.667-10.873
	c-4.847-3.648-9.878-7.04-14.752-10.653c-2.336-1.732-4.568-3.606-6.721-5.56c-1.684-1.527-4.98-3.023-6.079-5.007
	c-1.259-2.272-3.512-2.614-5.364-1.847c-4.957,0.465-5.152,7.878-0.554,8.847c2.29,2.398,5.463,4.251,7.852,6.353
	c4.726,4.157,10.033,7.697,15.164,11.322c5.484,3.875,10.389,8.243,15.43,12.657c4.724,4.137,10.383,7,15.071,11.121
	C190.475,319.897,196.866,313.557,192.499,309.718z"/>
</svg>
