<?xml version="1.0" encoding="utf-8"?>
<!-- Generator: Adobe Illustrator 16.0.0, SVG Export Plug-In . SVG Version: 6.00 Build 0)  -->
<!DOCTYPE svg PUBLIC "-//W3C//DTD SVG 1.1//EN" "http://www.w3.org/Graphics/SVG/1.1/DTD/svg11.dtd">
<svg version="1.1" xmlns="http://www.w3.org/2000/svg" xmlns:xlink="http://www.w3.org/1999/xlink" x="0px" y="0px" width="450px"
	 height="480px" viewBox="0 0 450 480" enable-background="new 0 0 450 480" xml:space="preserve">
<g id="Layer_1" display="none">
	
		<image display="inline" overflow="visible" width="590" height="400" xlink:href="../../../../../Desktop/cassette-1.jpg"  transform="matrix(0.7328 0 0 0.6994 9.4912 107.2183)">
	</image>
</g>
<g id="Ootline">
	<path fill="none" stroke="#EFEFEF" stroke-width="6" stroke-miterlimit="10" d="M21.203,100h407.858c0,0,6.396-1.555,10.706,8.971
		c4.311,10.526,0.616,240.874,0.616,240.874s-0.337,5.688-7.388,11.147c-4.366,3.382-55.199,0.774-55.199,0.774l-5.069,1.983
		l-293.218-0.025L75.847,362h-55.77c0,0-9.296-2.1-9.014-10.314c0.281-8.215-0.563-241.141-0.563-241.141S11.063,103,21.203,100z"/>
	<path fill="#EFEFEF" d="M31.532,112.569c-4.382,0.006-8.763,0.08-13.145,0c-2.181-0.04-2.177,3.359,0,3.399
		c4.382,0.08,8.763,0.006,13.145,0C33.711,115.965,33.711,112.565,31.532,112.569z"/>
	<path fill="#EFEFEF" d="M232.08,318.803c-4.382,0.006-8.764,0.079-13.145,0c-2.181-0.04-2.176,3.36,0,3.399
		c4.381,0.08,8.763,0.007,13.145,0C234.261,322.197,234.261,318.798,232.08,318.803z"/>
</g>
<g id="Layer_3">
	<path fill="none" stroke="#EFEFEF" stroke-width="5" stroke-miterlimit="10" d="M351.695,220c0,17.836-14.344,32.5-32.037,32.5
		H134.549c-17.694,0-32.038-14.664-32.038-32.5l0,0c0-17.836,14.344-32.5,32.038-32.5h185.109
		C337.352,187.5,351.695,202.164,351.695,220L351.695,220z"/>
	<path fill="none" stroke="#EFEFEF" stroke-width="3" stroke-miterlimit="10" d="M270.5,240.483c0,2.367-0.049,5.017-2.776,5.017
		H187.1c-6.189-1-7.6-2.649-7.6-5.017v-42.859c0-2.367,2.678-3.124,7.6-3.124h80.624c2.728,0,2.776,0.757,2.776,3.124V240.483z"/>
	<ellipse fill="none" stroke="#EFEFEF" stroke-width="2" stroke-miterlimit="10" cx="24.654" cy="114.104" rx="7.816" ry="7.861"/>
	<ellipse fill="none" stroke="#EFEFEF" stroke-width="2" stroke-miterlimit="10" cx="225.203" cy="320.336" rx="7.816" ry="7.861"/>
	<path fill="none" stroke="#EFEFEF" stroke-width="3" stroke-miterlimit="10" d="M78.289,360.821L89.556,304.6
		c0,0-0.001-4.1,6.008-4.1c7.887,0,262.516,0,262.516,0s3.756-0.057,4.508,4.76c1.067,6.85,12.393,56.063,12.393,56.063"/>
	<path fill="#EFEFEF" d="M30.137,343.181c-3.908,1.994-7.785,4.048-11.731,5.966c-1.964,0.953-0.436,3.985,1.525,3.033
		c3.947-1.918,7.824-3.971,11.731-5.966C33.604,345.221,32.08,342.188,30.137,343.181z"/>
	<path fill="none" stroke="#EFEFEF" stroke-width="2" stroke-miterlimit="10" d="M31.662,344.124
		c1.948,3.875,0.404,8.604-3.448,10.562c-3.853,1.958-8.554,0.406-10.502-3.469s-0.404-8.604,3.448-10.562
		C25.013,338.696,29.714,340.248,31.662,344.124z"/>
	<path fill="#EFEFEF" stroke="#EFEFEF" stroke-miterlimit="10" d="M428.301,108.225c-2.985,3.226-5.922,6.498-8.97,9.665
		c-1.517,1.577,0.957,3.893,2.472,2.319c3.047-3.167,5.983-6.438,8.969-9.665C432.255,108.939,429.785,106.618,428.301,108.225z"/>
	<path fill="none" stroke="#EFEFEF" stroke-width="2" stroke-miterlimit="10" d="M430.057,108.581
		c3.155,2.963,3.324,7.938,0.38,11.11c-2.947,3.174-7.891,3.347-11.047,0.384c-3.156-2.963-3.327-7.937-0.382-11.111
		C421.954,105.79,426.899,105.618,430.057,108.581z"/>
	<path fill="#EFEFEF" stroke="#EFEFEF" stroke-miterlimit="10" d="M419.604,345.559c3.798,2.195,7.63,4.333,11.388,6.602
		c1.869,1.131,3.555-1.815,1.688-2.943c-3.757-2.27-7.587-4.407-11.388-6.603C419.4,341.522,417.712,344.469,419.604,345.559z"/>
	<path fill="none" stroke="#EFEFEF" stroke-width="2" stroke-miterlimit="10" d="M419.552,343.758
		c2.156-3.762,6.936-5.052,10.675-2.883c3.74,2.168,5.025,6.974,2.868,10.736c-2.157,3.762-6.936,5.052-10.675,2.884
		C418.679,352.328,417.395,347.521,419.552,343.758z"/>
</g>
<g id="Layer_4">
	
		<ellipse fill="none" stroke="#EFEFEF" stroke-width="2" stroke-miterlimit="10" cx="135.702" cy="220.69" rx="26.759" ry="26.912"/>
	<path fill="#EFEFEF" stroke="#EFEFEF" stroke-miterlimit="10" d="M158.838,213.184c-0.899-1.076-1.903-1.281-3.213-0.819
		c-1.21,0.426-2.079,1.624-3.477-0.371c-1.019-1.452,1.868-3.164,2.635-3.983c0.608-0.649,0.697-1.767,0-2.403
		c-0.167-0.153-0.334-0.306-0.502-0.458c-0.001-0.007-0.001-0.013-0.002-0.019c-1.262-5.374-9.175-7.03-13.592-7.959
		c-1.413-0.297-2.608,0.429-2.809,1.881c-0.094,0.682,0.458,3.782-0.573,3.809c-2.806,0.071-4.103-0.982-3.997-3.793
		c0.025-0.658-0.265-1.114-0.681-1.376c-0.25-0.424-0.711-0.695-1.384-0.607c-3.473,0.456-6.499,1.39-9.613,3.012
		c-1.52,0.792-4.895,3.08-5.268,4.821c-0.427,2.003,0.335,3.019,1.912,4.299c1.949,1.583,0.602,4.59-1.788,3.377
		c-0.674-0.343-1.687-0.445-2.405-0.246c-4.473,1.237-3.538,10.017-2.8,13.096c0.329,1.373,0.737,3.511,2.271,4.081
		c0.978,0.363,1.93,0.461,2.976,0.172c5.265-1.462,1.437,3.139,0.938,3.769c-0.671,0.848-0.414,1.876,0.181,2.479
		c0.115,0.327,0.343,0.627,0.725,0.851c2.057,1.209,3.542,3.164,5.484,4.546c1.923,1.371,4.37,1.357,6.562,1.951
		c0.4,0.108,0.756,0.078,1.057-0.047c0.932,0.184,2.095-0.349,2.208-1.592c0.125-1.365,0.606-2.15,2.065-2.171
		c2.366-0.035,1.383,1.687,2.085,3.023c0.732,1.396,1.568,1.856,3.135,1.84c4.292-0.046,10.863-4.367,13.345-7.534
		c0.559-0.714,0.724-1.708,0-2.403c-1.286-1.237-3.056-1.964-1.815-4.404c0.421-0.829,2.5-0.358,3.681-0.122
		c0.831,0.563,2.285,0.432,2.794-0.809C160.604,225.1,161.922,216.874,158.838,213.184z M156.174,226.442
		c-2.739-0.584-4.475-1.317-6.594,1.847c-2.214,3.305-0.968,5.228,1.17,7.378c-2.302,2.175-5.48,3.591-8.339,4.796
		c-2.132,0.9-1.853-2.793-3.633-3.841c-1.725-1.016-4.381-0.599-6.213-0.161c-1.666,0.398-2.021,1.861-2.144,3.337
		c-2.006-0.435-3.952-0.597-5.649-1.992c-1.326-1.088-2.444-2.328-3.808-3.333c1.623-2.099,2.599-4.005,0.165-6.983
		c-1.054-1.291-2.077-1.541-3.689-1.512c-2.327,0.041-2.167,1.013-2.9-1.439c-0.779-2.606-0.587-5.06,0.141-7.611
		c0.461-1.617,3.023,0.154,4.261-0.188c1.61-0.446,3.158-2.853,3.667-4.285c0.719-2.021,0.305-3.189-0.981-4.83
		c-1.13-1.44-2.383-1.233-0.552-2.825c2.595-2.254,5.48-3.485,8.77-4.096c-0.062,1.733,0.063,3.706,1.56,4.602
		c2.149,1.288,5.352,1.321,7.754,0.712c2.167-0.547,2.145-3.291,2.061-5.15c0.197,0.018,0.422,0.033,0.706,0.04
		c1.757,0.382,3.17,0.61,4.799,1.515c1.351,0.749,3.486,1.679,4.142,3.217c-0.072,0.346-0.028,0.713,0.188,1.057
		c-1.252,0.884-2.623,1.763-2.68,3.397c-0.076,2.214,0.843,3.976,2.422,5.486c1.234,1.181,3.096,1.258,4.586,0.611
		C157.945,215.081,156.967,222.755,156.174,226.442z"/>
	<path fill="none" stroke="#EFEFEF" stroke-width="2" stroke-miterlimit="10" d="M343.229,209.973
		c5.263,13.888-1.665,29.438-15.475,34.731c-13.809,5.294-29.271-1.674-34.533-15.563c-5.265-13.888,1.665-29.438,15.474-34.732
		C322.504,189.117,337.965,196.084,343.229,209.973z"/>
	<path fill="#EFEFEF" stroke="#EFEFEF" stroke-miterlimit="10" d="M342.938,219.308c-0.035-1.342-1.349-1.985-2.322-1.756
		c-1.188-0.201-3.297-0.507-3.396-1.432c-0.297-2.724,1.617-2.771,3.255-3.465c0.923-0.391,1.121-1.379,0.852-2.246
		c-1.198-3.848-5.808-10.239-9.804-11.821c-1.458-0.576-2.401-0.446-3.58,0.597c-1.131,0.998-0.82,2.958-3.02,2.078
		c-1.355-0.542-1.526-1.447-1.16-2.768c0.333-1.202-0.565-2.115-1.501-2.278c-0.237-0.225-0.559-0.38-0.971-0.423
		c-2.258-0.23-4.54-1.119-6.822-0.528c-2.305,0.598-4.386,1.891-6.734,2.285c-0.438,0.072-0.756,0.271-0.979,0.536
		c-0.77,0.351-1.374,1.218-1.046,2.251c0.242,0.767,2.235,6.754-2.211,3.187c-0.85-0.681-1.8-0.941-2.843-0.907
		c-1.067,0.036-2.526,1.987-3.321,3.152c-1.779,2.613-5.257,10.576-2.268,13.087c0.572,0.481,1.583,0.71,2.336,0.632
		c2.662-0.278,2.856,3.015,0.475,3.795c-1.926,0.632-2.998,1.308-3.309,3.333c-0.269,1.761,2.074,5.106,3.216,6.393
		c2.334,2.632,4.831,4.588,7.913,6.257c0.6,0.325,1.127,0.237,1.51-0.071c0.481-0.095,0.913-0.418,1.123-1.041
		c0.898-2.667,2.481-3.186,5.079-2.113c0.955,0.393-0.66,3.092-0.812,3.764c-0.327,1.429,0.532,2.535,1.958,2.763
		c4.456,0.714,12.438,2.001,15.52-2.569c0.003-0.004,0.004-0.012,0.008-0.016c0.211-0.083,0.486-0.075,0.633-0.25
		c0.609-0.724,1.188-1.42,0.85-2.245c-0.426-1.041-2.516-3.674-1.05-4.666c2.012-1.363,2.399,0.068,3.379,0.899
		c1.062,0.901,2.073,1.069,3.293,0.387C341.373,231.764,343.054,223.605,342.938,219.308z M335.024,230.061
		c-1.165-1.14-2.931-1.733-4.504-1.073c-2.009,0.847-3.492,2.164-4.205,4.259c-0.525,1.547,0.443,2.859,1.301,4.135
		c-0.323,0.243-0.495,0.57-0.55,0.92c-1.157,1.204-3.483,1.306-5.01,1.523c-1.843,0.261-3.244-0.031-5.021-0.303
		c-0.267-0.096-0.481-0.162-0.673-0.216c0.737-1.708,1.729-4.264-0.102-5.551c-2.029-1.429-5.034-2.547-7.498-2.113
		c-1.716,0.302-2.531,2.1-3.087,3.743c-2.859-1.75-5.118-3.934-6.743-6.969c-1.148-2.144-0.051-1.501,1.515-2.443
		c1.782-1.071,2.583-2.015,2.628-4.161c0.029-1.521-0.564-4.324-1.91-5.317c-1.037-0.764-3.174,0.229-3.644-1.565
		c-0.672-2.567,0.641-5.145,2.291-7.3c1.553-2.029,1.061-1.178,3.219-0.307c1.498,0.605,2.542,0.738,3.985-0.091
		c3.327-1.911,3.092-4.042,2.317-6.584c1.631-0.45,3.115-1.209,4.738-1.75c2.081-0.695,3.956-0.15,5.984,0.162
		c-0.407,1.423-0.594,2.917,0.822,3.886c1.558,1.066,3.891,2.407,5.861,2.075c2.036-0.342,3.081-3.892,4.755-2.289
		c2.245,2.15,4.714,4.612,6.096,7.469c-2.761,1.244-4.606,2.593-3.706,6.476c0.857,3.715,2.739,3.652,5.506,4.087
		C338.825,224.494,337.022,232.016,335.024,230.061z"/>
	<path fill="#EFEFEF" stroke="#EFEFEF" stroke-miterlimit="10" d="M128.333,339.518c-12.005-7.956-24.699,13.547-12.349,18.517
		C128.692,364.542,141.022,347.931,128.333,339.518C123.448,336.281,132.711,342.421,128.333,339.518z M129.845,351.426
		c-1.504,7.385-15.069,5.952-15.242-1.755C114.341,338.062,132.312,339.308,129.845,351.426
		C128.675,357.17,130.482,348.294,129.845,351.426z"/>
	<path fill="#EFEFEF" stroke="#EFEFEF" stroke-miterlimit="10" d="M334.41,338.592c-12.979-5.454-22.884,12.423-9.501,19.126
		C338.678,364.61,348.311,344.434,334.41,338.592C327.913,335.862,339.67,340.803,334.41,338.592z M336.089,353.824
		c-4.33,4.235-13.972,1.356-14.438-5.088C320.651,333.868,346.147,343.983,336.089,353.824
		C331.326,358.482,339.041,350.935,336.089,353.824z"/>
	<polygon fill="none" stroke="#EFEFEF" stroke-width="4" stroke-miterlimit="10" points="34.724,139.103 33.597,290.945 
		416.104,291.512 416.668,139.103 402.584,123.239 47.68,122.673 	"/>
</g>
</svg>
