<?xml version="1.0" encoding="utf-8"?>
<!-- Generator: Adobe Illustrator 16.0.0, SVG Export Plug-In . SVG Version: 6.00 Build 0)  -->
<!DOCTYPE svg PUBLIC "-//W3C//DTD SVG 1.1//EN" "http://www.w3.org/Graphics/SVG/1.1/DTD/svg11.dtd">
<svg version="1.1" id="Layer_1" xmlns="http://www.w3.org/2000/svg" xmlns:xlink="http://www.w3.org/1999/xlink" x="0px" y="0px"
	 width="450px" height="480px" viewBox="0 0 450 480" enable-background="new 0 0 450 480" xml:space="preserve">
<g id="Layer_5">
	<path fill="none" stroke="#EFEFEF" stroke-width="6" stroke-miterlimit="10" d="M377.908,101.637
		c74.216,79.074,74.747,205.685,1.428,285.376c-69.83,75.899-188.445,89.385-273.382,30.696
		C21.159,359.12-8.813,243.687,37.393,151.372C86.198,53.866,205.789,9.329,306.501,51.856"/>
	<g>
		<path fill="#EFEFEF" d="M198.534,122.209C198.481,122.321,198.521,122.237,198.534,122.209
			C198.523,122.233,198.524,122.23,198.534,122.209z"/>
		<path fill="#EFEFEF" d="M236.954,132.09c0.037-0.231,0.077-0.462,0.119-0.691c-0.222,0.109-0.451,0.19-0.693,0.236
			C236.57,131.787,236.758,131.941,236.954,132.09C236.991,131.859,236.758,131.941,236.954,132.09z"/>
		<path fill="#EFEFEF" d="M242.064,114.407c0.479,0.749,0.957,1.496,1.451,2.235C243.255,115.683,242.854,115.015,242.064,114.407z"
			/>
		<path fill="#EFEFEF" d="M331.634,131.95c3.932,5.203,0.777,16.156,11.483,19.179c-0.426-1.314,0.086-8.032,3.253-4.553
			c0.598,0.654,1.2,1.323,1.762,2.023c0.132-0.221,0.325-0.407,0.547-0.564c-4.978-5.996-10.415-11.598-16.243-16.762
			C332.214,131.563,331.941,131.806,331.634,131.95C331.963,132.386,331.941,131.806,331.634,131.95z"/>
		<path fill="#EFEFEF" d="M351.086,335.478c13.185-18.277,23.039-44.445,16.822-66.877c-3.516-12.684,0.63-11.839-10.342-16.805
			c-7.335-3.312-15.19,13.551-26.45,6.409c-6.4-4.06-15.167-16.175-15.878-23.813c-0.582-6.257-2.963-12.84-2.257-19.113
			c0.75-6.659,6.862-14.104,5.77-20.607c-1.573-9.36,7.398-18.291,15.663-21.546c2.453-3.803,14.781,3.14,18.484,4.991
			c-1.863-4.248,6.313-7.923,8.652-6.682c-2.464-4.212-6.062-12.864-10.542-15.305c0.259,4.088-11.316-3.225-11.921-3.372
			c1.003,1.12,1.725,2.405,2.548,3.782c0.863,1.44-1.383,2.744-2.241,1.31c-2.714-4.529-5.962-5.504-11.08-6.129
			c1.87,3.49,4.947,4.296,8.762,5.844c1.529,0.623,0.859,3.137-0.69,2.502c-2.575-1.048-9.54-2.692-10.594-5.549
			c-1.515,6.226,1.694,17.525-0.979,21.921c-7.397,12.162-24.11-1.652-19.143-12.011c1.456-3.032,11.281-0.457,7.059-6.374
			c-2.2-3.075-4.272-4.454-7.471-4.427c-1.119,0.011-1.119-1.719,0-1.73c0.876,0.274,1.61,0.135,2.203-0.415
			c-1.83-1.742-1.28-5.791,1.182-6.932c-2.742-6.158-2.026-5.126-6.238-10.711c-1.749-2.323,7.393,1.12,8.344,1.395
			c2.552-4.386,0.191-6.074-1.294-9.969c-5.25-0.885-3.4-1.336-6.247-5.451c0.054,6.809-11.544-4.379-13.514-4.91
			c3.687,6.442,11.836,8.917,17.13,14.443c0.839,0.873,0.014,2.656-1.261,2.167c-1.949-1.548-4.155-2.32-6.619-2.318
			c-0.048,3.095-13.37-2.72-9.488-8.242c-3.07-3.348-10.599-6.105-11.131-11.135c-0.185-1.727,4.215-1.223,4.887-1.14
			c0-0.001,0-0.001,0-0.001c1.921,0.276,3.896,0.072,5.821-0.046c1.671-0.103,1.661,2.495,0,2.596
			c-0.076,0.004-0.149,0.007-0.224,0.013c2.428,0.251,4.579,1.044,6.453,2.38c-0.489-1.71-1.532-2.929-3.127-3.657
			c-1.365-1.064,0.107-3.464,1.682-2.893c0.404,0.146,0.762,0.342,1.102,0.56c0.057-0.24,0.162-0.463,0.288-0.67
			c-37.542-17.294-81.593-18.401-119.967-3.047c0.337,0.493,0.668,0.152,1.171,0.008c3.33-0.987-2.916,7.116-4.186,7.79
			c1.096,1.018,14.339,12.049,14.414,12.405c-0.275-1.32,9.261-9.305,9.261-4.884c0-1.309-4.017,8.425-1.696,6.309
			c-3.53,3.212-9.909,4.176-12.098,1.733c3.913,4.355-10.673,11.527-7.186,13.415c6.876,3.733,9.444,5.384,9.411,13.095
			c6.045-2.257,16.01-27.514,21.315-16.324c0.089,0.188,27.979,14.852,16.923,20.572c-6.807,3.519-17.405-0.342-23.215,5.203
			c12.456-3.083,6.378-2.29,9.902,3.727c0.86,1.474,9.651-0.081,7.227,2.495c-2.985,3.179-7.985,2.568-10.816,5.192
			c-1.632,1.517-4.083-0.921-2.448-2.448c1.379-0.929,2.216-2.253,2.511-3.973c-0.126-0.442-22.252,17.338-22.565,16.894
			c-2.723,5.488-4.427,8.708-10.719,11.186c-5.547,2.187-7.17,20.059-6.791,20.192c-7.69-2.698,1.017-14.25-12.248-15.022
			c-14.494-0.823-14.877,0.892-22.389,12.409c-3.43,5.258-1.375,13.961,3.432,16.507c8.944,4.804,5.09-9.202,13.401-6.681
			c8.001,2.422-9.6,13.408-2.028,15.708c1.962-2.725,8.541,2.557,9.17,4.241c1.235,3.306-1.926,7.491-3.131,10.398
			c2.9,1.791,5.402,4.048,7.507,6.771c2.577-4.819,9.706,0.687,11.505,3.381c2.869-14.875,28.237-6.99,36.728-1.777
			c5.79,3.58,5.907,7.866,13.253,9.307c13.518-3.432,14.201,16.813,26.919,18.241c9.657,1.082,16.827,4.462,25.451,6.856
			c10.734,2.951-4.992,24.542-7.106,30.455c-4.402,12.311-18.772,12.027-23.599,22.077c0.146,4.964-16.179,17.689-20.756,16.887
			c3.516,5.97-9.847,10.71-14.252,13.521c0.087,3.092,5.217,3.625-1.231,4.824c0.598,1.442,6.069,4.021,5.664,5.487
			c-1.09,4.028-16.867-5.3-17.643-10.661c-1.538-9.86-1.941-19.289-2.563-29.481c-0.53-9.022,0.728-15.654-7.433-20.579
			c-14.297-8.63-26.486-17.385-24.399-35.977c0.712-6.345,2.425-12.976,5.772-18.473c6.956-11.42,1.074-1.867,0.187-11.363
			c-0.692-0.562-1.934-4.062-3.344-2.92c0.146,1.05-1.291,4.331-2.758,3.572c-5.384-2.791-12.49-9.695-13.584-15.941
			c-0.135-0.764-12.115-12.544-13.306-13.041c-7.309,0.875-17.714-8.587-17.344-16.164c0.167-3.742-1.222-7.048-1.405-10.599
			c-0.288-5.696,2.35-17.736,0.55-22.369c-3.471,8.541-0.811,15.732-2.529,24.221c-0.221,1.094-1.888,0.63-1.669-0.459
			c2.725-13.465-0.958-31.583,6.703-43.898c5.361-18.004,27.1-30.18,34.862-46.842c-1.167,0.021-8.348,0.84-8.033,1.777
			C70.03,173.21,58.603,281.96,120.14,348.383c62.812,67.799,174.866,62.974,231.645-10.1
			C350.816,337.752,350.254,336.629,351.086,335.478C353.104,332.681,350.254,336.629,351.086,335.478z M188.574,115.799
			c-4.511,4.486-14.646,4.413-6.37-2.218c-2.098-2.255,3.573-4.435,4.746-3.258C187.351,110.722,189.242,115.13,188.574,115.799
			C188.4,115.972,189.29,115.082,188.574,115.799z M177.289,233.307c-8.414-0.022-10.264-7.989-18.172-7.499
			c-2.23,0.136-2.217-3.326,0-3.461c8.458-0.523,10.584,7.473,18.173,7.501C179.521,229.851,179.521,233.312,177.289,233.307
			C174.465,233.3,179.521,233.312,177.289,233.307z M188.18,237.703c-1.67-0.047-3.266-0.404-4.786-1.068
			c-4.184-1.305,1.959-6.209,7.235-1.379C192.278,236.765,189.824,239.206,188.18,237.703
			C187.416,237.003,189.824,239.206,188.18,237.703z M194.195,113.798c-1.411-0.389-2.127-1.815-1.813-3.193
			c0.613-2.702,3.105-3.895,5.675-3.926C204.483,106.593,196.595,114.456,194.195,113.798
			C192.784,113.409,195.512,114.159,194.195,113.798z M195.225,130.268c-0.936,1.915-2.293,2.275-4.07,1.081
			c-0.861-1.468,1.952-4.326,3.449-3.449C195.341,128.332,195.8,129.518,195.225,130.268
			C194.707,130.943,195.8,129.518,195.225,130.268z M200.017,125.408c-0.936,0.49-3.744,1.851-4.646,0.316
			c-0.84-1.431,2.598-3.529,2.63-4.305c-0.288,0.68-0.206,0.963,0.247,0.849c0.091-0.349,0.704-0.874,0.261-0.431
			c1.283-2.019,2.43-1.879,3.443,0.421C201.819,123.562,201.211,124.783,200.017,125.408
			C199.536,125.66,201.211,124.783,200.017,125.408z M218.268,109.074c-0.209,0.358-7.927,5.84-9.255,6.683
			c-0.554-0.372,10.145,12.726,8.389,9.875c0.047,0.076-3.033,8.675-3.459,9.402c-2.621,4.458-11.597-2.308-7.932-5.979
			c-0.398,0.397,3.568-2.157,3.915-2.391c-3.193-1.959-6.657-4.541-5.567-8.954c-2.97,1.574-7.229-2.271-4.405-5.097
			c1.536-0.789,3.014-0.861,4.435-0.215c1.245-4.397,7.166-4.034,8.649-6.382C215.004,102.644,220.24,105.691,218.268,109.074
			C217.11,111.056,220.24,105.691,218.268,109.074z M227.893,164.231c-0.204,0.279-10.062,2.147-10.264,2.029
			c-1.491-3.089-0.301-5.6,3.569-7.532C221.108,158.784,228.904,162.843,227.893,164.231
			C227.104,165.31,228.449,163.468,227.893,164.231z M252.732,123.054c-6.84,4.122-9.545,7.186-11.502,14.601
			c-1.869,7.08-12.954-8.163-13.186-10.674c-0.69-7.539-11.972-16.032-2.192-20.302c2.623-1.146,10.459-5.604,13.37-3.9
			c2.698,1.583,2.302,5.518,4.612,6.588C245.812,110.28,256.011,121.073,252.732,123.054
			C250.468,124.419,254.521,121.973,252.732,123.054z M302.609,148.343c-0.75,3.42-7.942-12.355-10.625-7.635
			c0.237,0.115,0.45,0.265,0.641,0.448l0.005-0.006c1.56,1.646,3.271,4.316,1.892,6.641c-2.405,4.062-6.705-11.6-6.529-12.792
			c0.334-2.276,10.961,5.534,12.303,5.908C307.029,142.778,303.22,145.625,302.609,148.343
			C302.251,149.978,302.643,148.195,302.609,148.343z"/>
		<path fill="#EFEFEF" d="M327.593,204.201c-0.388,1.905-0.637,3.866-0.788,5.831C327.052,208.085,327.311,206.139,327.593,204.201z
			"/>
	</g>
	<path fill="none" stroke="#EFEFEF" stroke-width="7" stroke-miterlimit="10" d="M294.411,138.017
		c4.284-29.436,8.567-58.871,12.852-88.306c1.278-8.784,11.24-18.946,17.542-24.317c20.019-17.059,44.066-9.34,62.336,6.466
		c24.692,21.362,15.789,60.985-13.128,73.022C347.479,115.927,320.945,126.972,294.411,138.017z"/>
	<path fill="none" stroke="#EFEFEF" stroke-width="7" stroke-miterlimit="10" d="M352.734,31.44c40.045,0,40.045,62.1,0,62.1
		C312.688,93.54,312.688,31.44,352.734,31.44z"/>
	<path fill="#EFEFEF" d="M150.649,98.715c-10.891-2.079-11.166-1.995-19.052,5.799c-1.389-11.001-1.553-11.236-11.403-16.328
		c10.033-4.721,10.207-4.95,12.005-15.891c7.589,8.083,7.861,8.178,18.823,6.509C145.68,88.519,145.675,88.807,150.649,98.715z"/>
	<path fill="#EFEFEF" d="M194.231,80.728c-5.102-5.88-9.715-6.758-16.622-3.167c4.058-6.633,3.437-11.244-2.151-16.64
		c7.563,1.791,11.823-0.146,15.291-7.116c0.66,7.757,3.91,11.125,11.602,12.241C195.17,69.009,192.897,73.068,194.231,80.728z"/>
	<path fill="#EFEFEF" d="M47.743,260.396c-3.382-4.607-8.31-5.547-13.149-2.506c3.366-4.615,2.72-9.549-1.703-13.162
		c5.432,1.774,9.97-0.325,12.097-5.629c0.026,5.714,3.475,9.337,9.178,9.684C48.723,250.517,46.31,254.867,47.743,260.396z"/>
	<path fill="#EFEFEF" d="M61.812,304.841c-3.998-2.611-7.642-2.187-10.931,1.275c1.37-4.532-0.154-7.701-4.534-9.525
		c4.773-0.074,7.494-2.448,8.129-7.159c1.702,4.438,4.896,6.123,9.558,5.098C60.19,297.312,59.437,300.745,61.812,304.841z"/>
	<path fill="#EFEFEF" d="M47.743,196.396c-3.382-4.608-8.31-5.547-13.149-2.505c3.366-4.615,2.72-9.549-1.703-13.162
		c5.432,1.775,9.971-0.326,12.097-5.63c0.026,5.715,3.475,9.337,9.178,9.684C48.724,186.516,46.31,190.867,47.743,196.396z"/>
	<path fill="#EFEFEF" d="M170.229,417.442c-4.271-2.637-8.955-2.128-12.56,1.365c1.814-4.698-0.304-7.952-4.958-9.471
		c4.946,0.229,8.615-2.343,9.496-7.219c1.91,4.571,6.045,6.294,10.826,5.008C168.814,409.61,167.447,413.244,170.229,417.442z"/>
	<path fill="#EFEFEF" d="M373.807,372.464c-4.788-1.508-9.204,0.136-11.842,4.406c0.606-5-2.245-7.636-7.13-7.966
		c4.851-0.992,7.776-4.386,7.437-9.328c2.972,3.964,7.403,4.62,11.723,2.2C370.513,365.219,370.078,369.076,373.807,372.464z"/>
	<path fill="#EFEFEF" d="M61.007,310.614c4.876,9.878,5.108,10.047,16.009,11.633c-7.889,7.688-7.977,7.961-6.115,18.819
		c-9.751-5.127-10.037-5.127-19.788,0c1.862-10.858,1.774-11.13-6.115-18.819C55.899,320.661,56.131,320.493,61.007,310.614z"/>
	<path fill="#EFEFEF" d="M229.766,438.308c-7.73-2.389-12.259-0.621-16.323,6.376c-0.116-8.09-3.197-11.849-11.107-13.552
		c7.66-2.61,10.282-6.702,9.456-14.752c4.85,6.476,9.552,7.707,16.952,4.436C224.083,427.43,224.365,432.281,229.766,438.308z"/>
	<path fill="#EFEFEF" d="M386.732,357.917c-4.424-3.186-9.148-2.567-12.603,1.65c1.663-5.192-0.384-9.495-5.462-11.479
		c5.451-0.022,8.909-3.299,9.227-8.741c1.706,5.179,5.892,7.456,11.166,6.076C384.662,348.645,383.79,353.328,386.732,357.917z"/>
	<path fill="#EFEFEF" d="M414.461,266.559c-3.756-4.653-8.933-5.37-13.811-1.912c3.267-5.01,2.349-10.155-2.447-13.729
		c5.773,1.56,10.383-0.903,12.298-6.568c0.302,5.973,4.068,9.596,10.048,9.666C414.962,256.148,412.68,260.85,414.461,266.559z"/>
	<path fill="#EFEFEF" d="M413.024,224.589c-6.522-5.451-11.628-5.574-18.405-0.442c3.171-7.888,1.71-12.781-5.266-17.64
		c8.482,0.578,12.684-2.324,15.149-10.46c2.071,8.246,6.129,11.346,14.629,11.176C411.931,211.741,410.236,216.558,413.024,224.589z
		"/>
	<path fill="#EFEFEF" d="M117.906,389.064c-3.442-2.067-6.6-1.699-9.475,1.104c1.17-3.765-0.148-6.313-3.864-7.686
		c3.998-0.025,6.386-1.95,7.087-5.855c1.581,3.64,4.348,4.963,8.243,4.068C116.597,382.886,115.9,385.669,117.906,389.064z"/>
	<path fill="#EFEFEF" d="M278.906,84.064c-3.442-2.067-6.601-1.7-9.475,1.104c1.17-3.765-0.149-6.313-3.865-7.686
		c3.998-0.025,6.387-1.949,7.088-5.855c1.581,3.639,4.347,4.963,8.242,4.068C277.597,77.886,276.9,80.669,278.906,84.064z"/>
	<path fill="#EFEFEF" d="M323.402,418.472c-2.47-1.482-4.736-1.218-6.799,0.793c0.839-2.701-0.106-4.529-2.771-5.515
		c2.868-0.018,4.582-1.399,5.085-4.202c1.134,2.611,3.119,3.562,5.914,2.919C322.463,414.039,321.963,416.035,323.402,418.472z"/>
	<path fill="#EFEFEF" d="M73.403,174.472c-2.47-1.483-4.736-1.219-6.799,0.793c0.839-2.701-0.106-4.53-2.772-5.515
		c2.868-0.018,4.582-1.399,5.085-4.202c1.134,2.611,3.119,3.562,5.914,2.919C72.463,170.039,71.963,172.036,73.403,174.472z"/>
	<path fill="#EFEFEF" d="M403.403,164.472c-2.471-1.483-4.737-1.219-6.8,0.793c0.841-2.702-0.105-4.53-2.771-5.515
		c2.868-0.018,4.582-1.399,5.085-4.202c1.134,2.612,3.119,3.562,5.914,2.919C402.463,160.039,401.964,162.036,403.403,164.472z"/>
</g>
</svg>
