<?xml version="1.0" encoding="utf-8"?>
<!-- Generator: Adobe Illustrator 16.0.0, SVG Export Plug-In . SVG Version: 6.00 Build 0)  -->
<!DOCTYPE svg PUBLIC "-//W3C//DTD SVG 1.1//EN" "http://www.w3.org/Graphics/SVG/1.1/DTD/svg11.dtd">
<svg version="1.1" id="Layer_1" xmlns="http://www.w3.org/2000/svg" xmlns:xlink="http://www.w3.org/1999/xlink" x="0px" y="0px"
 viewBox="109.47 -11.536 555.325 592.104"
 xml:space="preserve">
<path fill="none" stroke="#EFEFEF" stroke-width="6" stroke-miterlimit="10" d="M661.731,345.473
	c0.607,8.367-3.224,11.227-9.331,14.56c-5.419,2.958-10.839,5.916-16.258,8.874c-19.426,10.604-38.852,21.207-58.277,31.811
	c-45.047,24.589-90.093,49.177-135.14,73.766c-9.531,5.202-19.062,10.404-28.593,15.607c-7.782,4.247-15.972-14.773-19.036-20.107
	c-21.397-37.24-42.793-74.481-64.19-111.722c-26.22-45.636-52.439-91.271-78.659-136.907c-8.365-14.56-16.73-29.12-25.096-43.68
	c-3.809-6.63-13.195-19.191-0.209-23.264c77.189-24.208,154.377-48.417,231.565-72.626c10.274-3.222,15.591,7.034,20.879,14.268
	c10.113,13.833,20.226,27.666,30.339,41.499c31.401,42.953,62.804,85.906,94.205,128.86
	C623.198,292.764,642.465,319.118,661.731,345.473z"/>
<path fill="none" stroke="#EFEFEF" stroke-width="6" stroke-miterlimit="10" d="M369.329,41.334
	c17.946,16.268,33.859,34.58,50.818,51.839"/>
<path fill="none" stroke="#EFEFEF" stroke-width="6" stroke-miterlimit="10" d="M231.576,41.32
	c22.422-8.862,47.231-10.169,71.251-18.66"/>
<path fill="none" stroke="#EFEFEF" stroke-width="6" stroke-miterlimit="10" d="M659.736,358.058
	c-5.486,11.06-11.148,22.036-17.22,32.787c-6.758,11.967-14.829,23.195-20.738,35.598c-2.415,5.065-3.924,13.522-8.842,16.13
	c-5.409,2.868-10.775,5.818-16.1,8.843c-11.536,6.552-22.872,13.453-34.069,20.567c-9.938,6.314-20.3,15.622-31.359,19.673
	c-11.063,4.051-20.182,14.293-30.33,20.308c-22.009,13.044-43.286,27.296-65.471,40.102c-10.302,5.946-20.767,11.607-31.381,16.976
	c-7.658,3.873-19.199,13.562-27.493,5.268c-16.058-21.814-31.6-44.003-46.831-66.4c-29.485-43.356-57.815-87.484-87.275-130.857
	c-21.755-32.028-46.713-62.486-65.359-96.329c-15.743-28.575-39.976-50.866-55.222-80.103c-8.61-16.51-7.48-34.562-8.127-52.626
	c-0.334-9.333-1.643-18.521-1.425-27.884c0.198-8.554,1.352-17.008,1.821-25.534c0.12-2.165,3.341-21.802,4.412-21.03
	c14.24-5.403,28.961-9.668,43.507-14.156"/>
<path fill="none" stroke="#EFEFEF" stroke-width="6" stroke-miterlimit="10" d="M116.578,76.524
	c18.82,27.674,37.641,55.349,56.461,83.023c6.962,10.237,13.923,20.474,20.885,30.71c5.764,8.476,12.694-6.317,15.235-10.359
	c4.545-7.228,8.875-14.595,13.096-22.016"/>
<path fill="#EFEFEF" d="M202.662,250.393c-3.295-6.211-3.665-12.467-0.826-13.973c7.29-3.868,19.154,18.66,11.933,22.491
	C210.93,260.417,205.957,256.604,202.662,250.393C199.366,244.182,205.957,256.604,202.662,250.393z"/>
<path fill="#EFEFEF" d="M463.084,109.91c3.704,0.375,5.129-0.323,7.575,3.251c2.769,4.039,5.742,7.932,8.515,11.967
	c5.389,7.841,10.985,15.515,16.31,23.395c5.435,8.033,11.179,15.858,16.62,23.891c3.526,5.21,12.687,12.305,7.408,17.658
	c-4.905,5.409-17.044,8.06-23.656,10.662c-4.093,1.61-8.723,4.302-13.021,5.112c-4.196,0.79-7.594,3.484-11.794,4.405
	c-6.704,1.469-13.687,5.559-20.039,8.183c-4.345,1.795-8.762,3.39-13.077,5.263c-3.822,1.656-10.414,5.445-14.579,5.504
	c-0.421-1.235,1.853-2.865,0.396-4.005c-0.589-0.459-5.35,3.411-4.871-0.399c0.493-3.924,5.338-6.177,7.784-2.568
	c0.647-1.114,0.28-5.157,3.064-2.483c0.851,0.817,2.695,4.656,4.162,3.351c1.089-0.97-5.758-7.022-5.315-9.526
	c1.323-7.482,5.081-1.759,9.105-3.855c-2.427-1.346-1.632-5.003,1.092-5.455c2.116-0.351,3.175,0.913,4.694-1.35
	c1.019-1.509,2.204-2.464,4.038-1.351c-2.261-6.9-3.961-6.844-9.904-8.739c-5.319-1.697-10.124,0.657-7.965-5.823
	c1.563-4.691,3.08-10.536,4.023-15.406c1.197-6.121,5.508-5.205,9.323-2.969c0.443-7.417,4.523-4.603,8.751-9.065
	c2.879-3.039,4.958-4.497,3.854-8.882c-0.624,2.96-4.447,6.357-7.729,5.36c-3.179-0.966,0.987-10.521,0.76-12.85
	c-3.429,0.31-10.149,5.513-13.378,3.536c0.229-4.249-7.041-2.722-5.666-7.174c1.502-4.863,0.191-3.364-4.658-3.837
	c-6.123-0.608,1.459-6.057,3.983-6.333c-2.215-0.46-10.134,2.859-10.905,0.165c-0.74-2.59,4.283-5.971,6.297-6.469
	C437.207,119.884,450.76,114.941,463.084,109.91C463.171,109.919,462.26,110.247,463.084,109.91z"/>
<path fill="#EFEFEF" d="M452.852,158.323c-1.136-0.761-5.357,1.386-6.293,1.962c-0.945,0.689-4.646,1.587-5.609,1.623
	c-2.788,0.864-1.722-1.562-2.842-2.934c-1.018-1.248-2.747-0.427-3.46,0.595c-2.579,3.698-1.614,4.842-6.433,6.651
	c-3.363,1.263-13.52,6.912-16.931,5.057c-3.414-1.856-2.358-8.13-6.369-9.656c-6.848-2.605-1.083,9.756-0.944,11.078
	c0.668,6.371-21.827,4.805-18.725,10.361c-2.382-1.183-9.288,2.061-8.237-3.848c0.783-4.403,6.786-3.875,8.078-7.707
	c0.533-1.374,0.181-2.458-1.056-3.252c-2.737-1.447-3.124,1.124-4.353,2.72c-2.115,2.748-8.487,2.852-7.042,7.373
	c0.944,2.953,1.932,7.492-1.633,9.175c-2.658,1.255-6.774-2.644-8.431-0.96c-2.211,2.247-1.482,4.513-5.152,5.685
	c-1.975,0.63-13.213,3.279-12.978,5.86c3.737,0.416-1.738,7.349-1.685,8.903c0.213,1.648-0.159,3.153-1.119,4.517
	c-1.95,2.445,0.79,3.297,1.092,5.403c0.487,3.395-3.94,5.802-0.467,8.831c1.857,1.618-1.831,6.636-3.276,7.469
	c-0.665,0.074-1.331,0.094-2,0.061c-1.285,0.657-0.556,2.249-2.452,2.446c-2.587,0.263,3.147,3.052,2.597,4.046
	c-0.338,0.606-5.481,0.366-6.585,0.401c1.521,4.936-3.899,7.587,2.128,9.108c1.341,0.338,0.552,1.923-0.216,2.327
	c-2.9,1.557,0.731,4.461,0.543,6.615c-0.174,1.999-2.379,2.414-1.335,4.738c1.096,2.436,2.657,1.708,5.619,0.667
	c5.24-1.835,14.202-3.701,18.382-7.476l0,0c1.231-0.136,9.889-3.327,9.664-3.829c4.808,0.651,11.932-4.557,16.376-6.062
	c10.517-3.561,20.626-8.6,30.894-12.592c2.97-1.155,12.044-3.001,12.373-7.046c0.515-6.333-3.474,0.14-5.145-0.853
	c-1.704-1.006,2.723-6.537,5.736-4.384c0.69,0.493-0.322,3.086,1.544,2.708c1.134-0.232,0.479-3.971,0.794-4.76
	c3.52,2.794,3.438,6.052,8.184,4.15c-0.424-1.053-4.094-6.199-4.835-6.641c-2.758-1.648-2.081-8.328,1.077-7.59
	c1.153,0.272,0.275,1.805,0.863,2.439c2.119-0.178,4.41-0.185,5.781-2.134c0.73-1.038-4.854-0.856-0.743-4.546
	c0.847-0.759,2.729,0.73,3.817,0.373c1.942-0.638,2.676-5.429,4.923-3.019c2.65,2.848-1.493-7.496-2.887-8.904
	c-1.616-1.633-7.344-0.954-9.394-2.127c-1.53-0.876-4.629,0.583-5.549-0.894c-1.151-1.858,2.604-3.613,2.079-5.675
	c-0.567-2.225,0.31-4.326,1.02-6.379c0.73-2.116,1.106-5.374,2.093-7.213c0.626-1.168,2.118-2.228,2.891-3.576
	c1.035-1.803,5.681,1.417,6.794,2.745c-0.828-2.677-1.501-6.522,2.155-7.237C447.178,162.917,455.704,158.958,452.852,158.323
	C452.303,157.955,453.599,158.489,452.852,158.323z"/>
<g>
	<path fill="#EFEFEF" d="M421.148,124.446c0.011,0.006,0.02,0.004,0.026-0.006L421.148,124.446z"/>
	<path fill="#EFEFEF" d="M435.869,150.925c-0.443,0.139-0.848,0.35-1.21,0.626c-1.521-3.245,1.596-4.246,1.857-6.385
		c0.312-2.553-11.302-2.567-5.217-7.263c4.761-3.673-7.072-2.99-7.179-3.054c-4.299-2.585,5.308-4.341,5.781-5.307
		c1.513-3.046-9.674-0.058-10.981,0.717c-0.983-4.305,4.424-3.46,4.084-5.216c-0.347-1.781-6.097,0.832-6.681,1.024l0.021-0.013
		c-6.168,4.277-17.432,5.674-24.62,8.043c-7.655,2.523-15.254,5.203-22.914,7.728c-8.339,2.75-16.644,5.581-24.965,8.385
		c-2.05,0.691-7.966,1.515-8.455,4.158c-0.684,3.696,3.079,3.708-3.243,2.319c-8.475-1.861-17.102,2.283-24.952,4.857
		c-9.319,3.056-18.602,6.226-27.961,9.159c-7.484,2.333,0.977,12.661,2.987,15.977c5.039,8.313,10.104,16.632,15.044,25.002
		c9.104,15.422,18.757,30.519,27.875,45.934c1.116,1.886,2.996,7.513,6.311,6.641c1.646-0.99,2.278-7.008,1.595-8.415
		c-2.289-4.705,2.915-4.259-1.794-7.524c-1.53-1.061,0.383-5.22,0.748-6.733c0.504-2.09,3.258-0.536,4.631-0.841
		c3.6-0.8-1.163-3.498-1.198-4.257c1.788-1.64,4.375-2.842,5.745-4.827c2.901-4.204,1.658-3.693,0.802-7.842
		c-0.388-1.881,2.276-4.99,1.359-6.423c-2.29-3.585,0.378-6.331,0.195-9.914c-0.205-3.507,4.014-5.025,2.339-8.678
		c-1.208-2.634-3.211-0.008-5.171-0.656c5.104-4.528,0.955-11.914-0.745-17.327c-1.645-5.241-1.876-13.188-8.873-12.984
		c5.146-1.524,10.792-5.363,16.139-5.824c-5.245,6.534-3.667,17.261,0.269,24.017c1.69,2.9,5.52,7.883,9.222,4.702
		c3.37-2.896,0.291-12.766-0.006-16.644c4.871,2.835,10.998,0.57,16.015-0.652c2.458-0.599,5.259-1.35,5.353-4.396
		c0.078-2.536,3.418-3.124,6.048-3.354c8.779-0.766,5.793,6.916,10.851,10.819c4.033,3.113,3.049-4.312,2.691-5.578
		c-0.877-3.105-1.913-6.241-4.697-8.181c2.69-1.396,7.715-0.71,9.605-2.184c2.91-2.271,5.984-5.8,9.076-0.991
		c1.383,2.151,2.592,8.964,5.707,9.316c5.084,0.573-0.655-8.926-0.929-10.99c-0.96-7.271,11.95-9.473,15.533-4.3
		c3.337,4.017-5.688,3.65-7.251,6.412c-1.653,2.921,0.901,6.891,4.313,5.816c6.479-2.042,12.516-4.867,14.16-12.093
		C444.24,149.075,437.54,146.964,435.869,150.925C435.426,151.064,437.54,146.964,435.869,150.925z"/>
</g>
<path fill="#EFEFEF" d="M323.829,157.195c2.834-1.939,9.532-4.37,13.029-4.285c-1.344,2.221,3.137,7.868-3.046,5.251
	C330.392,156.715,327.485,157.806,323.829,157.195C325.926,155.76,325.34,157.448,323.829,157.195z"/>
<path fill="#EFEFEF" d="M389.4,213.945c2.831,2.691,4.368,6.374,6.624,9.499c-2.069,0.378-6.879,0.579-7.945,1.955
	c0.2,0.151-2.225-4.956-2.248-4.419c0.192-4.434,5.354,0.521,6.276-0.147C393.388,219.898,389.34,215.38,389.4,213.945
	C392.195,216.603,389.354,215.06,389.4,213.945z"/>
<path fill="none" stroke="#EFEFEF" stroke-width="6" stroke-miterlimit="10" d="M570.137,238.788
	c-29.409-41.368-56.059-85.701-89.078-124.387c-3.501-4.102-7.438-10.111-12.149-12.855c-4.013-2.337-8.987-0.998-13.251-0.322
	c-5.177,0.821-7.688,2.029-12.336,4.354c-6.17,3.083-12.973,4.511-19.421,6.858c-5.566,2.025-10.772,4.349-16.579,5.724
	c-5.772,1.366-9.849,2.128-14.599,5.823c-4.679,3.641-11.27,4.376-16.859,5.96c-7.277,2.063-14.528,4.218-21.761,6.431
	c-25.852,7.911-51.473,16.557-77.348,24.392c-10.637,3.221-18.499,14.352-9.046,23.805c9.203,9.203,14.294,21.543,20.646,32.867
	c12.545,22.366,25.803,44.334,40.139,65.603c3.53,5.236,7.757,10.317,10.603,15.96c2.581,5.119,4.129,10.85,7.606,15.485
	c8.385,10.673,15.152,22.424,22.265,33.947c8.297,13.442,17.164,25.617,24.017,39.919c5.344,11.152,12.026,22.957,20.66,31.929
	c8.281,8.604,19.377,13.23,30.983,8.716c15.396-5.988,30.261-14.379,44.885-22.025c28.154-14.72,55.663-30.629,83.087-46.656
	c6.424-3.755,12.844-7.516,19.268-11.27c5.73-3.349,12.134-4.501,17.807-7.964c4.931-3.01,9.091-7.309,11.514-12.588
	c3.074-6.699,2.34-10.308-1.74-16.043"/>
<g>
	<path fill="#EFEFEF" d="M541.735,212.803c-28.762,12.839-57.877,24.536-86.91,36.463c-31.063,12.762-61.548,26.854-92.345,40.244
		c2.484,4.599,20.104-5.917,23.888-7.532c7.294-3.112,14.502-6.416,21.733-9.671c14.578-6.562,29.324-12.816,44.094-18.938
		c31.021-12.857,62.02-25.471,92.724-39.077C544.265,212.573,543.243,211.885,541.735,212.803z"/>
	<path fill="#EFEFEF" d="M546.449,216.114c-59.045,28.366-121.012,50.35-180.434,77.856c2.665,4.465,16.309-4.828,20.047-6.466
		c7.986-3.5,15.9-7.285,23.998-10.516c14.696-5.864,29.087-12.75,43.821-18.649c31.628-12.664,62.956-26.201,94.037-40.168
		C547.458,217.526,547.05,216.622,546.449,216.114z"/>
	<path fill="#EFEFEF" d="M550.366,219.542c-28.479,13.957-58.648,26.19-88.228,37.454c-31.843,12.125-62.214,27.48-93.512,40.839
		c2.833,4.798,19.345-5.934,22.72-7.617c7.667-3.824,15.883-6.748,23.641-10.475c14.987-7.2,31.317-12.84,46.647-19.675
		c29.855-13.311,61.04-23.867,90.362-38.573C551.484,220.881,551.007,220.01,550.366,219.542z"/>
	<path fill="#EFEFEF" d="M531.943,200.671c-29.115,12.947-58.584,24.702-87.966,36.777c-30.435,12.508-60.287,26.386-90.42,39.604
		c2.319,4.955,19.306-5.571,22.981-7.189c6.917-3.045,13.806-6.147,20.697-9.249c14.946-6.728,30.021-13.21,45.162-19.487
		c31.036-12.866,62.072-25.441,92.775-39.087C534.389,200.571,533.318,199.948,531.943,200.671z"/>
	<path fill="#EFEFEF" d="M536.513,204.044c-29.743,14.353-60.98,27.289-91.79,39.191c-29.831,11.524-58.995,25.011-88.174,38.168
		c2.061,4.667,17.772-5.225,21.558-6.902c7.984-3.539,15.998-7.011,23.996-10.516c14.005-6.138,28.33-12.454,42.581-18.159
		c31.815-12.736,63.344-26.307,94.624-40.321C538.784,203.807,537.945,203.26,536.513,204.044z"/>
	<path fill="#EFEFEF" d="M539.613,207.744c-27.451,14.304-57.521,24.2-85.866,36.436c-15.305,6.606-31.445,12.434-46.378,19.538
		c-15.815,7.523-31.923,14.981-48.208,21.386c2.929,5.136,19.804-5.674,23.382-7.458c7.57-3.776,15.624-6.643,23.278-10.32
		c15.212-7.309,31.65-13.034,47.201-19.968c14.265-6.36,29.064-12.38,43.687-18.1c8.74-3.418,17.305-6.958,25.868-10.798
		c3.779-1.695,7.594-3.314,11.393-4.967c2.766-1.203,9.596-2.387,7.059-6.239C540.557,207.417,540.085,207.581,539.613,207.744z"/>
	<path fill="#EFEFEF" d="M553.67,228.349c-28.817,12.899-57.991,24.628-87.094,36.585c-30.957,12.719-61.333,26.765-91.966,40.244
		c2.286,4.533,19.884-5.947,23.557-7.53c7.269-3.133,14.467-6.422,21.685-9.671c14.579-6.562,29.326-12.814,44.096-18.937
		c30.939-12.826,61.836-25.407,92.416-39.079C555.917,228.233,555.104,227.37,553.67,228.349z"/>
	<path fill="#EFEFEF" d="M552.977,223.459c-28.478,13.957-58.647,26.194-88.226,37.453c-31.713,12.072-61.899,27.475-93.131,40.623
		c2.227,4.979,19.2-5.834,22.337-7.399c7.667-3.824,15.883-6.748,23.641-10.475c14.986-7.199,31.317-12.841,46.648-19.676
		c29.781-13.277,60.857-23.862,90.156-38.43C553.958,224.899,553.568,223.975,552.977,223.459z"/>
</g>
<g>
	<path fill="#EFEFEF" d="M597.111,277.135c-29.267,14.684-58.94,28.167-88.537,41.919c-30.683,14.256-60.712,29.877-91.122,44.709
		c1.98,4.432,20.345-7.043,23.787-8.679c7.108-3.378,14.114-6.938,21.138-10.489c14.562-7.365,29.272-14.475,44.049-21.401
		c31.442-14.738,62.887-29.199,93.969-44.689C599.658,276.79,598.597,276.135,597.111,277.135z"/>
	<path fill="#EFEFEF" d="M602.023,280.285c-29.91,16.079-61.243,30.937-92.34,44.586c-14.67,6.439-28.913,14.181-43.519,20.593
		c-7.765,3.409-15.373,7.479-22.918,11.355c-4.474,2.298-8.947,4.596-13.421,6.894c-2.596,1.333-10.995,3.349-8.318,7.216
		c60.036-30.9,121.801-58.182,182.095-88.621C603.109,281.676,602.655,280.768,602.023,280.285z"/>
	<path fill="#EFEFEF" d="M606.138,283.593c-28.535,15.619-58.919,28.006-88.1,42.194c-15.462,7.519-32.756,14.062-47.285,22.115
		c-15.409,8.54-31.328,16.724-47.355,24.022c1.366,4.522,8.302-0.64,11.185-1.853c4.078-1.715,7.943-4.381,11.808-6.53
		c7.419-4.128,15.307-7.349,22.806-11.379c15.553-8.357,32.332-15.136,48.248-23.111c29.854-14.961,61.191-27.187,90.431-43.549
		C607.328,284.903,606.807,284.04,606.138,283.593z"/>
	<path fill="#EFEFEF" d="M586.67,265.254c-29.102,14.553-58.614,27.893-88.033,41.561c-30.203,14.033-59.755,29.441-89.688,44.047
		c1.986,4.421,20.348-7.048,23.788-8.683c6.619-3.144,13.146-6.445,19.686-9.753c14.865-7.518,29.861-14.809,44.946-21.878
		c30.995-14.527,62.008-28.743,92.627-44.049C589.139,265.044,588.028,264.459,586.67,265.254z"/>
	<path fill="#EFEFEF" d="M591.44,268.475c-29.621,15.988-60.819,30.564-91.643,44.098c-14.164,6.22-28.471,13.215-42.26,20.047
		c-7.717,3.823-15.492,7.547-23.153,11.48c-4.832,2.48-9.663,4.96-14.494,7.44c-2.531,1.3-9.449,2.77-6.888,6.481
		c59.776-30.767,121.266-57.944,181.329-88.188C593.751,268.2,592.832,267.542,591.44,268.475z"/>
	<path fill="#EFEFEF" d="M594.742,272.093c-27.318,15.848-57.522,27.33-85.854,41.104c-31.487,15.31-62.026,31.552-93.991,45.904
		c1.396,4.456,8.323-0.707,11.185-1.917c4.077-1.724,7.94-4.386,11.806-6.538c7.418-4.132,15.308-7.356,22.807-11.388
		c15.555-8.36,32.332-15.14,48.247-23.117c13.676-6.855,27.896-13.441,41.952-19.681c8.853-3.93,17.552-7.925,26.198-12.284
		c3.736-1.884,7.507-3.701,11.265-5.541c2.907-1.423,10.606-3.211,7.794-7.104C595.681,271.719,595.212,271.906,594.742,272.093z"/>
	<path fill="#EFEFEF" d="M609.87,292.387c-29.793,14.987-59.999,28.706-90.149,42.72c-30.679,14.258-60.703,29.9-91.118,44.717
		c0.86,3.854,4.105,0.827,6.326-0.24c5.557-2.671,11.112-5.341,16.669-8.011c6.865-3.3,13.667-6.69,20.465-10.128
		c15.347-7.761,30.812-15.312,46.386-22.606c31.553-14.781,63.084-29.289,94.22-44.934
		C612.142,292.171,611.28,291.328,609.87,292.387z"/>
	<path fill="#EFEFEF" d="M608.951,287.453c-28.529,15.629-58.92,28.006-88.101,42.196c-15.522,7.548-32.483,14.165-47.283,22.262
		c-15.443,8.449-31.336,16.604-47.353,23.889c1.37,4.508,8.306-0.653,11.183-1.864c4.078-1.716,7.942-4.382,11.806-6.531
		c7.42-4.129,15.309-7.352,22.807-11.381c15.556-8.359,32.332-15.137,48.247-23.113c29.776-14.925,61.011-27.166,90.23-43.392
		C610.008,288.873,609.573,287.951,608.951,287.453z"/>
</g>
<path fill="none" stroke="#EFEFEF" stroke-width="3" stroke-miterlimit="10" d="M526.885,198.93
	c-37.182,15.277-74.363,30.554-111.544,45.831c-18.958,7.789-37.916,15.579-56.873,23.368c-3.527,1.449-12.185,3.886-11.765,8.488
	c0.368,4.048,5.431,9.744,7.45,13.069c23.542,38.786,48.144,76.949,72.562,115.186c6.512,10.198,21.433,0.096,29.101-3.537
	c23.116-10.951,45.857-22.719,68.566-34.485c20.721-10.737,41.381-21.596,61.946-32.631c6.973-3.741,13.938-7.497,20.859-11.334
	c3.542-1.963,8.646-3.764,10.746-7.404c6.396-11.095-0.676-20.455-7.362-28.919c-9.076-11.487-18.653-22.585-28.168-33.709
	c-10.841-12.673-21.751-25.288-32.493-38.044C544.675,208.592,535.998,194.19,526.885,198.93z"/>
<path fill="none" stroke="#EFEFEF" stroke-width="4" stroke-miterlimit="10" d="M231.804,47.254
	c-3.281,24.261-69.728,15.642-66.48-8.374c1.907-14.111,25.424-15.233,35.663-13.849C211.022,26.387,233.703,33.217,231.804,47.254
	C230.48,57.043,233.127,37.468,231.804,47.254z"/>
<path fill="none" stroke="#EFEFEF" stroke-width="4" stroke-miterlimit="10" d="M165.324,38.879
	c-2.077,13.171-4.15,26.344-6.165,39.525c-1.203,7.867-2.751,15.449-0.038,23.253c2.651,7.62,13.818,12.559,20.666,14.917
	c14.628,5.039,46.858,7.329,49.188-14.281c1.93-17.895,2.313-36.078,2.827-54.061"/>
<path fill="none" stroke="#EFEFEF" stroke-width="4" stroke-miterlimit="10" d="M308.619,5.078
	c3.275-24.227,63.286-16.112,60.01,8.115C365.352,37.419,305.342,29.305,308.619,5.078C309.934-4.653,307.303,14.809,308.619,5.078z
	"/>
<path fill="none" stroke="#EFEFEF" stroke-width="4" stroke-miterlimit="10" d="M270.755,55.999
	c3.276-24.225,63.283-16.111,60.008,8.114C327.486,88.337,267.479,80.223,270.755,55.999
	C272.071,46.269,269.439,65.728,270.755,55.999z"/>
<path fill="#EFEFEF" stroke="#EFEFEF" stroke-width="2" stroke-miterlimit="10" d="M289.797,130.274
	c-13.129-1.474-25.898-12.448-24.747-25.962c0.712-8.354,2.238-16.607,3.68-24.858c0.448-2.566,3.971-24.181,1.154-22.869
	c-2.483,1.157-3.242,19.866-3.808,23.095c-1.642,9.372-3.385,18.762-3.899,28.28c-0.708,13.088,16.07,23.629,27.621,24.924
	C291.47,133.073,291.451,130.46,289.797,130.274C280.089,129.184,291.451,130.46,289.797,130.274z"/>
<path fill="#EFEFEF" stroke="#EFEFEF" stroke-width="2" stroke-miterlimit="10" d="M370.856,13.852
	c-0.233-1.107-0.878-1.481-1.937-1.123c-1.626,0.788-0.647,6.187-0.637,7.507c0.04,5.316,0.08,10.634-0.041,15.95
	c-0.026,1.155,0.966,5.589,0.739,6.528c-1.02,4.204-1.595,8.757-2.411,13.266c-1.284,7.098-2.782,16.467-9.483,20.625
	c-7.675,4.762-16.326,2.054-24.728,1.89c0.054-2.1,1.556-13.314-0.476-14.3c-3.103-1.505-2.053,9.037-2.089,10.401
	c-0.269,10.262-0.705,20.491-1.873,30.693c-0.578,5.043-1.125,10.11-1.024,15.195c0.248,1.103,0.9,1.477,1.957,1.123
	c1.513-0.738,0.726-6.052,0.806-7.342c0.69-11.111,2.275-22.089,2.632-33.238c6.169,1.78,14.152,1.395,20.446,0.559
	c7.67-1.008,11.532-7.34,13.716-14.032C372.109,50.225,370.9,31.79,370.856,13.852C370.853,12.168,370.891,28.03,370.856,13.852z"/>
<path fill="#EFEFEF" stroke="#EFEFEF" stroke-width="2" stroke-miterlimit="10" d="M304.755,19.345
	c0.615-0.612,5.534-16.876,5.015-17.334c-2.783-2.454-7.398,17.334-7.791,19.539c-0.374,2.096-5.204,21.775-1.863,20.192
	c1.491-0.707,1.851-7.948,2.298-9.589C303.188,29.311,303.058,21.043,304.755,19.345C304.836,19.264,303.549,20.552,304.755,19.345z
	"/>
<path fill="#EFEFEF" d="M193.152,48.604c-1.827,2.856-4.705,4.853-6.365,7.833c-1.593,2.863,2.882,5.561,4.51,2.637
	c1.658-2.98,4.539-4.98,6.365-7.835C199.487,48.389,194.898,45.88,193.152,48.604C191.325,51.46,194.964,45.778,193.152,48.604z"/>
<path fill="#EFEFEF" d="M299.576,64.214c-4.158-1.14-6.759,10.902-4.433,12.868C299.953,81.148,303.811,65.382,299.576,64.214
	C298.34,63.875,301.08,64.629,299.576,64.214z"/>
<path fill="#EFEFEF" d="M355.014-4.235c-3.094,1.806-6.106,3.759-9.302,5.386c-3.032,1.546-0.22,5.965,2.635,4.51
	c3.197-1.626,6.209-3.579,9.303-5.386C360.51-1.395,357.876-5.904,355.014-4.235C351.917-2.427,357.929-5.935,355.014-4.235z"/>
<path fill="#222222" d="M434.628,157.284c0.182-0.021,0.359-0.044,0.542-0.064c2.128-1.109,3.907-2.5,4.204-5.118
	c0.059-0.525,0.375-1.136-0.097-1.519c-0.606-0.489-1.17,0.022-1.678,0.361c-0.596,0.396-1.085,0.933-1.703,1.299
	c-0.709,0.415-1.347,0.5-1.775-0.381c-1.039-2.058-0.732-3.86,1.016-5.391c1.302,0.199,2.442-0.393,3.604-0.807
	c2.995-1.067,5.966-2.201,8.956-3.285c0.562-0.204,1.15-0.49,1.919-0.104c0.136,1.824-0.517,3.595-0.812,5.403
	c-0.342,2.106-1.194,4.105-1.356,6.255c-0.111,1.474,0.188,1.801,1.566,1.481c3.316-0.77,5.919-2.307,6.22-6.245
	c1.013,1.355,1.673,2.688,2.005,4.182c0.524,2.355,0.05,3.233-2.254,3.935c-0.774,0.236-1.522,0.48-2.131,1.038
	c-0.528,0.209-1.055,0.42-1.582,0.63c-0.426,0.384-1.146-0.108-1.493,0.506l-0.096,0.082c-0.795,0.572-1.814,0.522-2.656,0.962
	l-0.04,0.021c-0.829,0.509-1.78,0.705-2.674,1.051l-0.016,0.004c-0.926,0.306-1.953,0.339-2.734,1.029
	c-1.125,0.239-2.252,0.479-3.479,0.739c-0.507-1.059-0.079-2.12-0.157-3.14c-0.038-0.53-0.006-1.115-0.676-1.29
	c-0.547-0.143-1.067-0.014-1.504,0.345c-0.74,0.607-1.041,1.442-1.077,2.366c-0.1,2.38-1.453,3.686-3.593,4.441
	c-5.775,2.037-11.46,4.335-17.33,6.095c-2.686,0.805-3.648,0.251-4.739-2.359c-0.79-1.891-1.58-3.781-2.415-5.652
	c-0.213-0.478-0.552-0.922-0.915-1.304c-0.841-0.876-2.189-1.143-2.89-0.524c-0.805,0.712-1.143,1.771-0.622,2.67
	c1.188,2.042,1.373,4.413,2.393,6.51c1.086,2.231,0.08,4.374-2.373,4.96c-2.712,0.651-5.185,1.889-7.78,2.82
	c-1.58,0.569-3.151,0.87-4.694,0.265c-1.401-0.549-2.17-0.125-2.836,1.067c-0.477,0.85-1.078,1.629-1.624,2.44
	c-1.579,0.61-3.121,1.193-4.902,1.136c-1.968-0.063-3.3-1.039-4.021-2.615c-0.73-1.59-0.57-3.306,0.718-4.743
	c1.15-1.284,2.438-2.364,4.091-2.93c1.212-0.417,2.257-1.06,3.041-2.093c0.601-0.795,0.681-1.645,0.191-2.499
	c-0.403-0.698-1.089-0.882-1.854-0.795c-0.907,0.103-1.545,0.616-1.641,1.501c-0.284,2.574-2.053,3.502-4.225,4.221
	c-3.845,1.272-3.802,1.328-2.871,5.053c0.301,1.208,0.543,2.445,0.663,3.681c0.205,2.119-0.505,3.857-2.423,4.97
	c-2,1.161-4.04,1.297-6.104,0.176c-0.389-0.211-0.712-0.538-1.087-0.781c-1.664-1.084-1.9-1.037-2.113,0.902
	c-0.279,2.556-2.014,3.619-4.108,4.385c-4.105,1.5-8.223,2.969-12.323,4.484c-0.647,0.239-1.427,0.292-1.842,0.99l-0.055,0.036
	c-0.515,0.37-1.204,0.051-1.714,0.438c-0.933,0.293-1.861,0.602-2.801,0.868c-0.361,0.101-0.713-0.026-0.932-0.354
	c-0.267-0.397,0.02-0.694,0.273-0.917c0.333-0.294,0.743-0.497,1.095-0.769c2.402-1.85,2.76-3.069,1.929-5.995
	c-0.974-3.43-1.658-6.962-2.881-10.3c-1.382-3.771-2.425-7.632-3.635-11.447c1.77-0.559,2.526,0.563,2.838,1.942
	c1.667,7.32,5.413,14.052,6.13,21.639c0.124,1.3,0.753,1.745,1.994,1.211c0.739-0.32,1.458-0.687,2.213-0.968
	c1.323-0.492,1.399-1.269,0.905-2.526c-2.931-7.475-4.665-15.322-6.985-22.989c-0.505-1.664-1.497-1.817-2.832-1.635
	c-2.063,0.283-3.19,1.793-4.261,3.357c-1.971-1.24-4.151-1.445-6.481-1.369c2.449-1.895,5.594-2.199,8.196-3.675
	c0.491-0.276,1.13,0.047,1.585-0.384c1.007-0.064,1.821-0.616,2.671-1.074c0.453-0.525,1.198-0.097,1.683-0.517
	c1.091-0.271,2.211-0.465,3.139-1.17c1.29-0.438,2.058-0.309,1.431,1.324c-2.429,2.015-2.4,4.412-1.532,7.255
	c1.566,5.12,3.394,10.157,4.809,15.325c0.189,0.689,0.424,1.37,0.739,2.009c0.599,1.216,0.91,3.248,2.79,2.451
	c1.706-0.72,0.468-2.356,0.145-3.534c-1.201-4.389-2.607-8.721-3.894-13.086c-0.545-1.846-1.406-3.385-2.975-4.625
	c-1.772-1.403-1.619-2.365,0.381-3.353c1.511-0.749,3.063-1.622,4.804-1.524c2.771,0.156,4.302,1.891,5.059,4.433
	c0.201,0.603,0.329,1.231,0.615,1.808c0.133,0.331-0.016-0.096,0.108,0.239c1.111,3.043,1.114,3.046,3.781,1.204
	c0.659-0.454,1.347-0.816,2.155-0.917c0.752-0.065,1.506-0.052,2.259-0.041c1.161,0.021,2.256,0.313,3.149,1.061
	c1.523,1.278,2.475,0.861,3.047-0.916c0.235-0.585,0.406-1.196,0.678-1.769c0.68-0.733,1.095-1.91,2.471-1.474
	c2.98-1.417,5.975-2.72,9.397-2.595c3.549,0.132,5.14,1.188,6.43,4.518c0.548,1.415,1.028,2.854,1.589,4.261
	c0.26,0.662,0.595,1.305,0.968,1.908c0.403,0.645,1.027,1.09,1.8,0.824c0.854-0.294,1.19-1.078,1.168-1.926
	c-0.015-0.519-0.242-1.038-0.408-1.543c-0.531-1.609-1.144-3.195-1.608-4.823c-0.737-2.569-2.18-4.416-5.212-5.171
	c2.29-1.33,4.456-2.083,6.635-2.753c1.098-0.34,2.299-0.346,3.311,0.495c0.756,0.63,1.31,0.287,1.712-0.462
	c0.253-0.471,0.423-0.996,0.723-1.434c2.335-3.417,7.166-3.163,9.306,0.366c1.266,2.087,1.952,4.399,2.956,6.583
	c0.337,0.734,0.626,1.461,1.172,2.082c0.683,0.775,1.382,0.643,2.141,0.179c0.893-0.542,0.511-1.069,0.114-1.764
	c-1.475-2.567-2.38-5.38-3.108-8.225c-0.462-1.817,0.029-3.455,1.559-4.791c1.659-1.449,3.673-2.078,5.634-2.855
	c0.641-0.532,1.533,0.049,2.17-0.492c0.86,0.006,1.723,0.011,2.584,0.018c0.64,0.549,1.625-0.164,2.205,0.604
	c1.124,0.62,1.874,1.616,2.622,2.613c0.6,0.438,0.231,1.173,0.544,1.724c1.085,1.904,0.021,2.795-1.651,3.373
	c-1.603,0.554-3.274,0.927-4.788,1.722c-0.792,0.417-1.654,0.858-1.352,2.014c0.171,0.659,0.607,1.161,1.294,1.193
	c0.996,0.048,1.354-0.784,1.631-1.53C429.201,158.42,431.778,157.651,434.628,157.284z"/>
<path fill="#222222" d="M335.723,169.694c0.331-2.88,2.273-4.345,5.347-4.344c4.26,0.001,1.468,1.99,2.654,4.009
	c3.411,5.806,4.396,14.28,6.436,20.593c1.042,3.224,2.415,2.907-1.669,4.606c-4.313,1.793-4.182,1.227-4.882-3.25
	c-0.695-4.442-3.914-20.032-7.89-21.646L335.723,169.694z"/>
<path fill="#EFEFEF" d="M366.994,182.417c0.028,1.167-0.135,1.842-0.543,2.46c-1.024,1.554-1.875,1.57-3.076,0.096
	c-1.275-1.562-1.912-3.38-2.19-5.342c-0.099-0.708-0.068-1.424,0.205-2.102c0.525-1.307,1.277-1.59,2.48-0.836
	C366.13,178.111,366.688,180.428,366.994,182.417z"/>
<path fill="#EFEFEF" d="M386.849,176.961c0.056,0.941-0.08,1.809-1.101,2.174c-0.954,0.339-1.719,0.013-2.292-0.819
	c-0.615-0.891-0.309-1.708,0.251-2.438c0.545-0.704,1.294-1.449,2.199-1.184C386.91,174.989,386.79,176.089,386.849,176.961z"/>
<path fill="#EFEFEF" d="M422.199,155.392c0.002-1.015,0.242-1.828,1.439-1.83c1.166-0.002,2.356,1.063,2.392,2.086
	c0.033,1.031-1.132,1.979-2.458,1.901C422.15,157.466,422.363,156.278,422.199,155.392z"/>
<path fill="#EFEFEF" stroke="#EFEFEF" stroke-width="2" stroke-miterlimit="10" d="M223.01,252.481
	c-1.254-8.315-4.789-17.256-11.695-22.47c-4.275-3.227-10.549-3.119-14.489,0.755c-1.54,1.514-2.381,3.572-2.902,5.626
	c-0.76,3.002,0.323,2.097,1.897,4.343c0.729-5.298,6.057-13.217,12.302-9.767c6.043,3.338,10.072,12.118,11.488,18.434
	c0.888,3.963,2.83,13.881-3.66,14.33c-8.62,0.596-14.922-9.309-18.148-15.89c0.137,2.639-2.019,0.86-2.801,0.491
	c3.782,7.783,9.588,16.136,18.638,17.981C222.368,268.095,224.038,259.3,223.01,252.481
	C221.789,244.384,223.757,257.44,223.01,252.481z"/>
<path fill="#EFEFEF" stroke="#EFEFEF" stroke-width="2" stroke-miterlimit="10" d="M198.192,248.133
	c-1.211-2.279-1.753-4.767-1.85-7.331c-0.051-1.337-2.631-6.561-2.777-2.618c-0.115,3.103,0.121,6.226,1.226,9.155
	C195.824,250.077,199.485,250.565,198.192,248.133C196.476,244.903,199.034,249.716,198.192,248.133z"/>
</svg>
