<?xml version="1.0" encoding="utf-8"?>
<!-- Generator: Adobe Illustrator 16.0.0, SVG Export Plug-In . SVG Version: 6.00 Build 0)  -->
<!DOCTYPE svg PUBLIC "-//W3C//DTD SVG 1.1//EN" "http://www.w3.org/Graphics/SVG/1.1/DTD/svg11.dtd">
<svg version="1.1" id="Layer_1" xmlns="http://www.w3.org/2000/svg" xmlns:xlink="http://www.w3.org/1999/xlink" x="0px" y="0px"
	 width="450.75px" height="480px" viewBox="-13.5 -14.196 450.75 480" enable-background="new -13.5 -14.196 450.75 480"
	 xml:space="preserve">
<path fill="none" stroke="#EFEFEF" stroke-width="6" stroke-miterlimit="10" d="M431.685,273.539
	c0.206,2.832-0.089,5.723-1.375,7.693c-0.659,1.01-1.578,1.777-2.823,2.172L233.521,389.279c-3.678,1.164-7.762-1.361-9.118-5.644
	L79.097,130.729c-1.359-4.283,0.521-8.7,4.199-9.865l187.699-58.868c3.678-1.167,7.759,1.359,10.162,5.642L431.685,273.539z"/>
<path fill="none" stroke="#EFEFEF" stroke-width="6" stroke-miterlimit="10" d="M197.763,30.228
	c14.357,13.014,27.087,27.664,40.654,41.471"/>
<path fill="none" stroke="#EFEFEF" stroke-width="6" stroke-miterlimit="10" d="M87.561,30.217
	c17.938-7.09,37.785-8.135,57.001-14.928"/>
<path fill="none" stroke="#EFEFEF" stroke-width="6" stroke-miterlimit="10" d="M430.089,283.607
	c-8.095,16.32-16.451,31.989-26.897,47.656c-3.133,6.268-6.267,12.535-8.356,18.803c-21.935,11.489-41.78,24.023-63.716,38.647
	c-3.134,2.089-6.268,2.089-8.356,4.179c-5.224,4.178-10.445,7.311-15.668,11.488c-5.223,3.135-10.445,6.269-16.713,9.402
	c-22.979,15.667-43.87,28.201-66.85,39.691c-3.134,2.089-6.268,4.179-10.445,5.223c-3.134,1.045-7.312,0-9.401-2.089
	c-55.36-75.206-96.097-146.234-152.501-221.441c-3.134-5.223-5.223-10.444-8.356-15.667c-4.178-4.178-6.268-9.4-9.401-14.623
	c-1.044-1.045-2.089-2.089-3.134-3.134c-1.044-2.089-2.089-5.223-4.178-7.312c-12.534-12.535-20.891-26.113-28.202-40.737
	c-6.268-15.668-3.134-31.336-5.223-48.049c-1.044-10.445,0-21.935,1.045-32.38c0-2.089,1.89-18.46,3.545-17.268
	c7.095-2.692,23.148-7.728,34.806-11.325"/>
<path fill="none" stroke="#EFEFEF" stroke-width="6" stroke-miterlimit="10" d="M-4.438,58.38l61.889,91.005
	c0,0,1.697,3.002,4.57,1.958s18.083-27.876,18.083-27.876"/>
<ellipse transform="matrix(-0.4687 -0.8834 0.8834 -0.4687 -71.8633 347.3758)" fill="#EFEFEF" cx="68.537" cy="195.3" rx="10.184" ry="4.655"/>
<path fill="#EFEFEF" d="M272.767,85.089c0.07,0.007,0.15,0.039,0.211,0.017c2.746-0.932,4.389,0.45,5.849,2.584
	c2.657,3.877,5.555,7.591,8.12,11.524c1.079,1.654,2.15,3.347,3.24,4.99c1.011,1.523,2.169,3.001,3.348,4.432
	c1.906,2.314,3.477,4.865,5.152,7.344c1.758,2.599,3.652,5.104,5.444,7.68c2.639,3.795,5.26,7.606,7.852,11.433
	c1.12,1.655,2.341,3.251,3.572,4.801c1.286,1.622,2.168,3.508,3.582,5.019c0.308,0.295,0.528,0.641,0.628,1.06
	c0.156,1.511-0.155,2.757-1.835,3.228l-0.021,0.018c-1.974,2.177-4.838,2.673-7.368,3.675c-5.438,2.153-10.682,4.795-16.283,6.534
	c-0.688,0.214-1.323,0.536-1.922,0.932c-1.758,1.162-3.732,1.601-5.802,1.716c-1.167,1.311-3.146,1.107-4.336,2.162
	c-1.37,1.209-3.149,0.798-4.598,1.689c-1.353,0.833-2.924,1.423-4.539,1.772c-1.047,0.226-2.064,0.565-2.854,1.372
	c-0.193,0.196-0.47,0.357-0.735,0.433c-2.927,0.821-5.645,2.186-8.482,3.24c-2.813,1.043-5.593,2.178-8.351,3.375
	c-1.456,0.631-2.961,1.243-4.495,1.726c-1.086,0.342-2.157,0.695-3.164,1.282c-1.227,0.715-2.516,1.374-4.004,1.395
	c-0.189-0.555,0.237-0.938,0.394-1.396c0.214-0.618,0.485-1.368-0.078-1.808c-0.622-0.485-0.944,0.354-1.372,0.65
	c-0.729,0.5-1.469,0.63-2.152-0.004c-0.664-0.617-0.328-1.303-0.003-1.964c1.499-3.034,4.178-3.534,5.858-1.056
	c0.481-0.828-0.196-2.324,1.055-2.535c1.142-0.192,1.733,1.072,2.543,1.745c0.703,0.585,0.854,2.666,2.183,1.484
	c1.015-0.904-0.87-1.345-1.274-2.118c-0.691-1.324-1.569-2.496-2.653-3.579c-1.186-1.185,0.536-5.33,2.237-5.748
	c0.488-0.121,0.908,0.019,1.108,0.417c0.938,1.85,2.124,1.099,3.614,0.323c-1.387-0.769-1.566-1.742-0.881-2.925
	c0.693-1.194,1.588-1.767,3.02-1.31c1.157,0.37,1.892-0.319,2.49-1.209c0.755-1.12,1.583-2.081,3.23-1.081
	c-0.665-2.032-1.867-3.5-2.577-5.216c-0.288-0.704-0.943-1.328-1.626-1.244c-3.245,0.401-5.983-2.122-9.301-1.463
	c-1.192,0.237-2.383-0.84-1.622-1.993c1.841-2.792,1.098-6.139,2.348-9.032c0.693-1.606,1.354-3.233,1.702-5.027
	c0.311-1.589,2.102-2.572,3.023-4.008c0.351-0.545,1.059-0.229,1.564,0.074c0.921,0.552,1.899,0.989,2.871,1.559
	c0.072-1.201-0.588-2.392,0.191-3.526c0.761-1.11,2.005-1.27,3.1-1.767c1.703-0.772,3.733-1.145,4.494-3.242
	c0.096-0.195,0.212-0.385,0.387-0.507c2.772-1.899,2.773-1.898,1.912-5.316c-0.544,2.579-2.432,3.721-4.794,4.255
	c-1.713,0.389-2.447-0.288-2.272-2.058c0.22-2.212,1.105-4.295,1.346-6.509c0.055-0.493,0.214-0.977,0.145-1.68
	c-2.792,0.252-5.054,1.918-7.63,2.592c-1.021,0.267-1.988,0.901-3.072,0.237c0.083-1.556-0.828-2.249-2.19-2.652
	c-2.632-0.778-3.111-1.956-1.75-4.417c0.636-1.153,0.634-1.709-0.887-1.649c-1.143,0.046-2.295,0.02-3.433-0.091
	c-0.814-0.081-1.536-0.458-1.83-1.29c-0.296-0.829,0.3-1.318,0.81-1.83c1.094-1.099,2.412-1.75,4.207-1.946
	c-2.366-0.491-4.286,0.272-6.244,0.791c-0.936,0.248-2.057,0.819-2.48-0.659c-0.356-1.244,0.101-2.206,1.289-2.862
	c0.486-0.267,1.661,0.028,1.244-1.208c0.736-0.591,1.643-0.892,2.504-1.105c3.251-0.802,6.31-2.157,9.487-3.161
	c6.564-2.072,13.062-4.353,19.582-6.558C271.465,85.666,272.108,85.358,272.767,85.089z"/>
<path fill="#EFEFEF" d="M264.581,123.819c-0.439-0.294-0.854-0.07-1.275,0.063c-0.408,0.173-0.832,0.304-1.245,0.458
	c-0.166,0.068-0.332,0.144-0.487,0.239c-0.452,0.347-1.016,0.392-1.53,0.573c-0.172,0.065-0.34,0.14-0.497,0.237
	c-0.51,0.372-1.07,0.616-1.701,0.676c-0.181,0.032-0.36,0.072-0.533,0.131c-0.74,0.217-1.475,0.462-2.254,0.491
	c-1.232,0.382-1.897,0.027-1.944-1.364c-0.024-0.76-0.42-1.376-1.297-1.458c-0.802-0.075-1.365,0.327-1.8,0.951
	c-0.377,0.541-0.545,1.167-0.663,1.802c-0.242,1.322-1.038,2.217-2.241,2.673c-4.482,1.697-8.973,3.376-13.547,4.806
	c-2.074,0.648-2.681,0.204-3.654-1.872c-0.728-1.554-1.274-3.207-2.285-4.607c-0.772-1.07-1.893-1.684-3.176-1.021
	c-1.322,0.682-1.369,1.939-0.849,3.172c0.587,1.39,0.953,2.85,1.515,4.246c0.79,1.956,0.358,3.003-1.585,3.687
	c-1.893,0.666-3.721,1.491-5.62,2.134c-1.034,0.35-2.061,0.535-3.157,0.44c-2.883-0.249-3.501,0.197-4.435,3.082
	c0.082,0.095,0.133,0.174,0.176,0.251c-1.216-0.604-2.359,0.243-3.558,0.185c-1.244-0.06-2.28-0.408-2.804-1.596
	c-0.507-1.148-0.278-2.233,0.533-3.198c0.846-1.009,1.894-1.72,3.1-2.238c1.141-0.488,2.18-1.146,2.602-2.397
	c0.351-1.042,0.213-2.043-0.845-2.602c-0.993-0.525-2.255-0.446-2.626,0.588c-0.889,2.477-2.863,3.394-5.043,4.207
	c-1.561,0.583-1.945,1.721-1.447,3.279c0.37,1.157,0.628,2.356,0.717,3.57c0.216,2.948-2.28,4.828-5.098,3.867
	c-0.612-0.209-1.172-0.537-1.734-0.845c-1.245-0.683-2.123-0.368-2.418,0.996c-0.438,2.03-1.844,2.958-3.64,3.532
	c-3,0.957-5.946,2.056-8.84,3.286c-0.643,0.274-1.646,0.262-1.542,1.402c0.33,0.037,1.001,0.035,0.872,0.283
	c-0.443,0.849-0.532,1.541,0.042,2.371c0.253,0.369-0.075,0.93-0.481,1.047c-1.826,0.532-1.832,1.931-1.781,3.422
	c0.044,1.273,0.026,2.457-0.895,3.613c-0.758,0.95-0.76,2.336,0.291,3.299c0.719,0.659,0.688,1.358,0.438,2.135
	c-0.217,0.678-0.386,1.412-0.773,1.988c-1.029,1.528-0.768,2.821,0.544,3.965c0.683,0.595,0.659,1.189,0.217,1.875
	c-0.773,1.194-1.523,2.402-2.323,3.577c-0.281,0.414-0.673,0.789-1.26,0.578c-0.688-0.244-1.15,0.008-1.323,0.661
	c-0.211,0.805-0.677,1.205-1.493,1.29c-0.384,0.039-0.652,0.283-0.617,0.722c0.032,0.394,0.261,0.67,0.613,0.805
	c0.594,0.228,1.274,0.186,1.815,0.596c0.406,0.308,0.508,0.677,0.266,1.114c-0.189,0.339-0.585,0.614-0.876,0.373
	c-1.455-1.204-2.83-0.102-4.392-0.052c0.562,1.824,0.432,3.348-0.627,4.916c-0.914,1.354-0.083,2.442,1.58,2.346
	c0.545-0.032,1.025-0.061,1.283,0.474c0.285,0.592-0.241,0.895-0.553,1.264c-0.046,0.055-0.093,0.116-0.154,0.148
	c-1.133,0.608-1.197,1.406-0.531,2.44c0.302,0.469,0.35,1.098,0.636,1.582c0.515,0.87,0.43,1.725-0.197,2.375
	c-0.802,0.832-1.006,1.652-0.542,2.685c0.163,0.362-0.063,0.692-0.167,1.027c1.656,0.841,3.187,0.025,4.662-0.493
	c2.878-1.008,5.736-2.102,8.518-3.351c2.047-0.918,4.431-1.043,6.188-2.63l0,0l0,0c2.753-0.303,5.091-1.636,7.418-2.993
	c-0.005-0.023-0.019-0.044-0.03-0.066c0.099-0.041,0.198-0.079,0.296-0.121c0.017,0.041,0.028,0.075,0.047,0.117
	c2.476,0.335,4.188-1.645,6.447-2.182c2.239-0.532,4.384-1.899,6.654-2.668c2.454-0.831,4.704-2.113,7.173-2.945
	c1.605-0.54,3.25-1.288,4.85-1.925c2.668-1.064,5.209-2.587,8.146-2.939c0.192-0.023,0.37-0.195,0.547-0.311
	c2.512-1.645,5.437-2.374,8.146-3.576c1.475-0.655,3.069-1.07,4.451-1.964c1.404-0.739,1.372-2.021,1.279-3.335
	c-0.035-0.477-0.247-0.814-0.675-1.003c-0.547-0.241-0.988-0.007-1.327,0.396c-0.273,0.326-0.426,0.756-0.712,1.066
	c-0.387,0.422-0.924,0.414-1.38,0.143c-0.611-0.361-0.322-0.872-0.068-1.3c0.396-0.666,1.086-1.129,1.253-1.966
	c0.097-0.476,0.485-0.623,0.997-0.535c0.56,0.095,1.136,0.099,1.706,0.13c0.551,0.03,1.037,0.118,0.845,0.862
	c-0.076,0.29-0.096,0.58,0.077,0.821c0.25,0.343,0.524,0.746,1.014,0.647c0.439-0.09,0.385-0.53,0.423-0.878
	c0.103-0.938-0.188-1.928,0.212-2.93c2.198,1.745,2.468,2.067,3.554,4.233c0.895-0.529,1.981-0.507,2.993-0.913
	c-0.132-0.328-0.169-0.546-0.289-0.7c-1.105-1.411-3.113-2.124-3.267-4.296c-0.017-0.224-0.537-0.417-0.831-0.614
	c-1.585-1.066-1.655-1.221-0.913-2.937c0.252-0.583,0.649-1.104,0.985-1.649c0.326-0.53,0.578-1.36,1.309-1.189
	c0.894,0.211,0.299,1.083,0.421,1.652c0.025,0.115,0.18,0.202,0.27,0.299c0.641-0.054,1.279-0.112,1.915-0.157
	c0.904-0.065,1.641-0.473,2.264-1.1c0.284-0.287,0.747-0.56,0.473-1.057c-0.199-0.367-0.586-0.319-0.95-0.192
	c-0.469,0.165-1.014,0.066-0.965-0.447c0.089-0.932,0.579-1.75,1.293-2.391c0.6-0.538,1.014,0.022,1.52,0.234
	c1.021,0.427,2.135,0.047,2.806-0.908c0.285-0.407,0.441-0.904,0.724-1.312c0.704-1.01,1.099-1.035,1.942-0.131
	c0.283,0.304,0.483,0.854,0.975,0.576c0.513-0.292,0.356-0.896,0.241-1.364c-0.083-0.33-0.34-0.616-0.512-0.927
	c-0.719-1.299-1.585-2.542-2.111-3.916c-0.718-1.87-1.974-2.639-3.904-2.013c-0.417,0.135-0.905,0.405-1.165-0.043
	c-0.679-1.177-1.545-1.589-2.848-1.069c-0.351,0.14-0.664-0.194-0.956-0.393c-0.45-0.306-0.943-0.338-1.438-0.186
	c-0.894,0.277-1.954,0.744-2.545-0.205c-0.587-0.947,0.519-1.63,0.912-2.421c0.334-0.67,0.997-1.153,0.751-2.119
	c-0.619-2.43,0.848-4.514,1.292-6.773c1.119-0.672,1.069-1.77,0.998-2.848c-0.064-0.967,0.195-1.714,1.204-1.983
	c0.653-0.174,0.891-0.581,1.005-1.212c0.109-0.622,0.32-1.25,1.145-1.735c1.109,1.539,3.29,1.457,4.594,3.012
	c-0.341-1.101-0.023-2.204-0.441-3.209c-0.297-0.717,0.02-1.225,0.496-1.72c0.466-0.482,1-0.73,1.669-0.861
	c2.161-0.422,3.898-1.717,5.663-2.924C265.653,124.205,265.179,123.952,264.581,123.819z"/>
<g>
	<polygon fill="#EFEFEF" points="239.219,96.718 239.232,96.72 239.24,96.713 	"/>
	<path fill="#EFEFEF" d="M250.995,117.901c-0.354,0.111-0.678,0.28-0.968,0.501c-0.659-1.406-0.034-2.729,0.379-4.066
		c1.411-0.948,1.473-1.173,0.207-1.971c-0.913-0.574-1.681-1.638-3.055-1.166c-0.458,0.158-0.749-0.276-0.937-0.695
		c-0.538-1.196-0.361-2.187,0.719-3.02c0.754-0.582,0.656-1.451,0.308-2.152c-0.31-0.621-0.989-0.376-1.543-0.191
		c-1.312,0.438-2.635-0.438-3.978,0.049c-0.271,0.099-0.773-0.309-1.11-0.562c-0.406-0.306-0.489-0.827-0.049-1.08
		c1.306-0.751,2.11-2.471,4.023-2.089c0.521,0.103,0.978-0.148,1.231-0.664c0.192-0.387,0.42-0.787,0.072-1.183
		c-0.282-0.319-0.667-0.239-0.982-0.062c-0.787,0.44-1.562,0.583-2.451,0.263c-0.46-0.165-1.004-0.08-1.443,0.223
		c-1.21,0.838-2.735,0.594-3.981,1.333c-0.527-2.305-0.413-2.544,1.437-3.127c0.271-0.086,0.552-0.14,0.83-0.203
		c0.489-0.109,1.128-0.18,1-0.843c-0.13-0.667-0.831-0.328-1.275-0.455c-0.062-0.018-0.13-0.018-0.196-0.023
		c-0.347,0.458-0.954,0.095-1.343,0.421c-0.129-0.023-0.246,0.002-0.354,0.075c-0.617,0.559-1.442,0.559-2.177,0.801l0.017-0.01
		c-0.798,0.553-1.752,0.615-2.652,0.843c-6.492,2.13-12.99,4.25-19.477,6.395c-1.894,0.626-3.721,1.527-5.618,2.04
		c-4.185,1.131-8.204,2.732-12.339,3.995c-4.75,1.448-9.426,3.14-14.115,4.783c-2.518,0.882-5.095,1.607-7.542,2.685
		c-0.196-0.054-0.395-0.095-0.605-0.105c-0.547,0.009-1.027,0.206-1.456,0.54c-1.041,0.93-1.365,1.95-0.45,3.162
		c0.207,0.275,0.455,0.636,0.115,0.94c-0.275,0.248-0.704,0.216-1.01,0.048c-2.893-1.589-6.017-0.952-9.07-0.975
		c-0.21,0.026-0.427,0.038-0.632,0.099c-11.691,3.511-23.189,7.619-34.837,11.269c-0.667,0.208-1.379,0.47-1.513,1.333
		c-1.287,1.246-1.22,2.669-0.45,4.113c0.702,1.317,1.491,2.589,2.258,3.871c1.388,2.314,2.804,4.613,4.181,6.934
		c2.147,3.616,4.128,7.341,6.442,10.848c2.864,4.342,5.298,8.933,8.087,13.317c3.403,5.347,6.647,10.796,9.897,16.24
		c3.431,5.749,7.076,11.371,10.325,17.229c0.921,0.129,1.472,1.241,2.547,0.958c1.285-0.773,0.324-2.294,1.12-3.286
		c0.84-1.047,0.725-2.274,0.156-3.446c-0.607-1.248-0.756-2.386,0.335-3.522c0.622-0.649,0.609-1.784-0.286-1.957
		c-2.698-0.523-2.323-1.875-1.268-3.602c0.184-0.3,0.186-0.681,0.216-1.04c0.177-2.187,0.356-2.356,2.598-2.015
		c0.914,0.139,1.771,0.28,2.121-0.803c0.307-0.951-0.365-1.427-1.093-1.827c-0.287-0.158-0.691-0.218-0.714-0.719
		c0.657-0.603,1.126-1.507,2.023-1.81c2.385-0.807,3.069-3.04,4.222-4.875c0.309-0.492,0.419-1.204,0.01-1.631
		c-1.739-1.815-1.071-3.64-0.178-5.514c0.214-0.449,0.477-1.086,0.248-1.444c-1.589-2.487-0.474-4.874,0.138-7.29
		c0.051-0.203,0.029-0.427,0.018-0.641c-0.079-1.352,0.26-2.434,1.392-3.383c1.237-1.037,0.98-3.56-0.255-4.531
		c-0.204-0.006-0.408,0.007-0.607,0.051c-0.486,0.15-0.991,0.179-1.49,0.258c-0.419,0.022-0.809,0.302-1.305,0.138
		c1.469-1.303,2.58-2.728,2.024-4.851c-1.587-6.057-3.559-11.994-5.521-17.933c-0.114-0.169-0.244-0.326-0.397-0.462
		c-1.096-0.824-2.353-1.045-3.8-1.003c1.807-0.535,3.473-1.138,5.059-1.947c0.438-0.222,0.904-0.342,1.391-0.386
		c0.789-0.137,1.48-0.517,2.176-0.887c0.412-0.27,0.878-0.354,1.353-0.416c0.861-0.168,1.67-0.487,2.465-0.849
		c0.179-0.114,0.331-0.162,0.467-0.174c-5.034,6.271-2.179,19.31,3.922,23.36c1.925,1.278,4.856-0.39,4.715-2.706
		c-0.224-3.678-0.768-7.322-1.049-10.994c1.163,0.677,2.214,0.927,3.544,1.097c1.535,0.196,3.433-0.313,4.908-0.659
		c2.134-0.5,4.418-0.865,6.487-1.566c1.95-0.664,2.464-2.573,1.993-4.105c1.656-0.538,3.232-1.334,5-1.489
		c2.91-0.254,5.223,0.378,6.227,3.573c0.405,1.287,0.827,2.593,1.476,3.793c0.533,0.985,1.241,1.949,2.5,1.512
		c1.299-0.452,1.562-1.662,1.172-2.856c-0.98-3.007-1.362-6.327-4.299-8.374c2.676-1.389,3.653-1.824,4.965-1.404
		c1.77,0.566,2.729-0.076,3.755-1.469c1.731-2.352,4.651-2.115,6.225,0.333c0.935,1.454,1.531,3.066,2.177,4.656
		c0.322,0.796,0.626,1.605,1.267,2.216c0.714,0.678,1.498,0.79,2.335,0.24c0.822-0.539,0.808-1.264,0.444-2.068
		c-0.326-0.717-0.646-1.435-0.971-2.151c-2.625-5.826-1.99-7.414,3.868-9.706c0.517-0.311,1.064-0.504,1.68-0.405
		c0.583-0.007,1.167-0.012,1.753-0.016c0.551-0.033,1.096-0.041,1.568,0.314c0.881,0.543,1.546,1.3,2.128,2.14
		c0.399,0.48,0.581,1.106,0.822,1.69c-1.331,0.98-3.083,1.496-4.839,2.048c-3.84,1.211-2.198,7.262,1.667,6.044
		c5.183-1.634,10.013-3.893,11.328-9.674C257.692,116.421,252.332,114.732,250.995,117.901z"/>
</g>
<path fill="#EFEFEF" d="M161.363,122.917c1.678-1.148,3.707-1.353,5.557-2.038c1.577-0.583,3.102-1.433,4.866-1.39
	c-0.959,1.585-0.979,1.607,0.214,2.733c0.417,0.394,0.63,0.736,0.352,1.287c-0.251,0.498-0.626,0.728-1.187,0.741
	c-0.678,0.017-1.228-0.311-1.816-0.56c-1.26-0.533-2.471-1.6-3.92-0.41c-0.089,0.073-0.333,0.095-0.407,0.03
	C163.889,122.308,162.572,123.119,161.363,122.917z"/>
<path fill="#EFEFEF" d="M213.82,168.317c2.236,2.126,3.397,4.965,5.299,7.599c-1.023,0.187-2.005-0.015-2.576,0.845
	c-0.162,0.24-0.555,0.33-0.775,0.13c-1.235-1.117-2.182-0.473-3.005,0.589c-0.892-0.673,0.446-1.243-0.111-1.754
	c-0.417-0.383-0.921-0.674-1.328-1.067c-0.494-0.478-0.491-0.945,0.08-1.445c1.126-0.99,1.839-1.047,2.993-0.106
	c0.278,0.226,0.52,0.494,0.801,0.714c0.246,0.195,0.532,0.19,0.787,0.005c0.276-0.201,0.286-0.499,0.151-0.765
	c-0.457-0.889-0.935-1.767-1.414-2.645C214.361,169.759,213.783,169.209,213.82,168.317z"/>
<path fill="none" stroke="#EFEFEF" stroke-width="6" stroke-miterlimit="10" d="M358.409,188.191
	c-7.444-10.472-13.711-20.917-21.023-31.362c-20.891-26.114-35.514-53.271-58.493-77.296c-4.178-4.178-10.446-1.044-15.668-1.044
	c-2.09,0-4.179,2.089-6.267,3.134c-6.269,3.133-13.58,4.178-19.847,7.312c-5.223,2.089-10.445,3.134-15.669,4.178
	c-3.133,1.044-5.222,4.178-8.355,5.223c-31.336,8.356-60.583,18.801-91.919,28.202c-1.044,1.045-3.133,2.089-5.223,3.134
	c-3.133,4.178-4.178,9.4-1.044,13.579c2.089,2.089,4.178,4.178,6.267,6.268c15.668,29.247,31.336,56.405,51.182,84.608
	c3.134,5.222,4.178,10.445,7.312,14.623c11.49,14.624,17.757,29.247,29.247,43.871c5.222,8.356,7.312,15.667,12.534,24.023
	c7.312,12.535,16.713,27.158,32.381,25.069c4.179-1.045,8.356-3.134,12.535-5.223c39.691-18.802,76.25-40.737,113.854-62.673
	c10.445-2.088,19.847-9.4,20.891-20.891c0-2.089-2.089-4.178-3.246-5.804"/>
<g>
	<polygon fill="#EFEFEF" points="335.688,167.403 309.756,178.979 309.266,179.081 293.673,185.59 279.223,191.074 278.533,191.707 
		269.533,195.188 257.964,199.941 249.772,203.559 239.097,207.957 217.544,217.786 192.284,228.769 193.807,230.248 
		215.214,221.114 238.715,210.536 249.431,206.166 261.877,200.76 272.867,196.205 280.324,192.971 294.229,187.604 
		309.833,181.101 310.071,181.076 338.235,168.595 336.913,166.881 	"/>
	<polygon fill="#EFEFEF" points="339.459,170.052 328.93,175.111 317.346,179.803 306.896,184.259 294.805,189.357 294.234,189.469 
		277.194,196.999 270.534,199.803 260.612,203.636 260.519,203.657 260.074,203.738 247.281,209.438 230.778,216.587 
		229.924,216.639 211.537,224.734 195.112,232.337 196.766,233.773 211.052,227.207 230.348,218.751 230.795,218.745 
		243.893,213.327 260.63,205.753 260.691,205.719 276.036,199.575 294.67,191.297 294.772,191.297 313.728,183.788 340.634,171.697 
			"/>
	<polygon fill="#EFEFEF" points="342.593,172.794 335.842,176.102 335.379,176.294 334.901,176.606 332.232,177.668 
		331.665,178.083 327.893,179.516 317.77,184.042 298.547,191.596 297.886,192.036 272.859,202.717 272.011,202.757 
		256.082,209.633 237.269,217.535 237.205,217.559 236.66,217.535 226.922,222.167 214.201,227.461 204.727,232.216 
		197.201,235.428 198.898,236.952 204.361,234.83 216.497,228.776 224.604,225.608 237.215,219.55 237.317,219.502 237.824,219.55 
		253.936,213.094 272.472,204.83 272.902,204.839 299.104,193.784 299.493,193.531 317.13,186.633 327.275,182.084 336.42,178.107 
		343.898,174.357 	"/>
	<polygon fill="#EFEFEF" points="327.855,157.698 303.487,168.534 302.999,168.635 287.405,175.144 272.956,180.628 
		272.266,181.261 263.267,184.742 251.697,189.497 243.506,193.114 232.828,197.512 211.277,207.34 185.146,218.803 
		186.712,220.456 208.946,210.668 232.447,200.09 243.164,195.72 255.61,190.315 266.601,185.759 274.056,182.526 287.963,177.16 
		303.564,170.656 303.805,170.631 330.439,158.793 328.899,157.263 	"/>
	<polygon fill="#EFEFEF" points="331.51,160.396 322.663,164.665 311.079,169.357 300.627,173.814 288.538,178.912 287.967,179.024 
		270.926,186.554 264.267,189.358 254.346,193.191 254.251,193.211 253.807,193.293 241.014,198.993 224.512,206.142 
		223.657,206.194 205.27,214.289 187.539,222.284 188.889,223.895 204.785,216.762 224.08,208.306 224.527,208.299 237.626,202.881 
		254.362,195.308 254.423,195.273 269.769,189.13 288.403,180.852 288.505,180.852 307.459,173.342 333.746,161.565 
		332.642,159.918 	"/>
	<polygon fill="#EFEFEF" points="333.991,163.356 329.575,165.657 329.112,165.849 328.634,166.162 325.966,167.222 
		325.398,167.638 321.625,169.07 311.502,173.596 292.279,181.15 291.618,181.591 266.593,192.271 265.744,192.312 249.814,199.188 
		231.001,207.089 230.938,207.113 230.394,207.089 220.655,211.722 207.934,217.016 198.459,221.771 189.629,225.244 
		191.282,226.853 198.094,224.385 210.231,218.331 218.336,215.163 230.947,209.104 231.05,209.057 231.558,209.104 
		247.668,202.649 266.205,194.384 266.636,194.395 292.836,183.339 293.227,183.086 310.863,176.188 321.008,171.639 
		330.153,167.661 335.732,165.097 335.123,162.964 	"/>
	<polygon fill="#EFEFEF" points="345.236,179.84 319.156,191.514 318.666,191.614 303.074,198.124 288.624,203.608 287.934,204.241 
		278.934,207.722 267.364,212.476 259.174,216.093 248.497,220.492 226.944,230.322 201.988,241.303 203.424,242.782 
		224.614,233.649 248.115,223.07 258.832,218.699 271.279,213.295 282.27,208.739 289.725,205.506 303.631,200.139 319.233,193.636 
		319.472,193.611 347.391,181.129 346.28,179.285 	"/>
	<polygon fill="#EFEFEF" points="344.681,175.928 337.932,179.236 337.467,179.428 336.99,179.74 334.322,180.802 333.755,181.217 
		329.981,182.649 319.858,187.175 300.636,194.729 299.975,195.17 274.949,205.851 274.101,205.89 258.171,212.766 239.356,220.668 
		239.294,220.692 238.75,220.668 229.01,225.301 216.289,230.594 206.815,235.349 199.596,238.388 201.074,240.041 206.451,237.963 
		218.586,231.91 226.692,228.742 239.304,222.684 239.406,222.635 239.914,222.684 256.024,216.228 274.562,207.963 
		274.991,207.973 301.192,196.918 301.582,196.665 319.219,189.767 329.364,185.218 338.51,181.24 345.823,177.604 	"/>
</g>
<g>
	<polygon fill="#EFEFEF" points="379.989,218.869 354.281,231.768 353.789,231.892 338.312,239.189 323.944,245.396 
		323.277,246.073 314.33,250.002 302.842,255.34 294.72,259.375 284.121,264.313 262.766,275.245 236.262,288.172 237.582,289.644 
		260.556,278.727 283.848,266.947 294.493,262.037 306.836,256 317.748,250.885 325.142,247.276 338.964,241.211 354.454,233.917 
		354.692,233.881 382.616,219.965 381.204,218.284 	"/>
	<polygon fill="#EFEFEF" points="383.919,221.389 373.496,226.992 361.994,232.268 351.622,237.254 339.626,242.964 
		339.053,243.104 322.156,251.502 315.547,254.644 305.683,258.973 305.591,258.998 305.146,259.099 292.464,265.454 
		276.094,273.443 275.232,273.532 256.998,282.565 238.854,291.884 239.506,293.904 256.62,285.095 275.757,275.657 
		276.206,275.632 289.209,269.551 305.796,261.124 305.857,261.083 321.102,254.17 339.575,244.941 339.677,244.936 358.51,236.472 
		385.182,223.007 	"/>
	<polygon fill="#EFEFEF" points="387.21,224.035 380.529,227.692 380.07,227.91 379.602,228.247 376.953,229.441 376.396,229.889 
		372.644,231.508 362.61,236.551 343.509,245.069 342.858,245.549 318.027,257.498 317.173,257.576 301.37,265.259 282.699,273.905 
		282.635,273.721 282.085,273.719 272.441,279.064 259.812,285.108 250.447,290.407 241.018,294.701 242.165,296.5 250.191,293.124 
		262.196,286.445 270.251,282.871 282.733,276.163 282.833,276.109 283.35,276.138 299.353,268.872 317.729,259.663 
		318.166,259.651 344.168,247.267 344.549,246.996 362.079,239.21 372.136,234.144 381.205,229.701 388.599,225.563 	"/>
	<polygon fill="#EFEFEF" points="371.636,209.364 347.479,221.444 346.989,221.566 331.511,228.864 317.144,235.071 
		316.476,235.746 307.527,239.677 296.039,245.015 287.92,249.05 277.319,253.987 255.961,264.919 229.459,277.85 230.78,279.317 
		253.755,268.403 277.048,256.623 287.688,251.709 300.036,245.673 310.946,240.56 318.342,236.95 332.164,230.887 347.65,223.593 
		347.894,223.558 374.297,210.36 372.672,208.876 	"/>
	<polygon fill="#EFEFEF" points="375.452,211.941 366.696,216.667 355.192,221.943 344.82,226.929 332.824,232.639 332.251,232.778 
		315.354,241.176 308.745,244.319 298.884,248.648 298.789,248.674 298.344,248.776 285.661,255.129 269.292,263.117 
		268.431,263.207 250.195,272.242 232.052,281.556 232.702,283.579 249.815,274.771 268.953,265.332 269.402,265.307 
		282.407,259.227 298.994,250.795 299.056,250.759 314.299,243.842 332.773,234.615 332.877,234.611 351.708,226.149 
		377.766,213.028 376.576,211.406 	"/>
	<polygon fill="#EFEFEF" points="378.094,214.835 373.729,217.367 373.27,217.582 372.801,217.92 370.147,219.117 369.596,219.563 
		365.844,221.184 355.808,226.227 336.709,234.746 336.059,235.222 311.227,247.172 310.371,247.252 294.568,254.936 
		275.897,264.09 275.832,264.414 275.282,264.414 265.64,269.249 253.014,275.039 243.643,280.21 234.218,284.442 235.364,286.207 
		243.391,282.813 255.394,276.127 263.449,272.549 275.933,265.839 276.033,265.786 276.548,265.812 292.552,258.546 
		310.927,249.335 311.366,249.326 337.366,236.943 337.748,236.668 355.275,228.887 365.333,223.817 374.402,219.376 
		379.933,216.526 379.22,214.387 	"/>
	<polygon fill="#EFEFEF" points="390.196,231.07 364.344,244.076 363.853,244.198 348.378,251.5 334.01,257.704 333.339,258.379 
		324.393,262.31 312.907,267.648 304.784,271.682 294.186,276.62 272.827,287.552 245.182,301.019 246.205,302.768 270.618,291.035 
		293.913,279.255 304.553,274.344 316.899,268.305 327.812,263.194 335.205,259.583 349.026,253.52 364.518,246.224 
		364.757,246.191 392.434,232.284 391.229,230.46 	"/>
	<polygon fill="#EFEFEF" points="389.461,227.123 382.782,230.782 382.323,230.996 381.854,231.333 379.205,232.531 
		378.649,232.978 374.895,234.597 364.861,239.64 345.761,248.16 345.112,248.637 320.278,260.586 319.423,260.665 303.621,268.348 
		284.949,277.064 284.886,276.948 284.336,276.948 274.693,282.224 262.065,288.231 252.697,293.513 243.272,297.8 244.417,299.591 
		252.443,296.214 264.447,289.534 272.504,285.958 284.984,279.251 285.086,279.2 285.602,279.225 301.604,271.959 319.98,262.749 
		320.418,262.739 346.42,250.358 346.804,250.084 364.332,242.299 374.387,237.232 383.458,232.791 390.69,228.775 	"/>
</g>
<path fill="none" stroke="#EFEFEF" stroke-width="3" stroke-miterlimit="10" d="M323.808,156.305l-139.185,57.188
	c0,0-5.223,2.089-4.961,4.961c0.261,2.873,65.022,104.191,65.022,104.191s0.262,1.566,6.528,2.089
	c6.268,0.523,137.16-68.612,144.407-73.64c1.306-1.696,5.354-8.029,1.436-15.863c-3.916-7.834-40.375-48.707-59.843-72.226
	c-5.255-6.346-4.962-5.658-7.312-6.703C327.347,155.171,322.175,157.154,323.808,156.305z"/>
<path fill="none" stroke="#EFEFEF" stroke-width="4" stroke-miterlimit="10" d="M87.743,34.964
	c-1.059,7.831-14.504,12.466-28.487,10.576C45.273,43.65,33.5,36.095,34.559,28.265c1.058-7.829,14.547-12.97,28.53-11.079
	C77.073,19.075,88.802,27.135,87.743,34.964z"/>
<path fill="none" stroke="#EFEFEF" stroke-width="4" stroke-miterlimit="10" d="M34.559,28.264c0,0-5.798,36.749-6.093,39.517
	c-0.436,4.091-0.261,6.703,1.131,10.706c1.393,4.004,11.838,13.231,29.073,14.45C75.905,94.154,83.494,87.503,85,82.143
	c1.175-4.178,2.481-37.255,2.742-46.395"/>
<ellipse transform="matrix(0.134 -0.991 0.991 0.134 145.5581 175.5117)" fill="none" stroke="#EFEFEF" stroke-width="4" stroke-miterlimit="10" cx="173.201" cy="4.472" rx="14.223" ry="24.222"/>
<ellipse transform="matrix(0.134 -0.991 0.991 0.134 78.9552 180.7689)" fill="none" stroke="#EFEFEF" stroke-width="4" stroke-miterlimit="10" cx="142.908" cy="45.209" rx="14.222" ry="24.221"/>
<path fill="#EFEFEF" stroke="#EFEFEF" stroke-width="2" stroke-miterlimit="10" d="M134.138,101.38
	c-7.767-0.872-17.487-7.367-19.623-15.162c-0.083-0.3-0.258-0.491-0.466-0.607c0.415-14.196,4.592-28.149,5.64-42.29
	c0.099-1.344-1.991-1.335-2.089,0c-1.059,14.291-5.319,28.38-5.658,42.739c-0.012,0.505,0.273,0.82,0.637,0.947
	c2.54,8.711,12.896,15.49,21.559,16.461C135.476,103.619,135.461,101.529,134.138,101.38z"/>
<path fill="#EFEFEF" stroke="#EFEFEF" stroke-width="2" stroke-miterlimit="10" d="M198.985,8.242c-0.003-1.347-2.092-1.347-2.089,0
	c0.018,6.811,0.168,13.618-0.077,20.418c0.112,0.167,0.177,0.273-0.001,0.054c0,0.003,0,0.007,0,0.011
	c0.893,1.174,1.086,2.712-0.05,3.849c-0.047,0.047-0.107,0.084-0.158,0.127c-0.046,0.775-0.085,1.55-0.148,2.325
	c-0.374,4.654-1.223,9.223-2.459,13.72c-1.733,6.308-4.012,9.823-10.441,11.5c-0.166,0.043-0.294,0.133-0.406,0.239
	c-5.062,0.519-9.732,0.145-14.855-0.538c-0.044-0.005-0.074,0.01-0.114,0.009c0.091-3.52,0.14-7.039,0.157-10.541
	c0.006-1.348-2.083-1.348-2.089,0c-0.037,7.422-0.348,14.845-0.704,22.259c-0.349,7.292-1.878,14.569-1.733,21.873
	c0.027,1.345,2.116,1.348,2.089,0c-0.132-6.625,1.079-13.297,1.603-19.896c0.308-3.872,0.499-7.77,0.624-11.67
	c0.058,0.017,0.103,0.048,0.167,0.056c5.604,0.746,10.543,1.141,16.19,0.391c0.321-0.042,0.579-0.23,0.761-0.47
	c2.828-0.776,6.025-1.909,7.521-4.539c2.606-4.579,3.865-9.883,4.824-15.02C199.692,31.184,199.013,19.585,198.985,8.242z"/>
<path fill="#EFEFEF" stroke="#EFEFEF" stroke-width="2" stroke-miterlimit="10" d="M146.104,12.637
	c0.065-0.065,0.139-0.115,0.21-0.171c0.245-1.685,0.537-3.357,0.951-5.027c0.667-2.695,2.317-5.006,3.114-7.665
	c0.389-1.293-1.628-1.843-2.015-0.554c-1.371,4.57-3.6,8.094-4.156,12.981c-0.671,5.891-3.064,11.556-3.323,17.457
	c-0.06,1.348,2.03,1.343,2.089,0c0.203-4.641,2.202-8.928,2.843-13.492C145.083,15.08,145.139,13.602,146.104,12.637z"/>
<path fill="#EFEFEF" d="M56.822,36.044c-1.462,2.285-3.755,3.866-5.092,6.267c-1.311,2.356,2.298,4.462,3.608,2.109
	c1.318-2.369,3.629-3.982,5.092-6.268C61.888,35.875,58.271,33.783,56.822,36.044z"/>
<path fill="#EFEFEF" d="M141.961,48.532c-0.989-0.271-2.412,0.329-2.569,1.459c-0.326,2.321-1.272,4.489-1.697,6.789
	c-0.487,2.633,3.54,3.758,4.028,1.111c0.425-2.301,1.372-4.469,1.698-6.79C143.578,49.975,143.164,48.864,141.961,48.532z"/>
<path fill="#EFEFEF" d="M186.311-6.227c-2.477,1.446-4.884,3.007-7.442,4.309c-2.401,1.224-0.286,4.828,2.108,3.608
	c2.559-1.302,4.967-2.863,7.442-4.309C190.744-3.976,188.643-7.587,186.311-6.227z"/>
<path fill="#222222" d="M250.002,122.988c0.146-0.017,0.288-0.035,0.434-0.051c1.702-0.887,3.126-2,3.363-4.094
	c0.047-0.42,0.3-0.909-0.077-1.215c-0.485-0.391-0.936,0.018-1.342,0.289c-0.477,0.317-0.868,0.746-1.363,1.039
	c-0.567,0.332-1.077,0.4-1.42-0.305c-0.831-1.646-0.586-3.088,0.812-4.313c1.042,0.159,1.954-0.314,2.883-0.645
	c2.396-0.854,4.773-1.761,7.165-2.628c0.45-0.163,0.92-0.392,1.535-0.083c0.109,1.459-0.413,2.876-0.65,4.322
	c-0.273,1.685-0.955,3.284-1.085,5.004c-0.089,1.179,0.15,1.441,1.253,1.185c2.653-0.616,4.735-1.846,4.976-4.996
	c0.81,1.084,1.338,2.15,1.604,3.346c0.419,1.884,0.04,2.586-1.803,3.148c-0.62,0.189-1.218,0.384-1.705,0.83
	c-0.423,0.167-0.844,0.336-1.266,0.504c-0.34,0.307-0.917-0.087-1.194,0.405l-0.077,0.065c-0.636,0.458-1.451,0.418-2.125,0.77
	l-0.032,0.017c-0.663,0.407-1.424,0.564-2.139,0.841l-0.012,0.003c-0.741,0.245-1.563,0.271-2.188,0.823
	c-0.9,0.191-1.801,0.383-2.783,0.591c-0.406-0.847-0.064-1.696-0.126-2.512c-0.031-0.424-0.005-0.892-0.541-1.032
	c-0.437-0.114-0.854-0.011-1.203,0.276c-0.592,0.486-0.833,1.154-0.862,1.893c-0.079,1.904-1.162,2.949-2.874,3.553
	c-4.62,1.629-9.168,3.468-13.864,4.876c-2.148,0.644-2.919,0.201-3.791-1.887c-0.632-1.513-1.264-3.025-1.932-4.522
	c-0.171-0.382-0.442-0.738-0.732-1.043c-0.673-0.701-1.752-0.914-2.312-0.419c-0.644,0.57-0.914,1.417-0.498,2.136
	c0.95,1.634,1.099,3.53,1.914,5.208c0.869,1.785,0.064,3.499-1.898,3.968c-2.17,0.521-4.148,1.511-6.224,2.256
	c-1.264,0.455-2.521,0.696-3.755,0.212c-1.121-0.439-1.736-0.1-2.269,0.854c-0.381,0.68-0.862,1.303-1.299,1.952
	c-1.263,0.488-2.497,0.954-3.922,0.909c-1.574-0.051-2.64-0.831-3.217-2.092c-0.584-1.272-0.456-2.645,0.574-3.794
	c0.92-1.027,1.95-1.891,3.273-2.344c0.97-0.333,1.806-0.848,2.433-1.674c0.481-0.636,0.545-1.316,0.153-1.999
	c-0.322-0.558-0.871-0.706-1.483-0.636c-0.726,0.082-1.236,0.493-1.313,1.201c-0.227,2.059-1.642,2.802-3.38,3.377
	c-3.076,1.018-3.042,1.062-2.297,4.042c0.241,0.966,0.435,1.956,0.53,2.945c0.164,1.695-0.404,3.086-1.938,3.976
	c-1.6,0.929-3.232,1.038-4.883,0.141c-0.311-0.169-0.57-0.43-0.87-0.625c-1.331-0.867-1.52-0.829-1.69,0.722
	c-0.223,2.045-1.611,2.895-3.287,3.508c-3.284,1.2-6.578,2.375-9.858,3.587c-0.518,0.191-1.142,0.234-1.474,0.792l-0.044,0.029
	c-0.412,0.296-0.963,0.041-1.371,0.351c-0.746,0.234-1.489,0.481-2.241,0.694c-0.289,0.081-0.571-0.021-0.746-0.283
	c-0.213-0.318,0.016-0.555,0.219-0.734c0.266-0.235,0.594-0.397,0.876-0.615c1.922-1.48,2.208-2.455,1.543-4.796
	c-0.779-2.744-1.326-5.57-2.305-8.24c-1.106-3.017-1.94-6.106-2.908-9.158c1.416-0.447,2.021,0.451,2.271,1.554
	c1.333,5.856,4.33,11.242,4.904,17.311c0.099,1.04,0.603,1.396,1.595,0.969c0.591-0.256,1.167-0.549,1.771-0.774
	c1.058-0.394,1.119-1.015,0.724-2.021c-2.345-5.98-3.732-12.258-5.588-18.391c-0.404-1.331-1.197-1.454-2.265-1.308
	c-1.651,0.226-2.552,1.435-3.409,2.686c-1.577-0.992-3.321-1.156-5.185-1.095c1.959-1.516,4.475-1.759,6.557-2.94
	c0.393-0.221,0.904,0.038,1.268-0.307c0.806-0.051,1.457-0.493,2.137-0.859c0.362-0.42,0.958-0.078,1.346-0.414
	c0.873-0.217,1.769-0.372,2.511-0.936c1.032-0.35,1.646-0.247,1.145,1.059c-1.943,1.612-1.92,3.53-1.226,5.804
	c1.253,4.096,2.715,8.126,3.847,12.26c0.151,0.551,0.339,1.096,0.591,1.607c0.479,0.973,0.728,2.598,2.232,1.961
	c1.365-0.576,0.374-1.885,0.116-2.827c-0.961-3.511-2.086-6.977-3.115-10.469c-0.436-1.477-1.125-2.708-2.38-3.7
	c-1.418-1.122-1.295-1.892,0.305-2.682c1.209-0.599,2.451-1.297,3.843-1.219c2.217,0.125,3.442,1.513,4.047,3.546
	c0.161,0.482,0.263,0.985,0.492,1.446c0.106,0.265-0.013-0.077,0.086,0.191c0.889,2.435,0.891,2.437,3.025,0.963
	c0.527-0.363,1.078-0.653,1.724-0.733c0.602-0.052,1.205-0.042,1.807-0.033c0.929,0.017,1.805,0.251,2.519,0.849
	c1.219,1.022,1.98,0.689,2.438-0.733c0.188-0.468,0.325-0.957,0.542-1.415c0.544-0.587,0.876-1.528,1.977-1.179
	c2.384-1.134,4.78-2.176,7.518-2.076c2.839,0.106,4.112,0.951,5.144,3.614c0.438,1.132,0.822,2.283,1.271,3.409
	c0.208,0.529,0.476,1.044,0.774,1.526c0.323,0.516,0.822,0.872,1.44,0.659c0.684-0.235,0.953-0.862,0.935-1.541
	c-0.012-0.415-0.194-0.83-0.327-1.235c-0.425-1.287-0.915-2.556-1.286-3.858c-0.59-2.055-1.744-3.533-4.17-4.137
	c1.832-1.064,3.565-1.666,5.308-2.203c0.878-0.272,1.839-0.277,2.648,0.396c0.605,0.504,1.048,0.229,1.37-0.37
	c0.202-0.377,0.338-0.797,0.578-1.147c1.868-2.734,5.733-2.53,7.444,0.293c1.013,1.67,1.562,3.519,2.365,5.267
	c0.27,0.587,0.501,1.169,0.938,1.665c0.546,0.62,1.105,0.514,1.712,0.143c0.714-0.434,0.409-0.855,0.092-1.411
	c-1.18-2.054-1.904-4.304-2.487-6.58c-0.37-1.454,0.023-2.764,1.247-3.833c1.327-1.159,2.938-1.662,4.507-2.284
	c0.512-0.426,1.226,0.039,1.736-0.394c0.688,0.005,1.378,0.009,2.067,0.014c0.512,0.439,1.3-0.131,1.764,0.483
	c0.899,0.496,1.499,1.293,2.098,2.09c0.479,0.351,0.185,0.939,0.435,1.379c0.868,1.523,0.016,2.236-1.321,2.698
	c-1.282,0.443-2.62,0.742-3.831,1.378c-0.633,0.333-1.323,0.686-1.081,1.611c0.137,0.527,0.486,0.929,1.035,0.955
	c0.797,0.038,1.083-0.627,1.305-1.224C245.661,123.897,247.723,123.282,250.002,122.988z"/>
<path fill="#222222" d="M170.878,132.916c0.109-0.949-0.193-2.002,1.1-2.523c1.596-0.644,3.112-1.5,4.86-0.482
	c0.555,0.324,0.565,0.801,0.426,1.295c-0.14,0.496-0.27,0.957,0.015,1.442c1.139,1.939,1.451,4.114,1.855,6.278
	c0.244,1.306,1.251,2.323,1.386,3.771c0.107,1.151,0.985,2.219,0.597,3.501c1.309,1.145,0.893,3.127,2.1,4.32
	c0.64,0.633,0.492,1.069-0.274,1.469c-1.199,0.628-2.51,0.985-3.681,1.719c-0.936,0.587-1.825-0.031-1.861-1.236
	c-0.116-3.842-1.538-7.304-2.811-10.854c-0.82-2.287-1.675-4.625-1.959-7.083c-0.124-1.075-0.961-1.32-1.757-1.643L170.878,132.916z
	"/>
<path fill="#EFEFEF" d="M195.895,143.094c0.022,0.933-0.108,1.474-0.435,1.968c-0.819,1.243-1.5,1.256-2.461,0.077
	c-1.02-1.25-1.529-2.704-1.752-4.274c-0.079-0.566-0.055-1.139,0.164-1.681c0.42-1.046,1.022-1.272,1.984-0.669
	C195.204,139.65,195.65,141.503,195.895,143.094z"/>
<path fill="#EFEFEF" d="M211.779,138.73c0.045,0.753-0.064,1.447-0.881,1.739c-0.763,0.271-1.375,0.01-1.833-0.655
	c-0.492-0.713-0.247-1.366,0.201-1.95c0.436-0.563,1.035-1.159,1.759-0.947C211.828,137.152,211.732,138.032,211.779,138.73z"/>
<path fill="#EFEFEF" d="M240.059,121.474c0.002-0.812,0.194-1.462,1.152-1.464c0.933-0.002,1.885,0.851,1.913,1.669
	c0.027,0.825-0.905,1.583-1.966,1.521C240.02,123.134,240.191,122.183,240.059,121.474z"/>
<path fill="#EFEFEF" stroke="#EFEFEF" stroke-width="2" stroke-miterlimit="10" d="M80.708,199.146
	c-0.977-6.478-3.925-13.876-9.356-17.976c-3.35-2.528-6.589-2.399-10.208-0.423c-2.625,1.434-3.574,4.359-4.063,7.26
	c0.397-0.02,0.778,0.186,1.026,0.533c0.285,0.401,0.567,0.806,0.85,1.21c0.374-2.715,2.356-7.782,7.123-8.402
	c3.823-0.499,6.897,4.864,8.708,7.373c2.058,2.851,2.992,6.639,3.623,10.038c0.725,3.895,0.777,10.374-4.881,9.276
	c-6.17-1.197-10.259-7.033-12.987-12.6c0.028,0.541-0.189,1.049-0.773,1.208c-0.523,0.144-1.279-0.173-1.362-0.77
	c0-0.004-0.002-0.008-0.002-0.013c-0.034-0.013-0.07-0.016-0.104-0.032c3.364,6.923,8.599,14.028,16.737,14.638
	C80.94,210.909,81.306,203.113,80.708,199.146z"/>
<path fill="#EFEFEF" stroke="#EFEFEF" stroke-width="2" stroke-miterlimit="10" d="M60.854,195.667
	c-1.373-2.584-1.579-5.081-1.472-7.959c0.053-1.435-2.177-1.429-2.23,0c-0.122,3.291,0.213,6.14,1.778,9.082
	C59.604,198.056,61.527,196.934,60.854,195.667z"/>
</svg>
