<?xml version="1.0" encoding="utf-8"?>
<!-- Generator: Adobe Illustrator 16.0.0, SVG Export Plug-In . SVG Version: 6.00 Build 0)  -->
<!DOCTYPE svg PUBLIC "-//W3C//DTD SVG 1.1//EN" "http://www.w3.org/Graphics/SVG/1.1/DTD/svg11.dtd">
<svg version="1.1" xmlns="http://www.w3.org/2000/svg" xmlns:xlink="http://www.w3.org/1999/xlink" x="0px" y="0px" width="450px"
	 height="480px" viewBox="0 0 450 480" enable-background="new 0 0 450 480" xml:space="preserve" shape-rendering="optimizeQuality">
<g id="Layer_1">
	<g>
		<path fill="none" stroke="#EFEFEF" stroke-width="6" stroke-miterlimit="10" d="M30.537,136.357
			c0.029-0.268,0.057-0.533,0.088-0.8C30.531,136.34,30.514,136.509,30.537,136.357z"/>
		<path fill="none" stroke="#EFEFEF" stroke-width="6" stroke-miterlimit="10" d="M221.366,475.422
			c-0.066-0.016-0.132-0.026-0.197-0.042C221.275,475.405,221.335,475.419,221.366,475.422z"/>
		<path fill="none" stroke="#EFEFEF" stroke-width="6" stroke-miterlimit="10" d="M221.169,475.38
			c-0.457-0.149-0.905-0.312-1.351-0.482C219.248,474.726,219.165,474.721,221.169,475.38z"/>
		<path fill="none" stroke="#EFEFEF" stroke-width="6" stroke-miterlimit="10" d="M417.287,140.379
			C409.226-4.345,217.569-6.873,113.471,27.094c5.516-1.799-6.939,2.879-4.438,1.947c-8.842,3.295-17.317,7.569-25.208,12.744
			c-5.62,3.686-10.864,7.758-15.846,12.267c-23.875,21.659-33.137,50.46-37.354,81.505c0.783-5.763-0.521,6.697-0.432,5.177
			c-0.476,8.179-0.057,16.225,0.632,24.384c1.587,18.798,7.139,37.074,13.083,54.878c11.548,34.59,26.017,68.148,43.185,100.32
			c16.989,31.836,37.995,61.475,61.232,89.04c19.217,22.796,41.163,49.639,67.736,63.815c10.889,5.809,20.034-2.063,28.634-8.814
			c14.307-11.232,27.188-24.702,39.403-38.132c24.312-26.729,46.609-55.646,65.184-86.674
			c18.648-31.152,33.438-64.261,46.446-98.099C408.058,209.382,419.205,175.171,417.287,140.379
			C416.994,135.119,417.433,143.019,417.287,140.379z M381.359,266.701C381.623,266.423,382.271,266.53,381.359,266.701
			C381.41,266.647,381.536,266.668,381.359,266.701z"/>
	</g>
	<path fill-rule="evenodd" clip-rule="evenodd" fill="#EFEFEF" d="M178.096,356.26c-0.004-5.109-0.004-5.109,5.092-5.088
		c5.713,0.025,5.713,0.025,5.81,5.732c0.082,4.859-0.162,5.102-5.042,5.037c-0.09-0.002-0.181,0.006-0.269-0.004
		C177.294,361.279,178.107,362.787,178.096,356.26z"/>
	<g>
		<path fill-rule="evenodd" clip-rule="evenodd" fill="#EFEFEF" d="M254.956,340.428c-1.372-1.347-1.783-2.336-0.416-4.082
			c2.814-3.594,2.34-8.938-0.78-12.29c-4.768-5.124-11.695-6.121-19.338-2.785c-6.098,2.661-8.596,9.669-5.113,15.22
			c1.223,1.947,0.842,2.816-0.591,4.24c-4.517,4.486-4.427,12.432-0.147,17.102c3.487,3.807,7.915,5.033,12.786,5.254
			c6.159,0.406,11.171-2.424,14.802-6.727C259.642,352.232,260.037,345.41,254.956,340.428z M241.976,327.892
			c2.695,0.008,4.118,1.343,4.1,3.845c-0.016,2.051-2.08,4.104-4.169,4.146c-1.918,0.041-3.959-2.428-3.919-4.737
			C238.026,328.899,239.271,327.884,241.976,327.892z M241.715,353.861c-3.397-0.031-6.032-2.621-5.949-5.844
			c0.07-2.694,2.541-4.446,6.247-4.43c3.969,0.017,6.171,1.809,6.219,5.062C248.275,351.689,245.513,353.898,241.715,353.861z"/>
		<path fill-rule="evenodd" clip-rule="evenodd" fill="#EFEFEF" d="M220.539,339.99c-1.258-1-1.256-1.644-0.239-2.978
			c3.177-4.171,2.453-9.799-1.179-13.641c-4.534-4.797-12.644-5.021-18.543-2.325c-5.423,2.479-9.701,9.812-4.697,16.289
			c0.98,1.27,0.354,1.784-0.472,2.604c-6.346,6.307-5.352,15.654,2.149,20.523c3.209,2.084,6.823,2.537,11.345,2.674
			c2.725,0.502,5.712-1.219,8.642-2.652C225.58,356.555,226.989,345.113,220.539,339.99z M207.642,327.075
			c2.097-0.13,4.363,2.429,4.358,4.919c-0.004,1.98-1.787,3.883-3.614,3.858c-2.514-0.034-4.321-1.739-4.349-4.102
			C204.014,329.678,205.939,327.181,207.642,327.075z M213.818,350.688c-1.16,2.324-3.309,3.111-5.763,3.223
			c-2.415-0.027-4.431-0.883-5.724-2.928c-1.043-1.648-1.501-3.455-0.194-5.251c1.562-2.142,3.932-2.458,6.255-2.401
			c1.569,0.039,3.228,0.52,4.334,1.885C214.042,346.838,214.825,348.666,213.818,350.688z"/>
	</g>
	<g>
		<path fill-rule="evenodd" clip-rule="evenodd" fill="#EFEFEF" d="M322.514,191.426c0-22.682,0-45.362-0.003-68.043
			c-0.002-22.604-0.036-45.208,0.052-67.812c0.009-2.214-0.664-2.677-2.735-2.667c-15.846,0.073-31.692,0.083-47.537-0.029
			c-2.206-0.016-2.507,0.768-2.501,2.672c0.067,24.39,0.077,48.781,0.079,73.171c0.002,28.043-0.012,56.084-0.041,84.125
			c-0.002,1.431-0.072,2.452,1.984,2.44c16-0.096,32-0.106,48-0.033c2.094,0.009,2.792-0.498,2.75-2.684
			C322.425,205.521,322.514,198.473,322.514,191.426z M308.103,203.648c-7.691-0.088-15.386-0.042-23.079-0.042
			c-3.257,0-3.144,0.005-3.116-3.189c0.068-8.081,0.118-16.165,0-24.245c-0.109-7.449,0.012-14.899-0.147-22.352
			c-0.112-5.248,0.088-10.545,0.129-15.818c0.069-8.759,0.029-17.52,0.03-26.278c0.002-14.855,0.041-29.711-0.044-44.566
			c-0.011-2.039,0.501-2.65,2.589-2.617c7.846,0.124,15.697,0.112,23.544,0c1.978-0.029,2.445,0.509,2.44,2.407
			C310.386,89.328,310.409,112,310.409,134c0.005,0,0.011,0,0.017,0c0,22-0.024,44.849,0.044,67.229
			C310.476,203.129,309.899,203.67,308.103,203.648z"/>
		<path fill-rule="evenodd" clip-rule="evenodd" fill="#EFEFEF" d="M251.62,88.003c-0.002-10.877-0.033-21.754,0.059-32.63
			c0.017-1.917-0.479-2.476-2.452-2.464c-15.538,0.089-31.077,0.037-46.616,0.068c-3.855,0.007-3.635-0.854-3.637,3.512
			c-0.007,30.223-0.004,60.445-0.02,90.669c-0.008,15.848-0.046,31.697-0.07,47.545c-0.641,0.926-0.643,1.85,0.007,2.773
			c0.003,5.131,0.005,10.263,0.008,15.394c-0.572,0.769-0.62,1.606,0.012,2.292c0.711,0.771,1.606,0.748,2.469,0.146
			c1.373,0.002,2.748,0.005,4.121,0.006c0.488,0.294,0.978,0.385,1.47,0.011c13.904-0.021,27.809-0.087,41.713-0.021
			c2.236,0.011,3.018-0.434,3.012-2.924C251.599,170.92,251.62,129.461,251.62,88.003z M239.545,134c-0.004,0,0.455,0,0.455,0
			c0,21,0,44.462,0,66.607c0,3.119-0.227,3.059-3.342,3.064c-7.764,0.016-15.645-0.085-23.407,0.021
			c-1.802,0.025-2.328-0.833-2.52-2.308c-0.24-1.854-0.055-3.773,0.167-5.532c0.49-3.881-0.336-7.701,0.03-11.584
			c0.396-4.212-0.245-8.513-0.215-12.772c0.036-5.32,0.329-10.636,0.296-15.963c-0.069-11.478,0.007-22.957,0.019-34.435
			c0.009-9.455,0.292-18.923-0.086-28.363c-0.271-6.793,0.292-13.567-0.089-20.356c-0.106-1.892-0.032-3.837-0.16-5.76
			c-0.092-1.392,0.177-2.153,2.045-2.117c8.155,0.158,16.315,0.125,24.474,0.03c1.843-0.021,2.373,0.501,2.369,2.338
			C239.525,89.25,239.545,112,239.545,134z"/>
		<path fill-rule="evenodd" clip-rule="evenodd" fill="#EFEFEF" d="M181.077,190.587c0.911-3.506,0.003-6.907-0.267-10.349
			c-0.025-4.939-0.071-9.879-0.073-14.818c-0.008-28.71-0.005-57.419-0.006-86.129c-0.001-8.077-0.034-16.154,0.025-24.231
			c0.012-1.548-0.324-2.16-2.048-2.152c-16.153,0.067-32.308,0.067-48.461,0.006c-1.755-0.007-2.236,0.521-2.233,2.246
			c0.05,29.433,0.047,58.866,0.043,88.3c-0.003,22.212-0.024,44.423-0.037,66.635c-0.266,0.338-0.463,0.708-0.511,1.145
			c-0.101,1.001-0.105,2.003,0.033,2.999c0.491,1.894,2.05,1.596,3.408,1.619c10.012,0.173,20.024,0.079,30.038,0.092
			c5.666,0.008,11.333,0.068,16.999-0.034c2.63-0.048,3.514-0.891,3.46-3.304c-0.132-5.894-0.028-11.783,0.115-17.672
			C181.601,193.434,180.711,191.996,181.077,190.587z M166.304,203.659c-6.035-0.058-12.073-0.104-18.109,0.224
			c-2.23,0.122-4.483-0.202-6.729-0.278c-1.527-0.053-1.701-1.024-1.671-2.231c0.101-4.007,0.458-8.032,0.2-12.018
			c-0.448-6.923,0.045-13.841,0.093-20.743c0.042-6.18-0.336-12.363-0.098-18.559c0.163-4.256,0.019-8.583-0.097-12.877
			c-0.149-5.599,0.305-11.213,0.173-16.812c-0.118-5.018,0.296-10.021-0.139-15.06c-0.364-4.221,0.233-8.516,0.224-12.777
			c-0.02-8.668,0.192-17.343-0.359-26.003c-0.098-1.542,0.199-2.073,2.026-2.035c8.153,0.172,16.312,0.134,24.468,0.06
			c1.755-0.016,2.399,0.366,2.394,2.305C168.607,89.228,168.634,112,168.634,134c0.014,0,0.366,0,0.366,0c0,21,0,43.261,0,64.935
			c0,0.777-0.244,1.582-0.16,2.349C169.039,203.11,168.156,203.678,166.304,203.659z"/>
	</g>
	<g>
		<path fill="#EFEFEF" d="M163.978,277.542l0.05,0.906l0.1,1.418l0.051,0.85l-0.051,0.794l-0.25,0.737l-0.35,0.396l-0.55,0.057
			l-0.8,0.113l-2.7-0.17h-0.801l-2.649,0.227h-0.801l-0.7-0.17l-0.3-0.453l-0.1-0.794l-0.2-3.685l-0.05-0.907l0.1-3.685v-0.907
			l-0.1-3.628v-0.793l-0.2-0.454l-0.55-0.227h-1.2l-2,0.17l-0.801,0.057l-4-0.113l-2.7-0.17l-0.649,0.057l-0.45,0.17l-0.25,0.511
			l-0.05,0.793l0.05,3.628v0.907l-0.101,3.685l0.051,0.907l0.199,2.438v1.304l-0.199,0.794l-0.45,0.453l-0.65,0.17l-0.75,0.057
			l-0.75-0.057l-2.101-0.227l-0.8-0.057l-2.35,0.17l-0.801-0.057h-0.399l-0.55-0.113l-0.4-0.227l-0.2-0.284l-0.1-0.623l-0.05-0.51
			v-0.907l0.1-1.701v-4.762l0.1-3.004v-0.907l0.051-3.004v-0.907l-0.15-3.005v-0.906l-0.05-3.005v-3.911l0.05-0.907l0.15-3.004
			l0.05-0.907l-0.05-3.004l-0.051-0.907l-0.25-1.928v-1.19l0.2-0.68l0.45-0.397l0.65-0.17l0.75-0.057h0.75l2.1,0.113h0.8l2.001-0.17
			h0.8l0.75,0.057l0.65,0.113l0.399,0.454l0.2,0.736l0.05,0.397v0.85l-0.149,2.551l-0.051,0.907l-0.05,3.685v4.648l0.05,0.681
			l0.15,0.453l0.25,0.227l0.5,0.057l0.7,0.057h0.7l1.899-0.34l0.75-0.057l3.2,0.113l2.95,0.227h0.751l0.35-0.057l0.55-0.34
			l0.2-0.454l0.05-0.623l0.2-3.685v-0.907l-0.1-3.685v-0.907l-0.051-3.685l0.15-0.906l0.4-0.511l0.6-0.113h0.8l2.7,0.17h0.801
			l2.25-0.17l0.8,0.057h0.45l0.649,0.113l0.4,0.454l0.2,0.793v0.851l-0.15,2.268l-0.05,0.907l0.15,3.004v0.907l-0.101,3.004v0.907
			l0.2,3.005v0.906l-0.2,3.005v0.906l-0.1,3.005v0.907l0.05,3.004v0.907l-0.05,3.004V277.542z"/>
		<path fill="#EFEFEF" d="M200.228,277.429l-0.051,0.906l-0.199,3.062l-0.051,0.566l-0.199,0.397l-0.251,0.227l-6.55,0.227h-0.8
			l-2.65-0.227l-0.8,0.057l-2.601,0.227l-0.8,0.057h-3.45l-2.601-0.227h-0.8l-4.3,0.283l-1.7-0.113l-0.601-0.113l-0.35-0.283
			l-0.15-0.397l-0.1-0.623l-0.101-1.304l-0.05-0.907l0.05-0.851v-0.85l0.2-3.005v-0.907l0.05-3.004l-0.05-0.907l-0.149-3.004
			l-0.051-0.907l0.101-3.062v-4.818l0.2-3.004l-0.051-0.907l-0.149-3.004l-0.05-0.907v-1.36l0.1-1.701v-0.85l0.15-2.948l0.05-0.793
			l0.149-0.454l0.25-0.227l0.4-0.057l0.65-0.113l3.25,0.227l3.05-0.057h0.8l3.001,0.227h0.8l3-0.227h0.8l6.801,0.113l0.85-0.057
			l1.7-0.17h1.25l0.7,0.17l0.3,0.283l0.101,0.397l0.1,0.736v1.531l-0.1,1.417v0.964l0.05,1.417l0.05,0.85l-0.05,0.851l-0.1,0.681
			l-0.2,0.396l-0.25,0.227l-0.601,0.113h-0.399l-0.8,0.057l-4.701-0.113h-0.8l-2.55,0.113h-0.8l-2.601-0.113l-2.25-0.17h-0.75
			l-0.4,0.057l-0.5,0.113l-0.25,0.284l-0.05,0.34l-0.1,0.623l-0.101,1.36v0.907l0.05,0.964l0.051,0.623l0.1,0.397l0.2,0.283
			l0.55,0.17l1.601,0.113l1.6-0.113h4.75l5.601-0.34l1.55,0.113l0.551,0.113l0.3,0.283l0.149,0.341l0.051,0.623l0.1,0.964
			l0.05,0.964v1.87l0.101,1.304l-0.101,1.701l-0.1,0.68l-0.2,0.397l-0.35,0.283l-0.5,0.113h-1l-2.251-0.283l-0.8-0.057l-4,0.283
			l-3.2-0.113h-0.8l-2.001-0.17l-0.85,0.057l-0.6,0.057l-0.25,0.17l-0.15,0.396l-0.05,0.851l-0.15,1.417l-0.05,0.907v1.247
			l0.05,0.566l0.15,0.397l0.2,0.227l0.55,0.057l2.75,0.113h0.8l2.7-0.227l3.551,0.227h0.8l3.55-0.227h0.75l0.75,0.057l1.801,0.227
			l0.3,0.17l0.2,0.341l0.05,0.623L200.228,277.429z"/>
		<path fill="#EFEFEF" d="M245.328,281.17l0.148,0.793l-0.35,0.624l-0.549,0.283l-0.65,0.113h-0.701l-1.148-0.113l-0.75-0.057
			h-2.252l-3.1,0.227l-0.65-0.227l-0.299-0.453l-0.25-0.624l-1.551-4.762l-0.35-0.566l-0.451-0.113l-0.6-0.057l-3-0.228h-0.801
			l-3.75-0.113l-3-0.057h-0.75l-0.75,0.057h-2.3l-0.65,0.113l-0.4,0.284l-0.3,0.68l-1.15,3.854l-0.3,0.907l-0.55,0.737l-0.75,0.34
			l-0.8-0.057l-2.9-0.17h-0.8l-3.101,0.227l-0.65,0.057l-0.6-0.34l-0.4-0.624l0.051-0.736l0.1-0.454l0.3-0.906l0.7-1.758l0.3-0.851
			l1.25-3.174l0.301-0.794l1.3-3.175l0.3-0.85l1.15-3.062l0.3-0.85l1.35-3.175l0.301-0.794l1.8-4.648l1.4-3.4l0.35-0.907
			l1.101-2.551l0.35-0.907l0.95-2.607l0.3-0.851l0.9-2.324l0.25-0.623l0.5-0.341l0.75-0.17l2.3-0.113h3.9l2.301,0.057l0.85,0.17
			l0.551,0.454l0.25,0.736l0.699,2.211l0.301,0.851l1.25,2.664l0.299,0.794l1.102,2.777l0.299,0.794l0.9,2.891l0.301,0.794
			l1.1,2.721l0.301,0.794l1.1,2.777l0.299,0.794l1,2.834l0.301,0.794l1.551,3.515l1.199,2.664l0.35,0.793l1.352,3.571
			L245.328,281.17z M228.627,265.184l-0.201-0.736l-1.1-3.854l-0.25-0.851l-1-3.345l-0.25-0.736l-0.5-0.397l-0.65-0.17l-0.55,0.17
			l-0.5,0.567l-1.351,3.854l-0.3,0.851l-1.3,3.798l-0.15,0.85l0.15,0.681l0.55,0.283l0.7,0.113h3.15l2.349,0.171l0.65-0.228
			l0.4-0.453L228.627,265.184z"/>
		<path fill="#EFEFEF" d="M279.727,242.793l-0.148,0.737l-0.15,0.51l-0.301,0.907l-0.699,1.53l-0.35,0.851l-0.9,3.174l-0.35,0.851
			l-1.301,3.005l-0.35,0.85l-0.9,3.118l-0.301,0.907l-1.049,3.061l-0.301,0.907l-1.1,3.061l-0.35,0.851l-1.352,3.005l-0.35,0.85
			l-1.1,3.062l-0.301,0.907l-1.199,2.947l-0.301,0.907l-1.15,3.061l-0.199,0.624l-0.301,0.227l-0.6,0.057l-3.65-0.057l-0.799,0.057
			l-2.801,0.283l-0.85,0.057l-0.65-0.113l-0.35-0.396l-0.301-0.681l-1.1-3.004l-0.301-0.851l-1.299-3.117l-0.301-0.851l-1.1-3.005
			l-0.301-0.906l-0.9-3.118l-0.299-0.907l-1.201-3.004l-0.299-0.851l-1.301-3.117l-0.301-0.851l-1-3.062l-0.35-0.906l-1.199-2.948
			l-0.301-0.907l-0.9-3.174l-0.299-0.851l-0.9-1.644l-0.301-0.851l-0.15-0.51l-0.1-0.737l0.15-0.511l0.35-0.34l0.551-0.17
			l0.299-0.057h0.752l2.25,0.17l2.398-0.057l3.201,0.227l0.65,0.057l0.4,0.113l0.299,0.454l0.201,0.566l0.199,0.794l0.5,1.87
			l0.25,0.907l1.199,2.948l0.301,0.906l1,3.005l0.301,0.907l1,3.571l0.299,0.906l1.102,3.515l1.25,4.535l0.25,0.624l0.35,0.227
			l0.449-0.227l0.301-0.624l1.199-3.515l0.25-0.907l0.801-3.685l0.25-0.906l1.4-3.401l0.25-0.907l0.85-3.118l0.25-0.85l1.25-3.005
			l0.25-0.85l0.5-2.098l0.301-0.964l0.4-0.737l0.35-0.227l0.6-0.113h0.35l0.801-0.057l1.25,0.113h3.199l2.301-0.17l0.9,0.113
			l0.6,0.17l0.301,0.341L279.727,242.793z"/>
		<path fill="#EFEFEF" d="M319.578,242.453l-0.301,0.51l-3.6,6.009l-0.5,0.737l-1.701,2.607l-0.449,0.736l-1.4,2.778l-0.449,0.793
			l-1.551,2.608l-0.5,0.793l-1.6,2.607l-0.5,0.737l-1.65,2.607l-0.201,0.454v4.591l0.201,3.062l-0.051,0.907l-0.199,3.061v0.907
			l0.199,2.381l0.051,0.793l-0.15,0.454l-0.199,0.227l-0.451,0.113h-3.299l-5.852-0.227l-0.199-0.17l-0.1-0.567v-6.972l-0.051-0.907
			l-0.199-3.062l-0.051-0.906l0.199-3.062l-0.1-0.51l-0.35-0.397l-1.35-2.721l-0.451-0.794l-1.6-2.551l-0.449-0.793l-1.451-2.722
			l-0.4-0.793l-3.5-6.009l-0.4-0.794l-1.5-2.664l-0.398-0.794l-1.451-2.721l-0.15-0.51l0.051-0.284l0.301-0.227h6.699l0.801,0.057
			l2.9,0.17l0.549,0.057l0.201,0.17l1.449,2.835l0.4,0.736l1.5,2.552l0.4,0.736l1.299,2.607l0.451,0.794l1.35,2.438l0.35,0.51
			l0.301,0.113l0.35-0.396l1.25-2.721l0.451-0.737l1.549-2.494l0.451-0.736l1.25-2.665l0.4-0.793l1.398-2.607l0.4-0.567l0.4-0.113
			l0.551,0.057l2.5,0.17h0.799l2.9-0.17h0.801l2.85,0.227l0.6,0.113l0.25,0.113L319.578,242.453z"/>
	</g>
</g>
<g id="Layer_2" display="none">
	<path display="inline" fill-rule="evenodd" clip-rule="evenodd" fill="#2F2C2B" d="M443.915-59.921
		c0.005,48.64,0.006,97.278,0.005,145.918c0,15.112-0.188,30.229,0.104,45.337c0.091,4.688-1.407,5.773-5.897,5.754
		c-34.312-0.156-68.624-0.134-102.935,0.071c-4.412,0.026-4.26-2.165-4.257-5.231c0.062-60.135,0.093-120.271,0.088-180.405
		c-0.005-52.306-0.022-104.611-0.17-156.916c-0.012-4.085,0.634-5.765,5.363-5.731c33.98,0.24,67.964,0.221,101.945,0.062
		c4.44-0.021,5.884,0.972,5.865,5.72C443.836-156.869,443.91-108.395,443.915-59.921z"/>
	<path display="inline" fill-rule="evenodd" clip-rule="evenodd" fill="#2C2928" d="M192.986,137.223
		c-2.946-0.004-5.893-0.009-8.839-0.013c-1.849,1.291-3.77,1.341-5.293-0.311c-1.355-1.47-1.253-3.269-0.025-4.916
		c-0.006-11.004-0.012-22.009-0.018-33.013c-1.392-1.979-1.389-3.962-0.014-5.947c0.053-33.986,0.134-67.974,0.151-101.96
		c0.032-64.812,0.025-129.625,0.042-194.438c0.002-9.362-0.471-7.515,7.797-7.531c33.323-0.065,66.647,0.045,99.97-0.146
		c4.233-0.024,5.294,1.174,5.259,5.285c-0.197,23.323-0.129,46.648-0.128,69.974c0.003,88.907-0.043,177.814,0.162,266.722
		c0.013,5.341-1.663,6.294-6.461,6.271c-29.816-0.141-59.635-0.001-89.451,0.045C195.082,138.047,194.032,137.854,192.986,137.223z"
		/>
	<path display="inline" fill-rule="evenodd" clip-rule="evenodd" fill="#2C2928" d="M26.831,126.032
		c0.028-47.633,0.073-95.265,0.08-142.897c0.009-63.119,0.015-126.239-0.093-189.358c-0.006-3.698,1.026-4.831,4.79-4.816
		c34.641,0.131,69.283,0.131,103.924-0.014c3.697-0.016,4.417,1.295,4.392,4.616c-0.128,17.32-0.056,34.642-0.055,51.963
		c0.003,61.567-0.003,123.135,0.014,184.703c0.003,10.593,0.102,21.186,0.156,31.778c0.578,7.38,2.525,14.673,0.572,22.193
		c-0.785,3.021,1.121,6.104,1.043,9.332c-0.308,12.628-0.529,25.26-0.247,37.897c0.115,5.174-1.781,6.983-7.421,7.085
		c-12.149,0.22-24.303,0.089-36.454,0.073c-21.473-0.026-42.945,0.173-64.416-0.197c-2.912-0.05-6.255,0.589-7.309-3.472
		c-0.297-2.138-0.288-4.284-0.071-6.433C25.84,127.553,26.262,126.759,26.831,126.032z"/>
	<path display="inline" fill-rule="evenodd" clip-rule="evenodd" fill="#2A2827" d="M169.983,186.98
		c0.037-3.262,0.23-6.53,0.067-9.781c-0.148-2.963,1.107-4.234,3.954-4.186c11.821,0.023,23.642,0.044,35.462,0.072
		c10.629,0.026,20.064,2.647,26.273,12.188c0.976,1.498,1.834,3.072,3.333,5.601c0-5.096,0.128-9.266-0.041-13.425
		c-0.132-3.235,1.133-4.404,4.378-4.388c17.317,0.091,34.637,0.061,51.955-0.02c2.73-0.013,3.941,0.839,3.781,3.74
		c-0.275,4.978,1.452,11.107-0.869,14.655c-2.647,4.046-9.206,1.216-14.024,1.363c-3.704,0.113-4.389,1.527-4.363,4.785
		c0.124,15.818-0.058,31.641,0.149,47.457c0.051,3.894-0.985,5.44-5.016,5.125c-3.924-0.307-7.903-0.249-11.837-0.006
		c-3.605,0.223-4.457-1.304-4.422-4.668c0.156-14.985,0.084-29.974,0.08-44.961c-0.001-7.588-0.015-7.575-7.353-7.502
		c-2.997,0.029-5.996,0.058-8.991-0.037c-2.536-0.08-3.522,0.696-3.199,3.509c1.19,10.386-3.515,18.26-11.458,24.277
		c-2.249,1.704-2.745,2.473-1.162,4.938c4.394,6.843,8.33,13.979,12.701,20.837c1.976,3.1,0.926,3.583-2.078,3.543
		c-6.326-0.083-12.655-0.057-18.982,0.001c-2.013,0.018-3.451-0.531-4.437-2.472c-3.153-6.21-7.705-11.599-10.348-18.15
		c-1.753-4.343-6.274-5.811-10.766-4.395c-2.035,0.642-1.779,2.167-1.784,3.6c-0.021,5.495-0.065,10.993,0.089,16.484
		c0.092,3.278-0.999,5-4.534,4.968c-4.816-0.044-9.635,0.192-14.453,0.242c-3.256,0.034-1.896-2.559-1.904-3.954
		c-0.115-18.649-0.097-37.299-0.117-55.949C170.066,189.31,170.013,188.145,169.983,186.98z"/>
	<path display="inline" fill-rule="evenodd" clip-rule="evenodd" fill="#2B2827" d="M37.985,173.054
		c15.613,0.028,31.229,0.177,46.841,0.003c3.99-0.044,5.342,1.249,5.056,5.16c-0.285,3.898-0.062,7.834-0.062,12.844
		c5.69-6.335,10.533-11.969,17.377-15.301c16.53-8.051,36.979-4.527,49.852,8.676c0.571,0.585,1.237,1.076,1.858,1.612
		c1.311,1.727,2.622,3.453,3.934,5.18c0.844,0.308,1.121,0.957,1.09,1.795c4.971,12.139,6.19,24.199,0.056,36.442
		c-8.973,17.908-32.44,27.405-51.253,20.499c-23.917-8.779-32.938-30.068-25.423-52.716c0.993-2.994,0.767-4.408-2.74-4.289
		c-3.494,0.119-7,0.152-10.491,0.002c-3.098-0.134-4.161,1.3-4.062,4.201c0.49,14.294-0.717,28.609,0.628,42.901
		c0.245,2.595-0.427,5.274-0.659,7.916c-0.157,1.794-1.404,1.974-2.835,2.042c-5.306,0.253-10.613-0.396-15.938,0.538
		c-3.123,0.548-2.103-2.353-2.111-3.891c-0.085-15.322-0.068-30.645-0.079-45.967c-0.001-1.166-0.039-2.334,0.022-3.497
		c0.179-3.368-0.361-4.94-4.72-4.416c-14.428,1.736-14.459,1.481-14.408-12.821C29.941,173.24,29.941,173.24,37.985,173.054z"/>
	<path display="inline" fill-rule="evenodd" clip-rule="evenodd" fill="#2E2C2B" d="M301.003,211.56
		c0-11.158,0.122-22.318-0.067-33.473c-0.065-3.816,0.955-5.131,5.046-5.08c17.984,0.223,35.975,0.146,53.961-0.028
		c3.724-0.036,5.605,0.659,5.115,4.914c-0.398,3.453-0.339,7.008-0.032,10.479c0.348,3.924-1.36,4.764-4.917,4.7
		c-10.988-0.196-21.982-0.045-32.973-0.15c-3.125-0.029-5.322,0.038-5.372,4.321c-0.051,4.282,1.749,4.912,5.372,4.814
		c7.989-0.215,15.989,0.023,23.981-0.14c3.065-0.062,4.114,0.95,3.923,4.047c-0.245,3.979-0.169,7.997,0.06,11.981
		c0.179,3.114-1.074,4.06-4.055,4.013c-8.324-0.131-16.655,0.064-24.979-0.097c-2.949-0.057-4.209,0.724-4.174,3.881
		c0.034,3.052,0.784,4.19,4.177,4.495c11.783,1.056,23.566,0.317,35.343,0.521c2.945,0.051,3.802,1.122,3.604,3.852
		c-0.18,2.486-0.104,4.995-0.059,7.492c0.162,8.952-0.938,8.556-9.077,8.31c-16.313-0.493-32.613-0.19-48.912-0.196
		c-5.005-0.001-6.162-1.541-6.04-6.18c0.285-10.818,0.091-21.649,0.091-32.476C301.014,211.56,301.009,211.56,301.003,211.56z"/>
	<path display="inline" fill-rule="evenodd" clip-rule="evenodd" fill="#2B2928" d="M406.799,229.877
		c-6.694,4.345-8.732,12.096-13.688,17.672c-1.641,1.846-3.179,2.434-5.491,2.525c-6.151,0.244-12.325-0.565-18.453,0.411
		c-0.673,0.107-1.416,0.314-1.751-0.371c-0.648-1.323,0.453-2.104,1.119-3.038c7.325-10.271,14.494-20.658,22.006-30.79
		c2.744-3.701,2.708-6.232-0.217-10.013c-7.306-9.444-13.986-19.373-20.878-29.135c-0.694-0.983-2.492-1.714-1.479-3.272
		c0.835-1.283,2.436-0.775,3.727-0.78c5.998-0.02,11.997,0.058,17.994-0.01c2.003-0.022,3.398,0.498,4.556,2.312
		c2.942,4.607,6.217,9.002,9.17,13.603c3.179,4.953,3.862,4.996,6.978,0.212c2.807-4.312,5.841-8.476,8.657-12.782
		c1.613-2.465,3.633-3.479,6.648-3.358c5.656,0.227,11.328,0.053,16.994,0.088c0.944,0.007,2.141-0.375,2.723,0.677
		c0.644,1.162-0.57,1.71-1.126,2.46c-6.848,9.232-14.095,18.169-19.772,28.241c-4.591,8.144-4.729,8.037,1.102,15.657
		c6.561,8.572,11.988,17.962,18.927,26.268c0.582,0.697,1.142,1.902,0.937,2.662c-0.395,1.466-1.937,0.908-3.011,0.916
		c-6.312,0.048-12.624-0.042-18.935,0.052c-2.242,0.033-3.578-0.751-4.832-2.7C414.844,241.381,410.696,235.563,406.799,229.877z"/>
	<path display="inline" fill-rule="evenodd" clip-rule="evenodd" fill="#2C2A28" d="M266.359,497.969
		c-9.014-0.409-17.206-2.68-23.659-9.722c-7.918-8.641-8.083-23.343,0.273-31.644c2.651-2.633,3.355-4.242,1.095-7.845
		c-6.445-10.27-1.823-23.237,9.459-28.161c14.141-6.172,26.959-4.326,35.781,5.153c5.772,6.203,6.65,16.092,1.443,22.741
		c-2.529,3.23-1.77,5.06,0.771,7.551c9.4,9.219,8.669,21.842,2.224,29.479C287.028,493.484,277.755,498.72,266.359,497.969z"/>
	<path display="inline" fill-rule="evenodd" clip-rule="evenodd" fill="#2F2D2B" d="M206.312,498.062
		c-8.365-0.255-15.054-1.092-20.99-4.946c-13.88-9.012-15.72-26.306-3.979-37.974c1.527-1.518,2.688-2.469,0.874-4.817
		c-9.26-11.986-1.344-25.556,8.69-30.14c10.915-4.986,25.921-4.574,34.311,4.302c6.719,7.108,8.059,17.522,2.18,25.238
		c-1.881,2.469-1.886,3.659,0.443,5.51c11.934,9.478,9.326,30.647-5.54,37.919C216.881,495.805,211.354,498.991,206.312,498.062z"/>
	<path display="inline" fill-rule="evenodd" clip-rule="evenodd" fill="#2C3029" d="M443.961,187.465
		c-0.011-9.145,8.497-17.518,17.642-17.359c9.926,0.171,19.888,8.258,19.173,16.507c-0.989,11.408-6.813,18.724-19.816,18.966
		C451.882,205.746,443.974,197.082,443.961,187.465z"/>
	<path display="inline" fill-rule="evenodd" clip-rule="evenodd" fill="#2E2C2B" d="M150.872,485.336
		c-0.008-9.454-0.008-9.454,9.42-9.413c10.571,0.046,10.571,0.046,10.75,10.606c0.151,8.99-0.3,9.441-9.33,9.319
		c-0.166-0.002-0.333,0.011-0.497-0.007C149.388,494.624,150.894,497.413,150.872,485.336z"/>
	<path display="inline" fill-rule="evenodd" clip-rule="evenodd" fill="#40A838" d="M417.998-36.77
		c0,47.994-0.054,95.988,0.097,143.982c0.013,4.076-1.225,5.041-5.078,4.997c-16.495-0.189-32.994-0.091-49.492-0.09
		c-6.984,0-6.743,0.01-6.686-6.842c0.147-17.33,0.256-34.665,0.001-51.992c-0.234-15.976,0.027-31.952-0.315-47.935
		c-0.241-11.252,0.188-22.612,0.277-33.921c0.147-18.784,0.062-37.569,0.064-56.354c0.006-31.857,0.089-63.715-0.094-95.571
		c-0.024-4.373,1.074-5.683,5.55-5.612c16.827,0.266,33.663,0.24,50.491-0.002c4.242-0.061,5.244,1.283,5.233,5.354
		c-0.132,47.995-0.085,95.99-0.085,143.985C417.974-36.77,417.986-36.77,417.998-36.77z"/>
	<path display="inline" fill-rule="evenodd" clip-rule="evenodd" fill="#3AA534" d="M265.973-37.124
		c0,47.489-0.002,94.979,0.001,142.468c0.001,6.691,0.012,6.731-6.671,6.745c-16.648,0.034-33.299-0.098-49.945,0.132
		c-3.863,0.054-4.866-1.747-5.277-4.906c-0.517-3.976-0.057-8.07,0.42-11.843c1.052-8.323-0.688-16.505,0.098-24.83
		c0.851-9.032-0.51-18.252-0.447-27.387c0.078-11.408,0.711-22.806,0.643-34.229c-0.148-24.613,0.02-49.229,0.043-73.843
		c0.02-20.277,0.63-40.579-0.181-60.823c-0.583-14.567,0.628-29.095-0.19-43.654c-0.229-4.057-0.068-8.228-0.342-12.352
		c-0.197-2.985,0.38-4.617,4.385-4.539c17.489,0.339,34.99,0.27,52.484,0.064c3.952-0.047,5.09,1.089,5.08,5.029
		c-0.119,47.989-0.077,95.979-0.077,143.968C265.987-37.124,265.979-37.124,265.973-37.124z"/>
	<path display="inline" fill-rule="evenodd" clip-rule="evenodd" fill="#3BA635" d="M114.013-37.257
		c0,46.481,0.001,92.962-0.001,139.443c0,1.666-0.174,3.349,0.006,4.994c0.426,3.917-1.115,5.091-5.088,5.053
		c-12.942-0.125-25.891-0.226-38.836,0.479c-4.783,0.26-9.615-0.434-14.428-0.6c-3.276-0.112-3.648-2.195-3.584-4.783
		c0.215-8.593,0.982-17.226,0.43-25.771c-0.962-14.848,0.096-29.685,0.197-44.486C52.801,23.822,51.99,10.562,52.5-2.725
		c0.351-9.127,0.041-18.405-0.206-27.614c-0.321-12.006,0.651-24.045,0.369-36.054c-0.252-10.76,0.635-21.49-0.297-32.295
		c-0.78-9.052,0.501-18.263,0.48-27.402c-0.042-18.589,0.411-37.19-0.771-55.763c-0.211-3.307,0.426-4.445,4.345-4.363
		c17.484,0.369,34.981,0.287,52.472,0.129c3.762-0.034,5.146,0.733,5.133,4.891c-0.156,47.979-0.1,95.959-0.1,143.939
		C113.955-37.257,113.984-37.257,114.013-37.257z"/>
	<path display="inline" fill-rule="evenodd" clip-rule="evenodd" fill="#3FA738" d="M267.572,461.89
		c7.344,0.032,11.419,3.349,11.507,9.366c0.082,5.625-5.029,9.713-12.057,9.645c-6.286-0.061-11.162-4.851-11.007-10.812
		C256.146,465.102,260.716,461.86,267.572,461.89z"/>
	<path display="inline" fill-rule="evenodd" clip-rule="evenodd" fill="#36A333" d="M267.505,432.849
		c4.986,0.015,7.62,2.485,7.585,7.114c-0.029,3.794-3.849,7.593-7.714,7.673c-3.548,0.073-7.325-4.492-7.251-8.767
		C260.197,434.713,262.5,432.834,267.505,432.849z"/>
	<path display="inline" fill-rule="evenodd" clip-rule="evenodd" fill="#36A333" d="M204.744,480.988
		c-4.468-0.048-8.197-1.633-10.59-5.414c-1.93-3.052-2.778-6.396-0.359-9.717c2.888-3.964,7.273-4.548,11.572-4.442
		c2.903,0.071,5.973,0.959,8.02,3.485c2.434,3.004,3.883,6.388,2.02,10.125C213.26,479.329,209.285,480.784,204.744,480.988z"/>
	<path display="inline" fill-rule="evenodd" clip-rule="evenodd" fill="#30A02F" d="M212.043,440.439
		c-0.007,3.663-3.306,7.185-6.687,7.139c-4.651-0.063-7.996-3.218-8.046-7.589c-0.043-3.836,3.519-8.456,6.669-8.651
		C207.859,431.098,212.053,435.831,212.043,440.439z"/>
	<path display="inline" fill-rule="evenodd" clip-rule="evenodd" fill="#3E9938" d="M461.181,192.587
		c2.349,2.947,4.516,5.121,8.581,4.479c-5.021,4.519-12.319,4.089-16.753-0.544c-5.085-5.313-4.788-12.354,0.765-18.16
		c4.15-4.34,12.184-4.406,16.775-0.139c5.552,5.161,5.947,12.396,0.796,18.246c-1.258-2.982-5.131-4.965-0.792-9.078
		c1.819-1.725,0.945-6.109-3.148-7.514c-3.433-1.177-6.914-0.774-10.387-0.772c-2.133,0.001-2.162,1.663-2.161,3.208
		c0,3.33-0.095,6.666,0.08,9.987c0.1,1.873-1.082,4.538,2.663,4.672C460.774,197.086,461.19,195.312,461.181,192.587z"/>
</g>
</svg>
