<?xml version="1.0" encoding="utf-8"?>
<!-- Generator: Adobe Illustrator 16.0.0, SVG Export Plug-In . SVG Version: 6.00 Build 0)  -->
<!DOCTYPE svg PUBLIC "-//W3C//DTD SVG 1.1//EN" "http://www.w3.org/Graphics/SVG/1.1/DTD/svg11.dtd">
<svg version="1.1" id="Layer_1" xmlns="http://www.w3.org/2000/svg" xmlns:xlink="http://www.w3.org/1999/xlink" x="0px" y="0px"
viewBox="0 0 450 480" xml:space="preserve">
<g>
	<g>
		<path fill="none" stroke="#EFEFEF" stroke-width="6" stroke-miterlimit="10" d="M36.949,136.734
			c0.028-0.261,0.056-0.52,0.085-0.779C36.942,136.718,36.926,136.883,36.949,136.734z"/>
		<path fill="none" stroke="#EFEFEF" stroke-width="6" stroke-miterlimit="10" d="M222.908,467.147
			c-0.064-0.015-0.128-0.025-0.191-0.042C222.819,467.132,222.877,467.145,222.908,467.147z"/>
		<path fill="none" stroke="#EFEFEF" stroke-width="6" stroke-miterlimit="10" d="M222.716,467.105
			c-0.446-0.145-0.883-0.304-1.317-0.47C220.843,466.468,220.763,466.464,222.716,467.105z"/>
		<path fill="none" stroke="#EFEFEF" stroke-width="6" stroke-miterlimit="10" d="M120.804,29.287
			c-0.601,0.188-1.199,0.384-1.799,0.576c-1.34,0.089-5.563,2.293-5.564,2.294c-21.416,7.98-41.378,22.032-54.549,40.882
			c-12.665,18.127-18.582,39.81-21.648,61.468c-2.042,3.063-0.853,13.981-0.794,16.688c0.312,14.317,2.341,28.394,5.968,42.241
			c6.807,25.981,16.514,51.433,27.188,76.049c21.397,49.34,49.263,94.245,83.889,135.378c15.342,18.226,30.835,36.91,50.141,51.126
			c8.318,6.126,18.188,13.988,28.892,9.261c11.1-4.902,21.039-15.091,29.682-23.358c38.244-36.595,71.439-80.07,96.428-126.711
			c14.661-27.367,26.882-56.054,37.63-85.162c10.715-29.021,19.024-59.097,17.502-90.28C405.176-0.041,220.542-2.041,120.804,29.287
			z"/>
		<path fill="none" stroke="#EFEFEF" stroke-width="6" stroke-miterlimit="10" d="M118.572,30.002
			c-0.269,0.087-0.537,0.171-0.806,0.258C118.031,30.162,118.301,30.079,118.572,30.002z"/>
		<path fill="none" stroke="#EFEFEF" stroke-width="6" stroke-miterlimit="10" d="M412.74,121.119
			c0.329,5.896,0.66,11.914,0.988,17.746"/>
		<path fill="none" stroke="#EFEFEF" stroke-width="6" stroke-miterlimit="10" d="M379.37,264.79
			c0.315-0.197,3.609-0.651,2.707-0.72C382.138,264.031,379.542,264.805,379.37,264.79z"/>
	</g>
	<path fill="#EFEFEF" d="M180.742,351.025c-0.003-4.979-0.003-4.979,4.962-4.958c5.567,0.025,5.567,0.025,5.662,5.586
		c0.067,3.992-0.885,5.401-5.175,4.905C181.003,356.025,180.751,356.425,180.742,351.025
		C180.739,346.046,180.752,357.386,180.742,351.025z"/>
	<g>
		<path fill="#EFEFEF" d="M255.641,335.6c-2.791-2.74,2.805-9.475,0.137-14.179c-2.882-5.078-9.229-7.042-14.713-6.141
			c-5.511,0.906-11.2,4.001-11.898,10.096c-0.257,2.231,0.29,4.485,1.481,6.387c1.713,2.728-0.644,3.779-2.018,5.916
			c-7.313,11.378,5.739,20.853,16.261,19.98C255.471,356.784,264.612,344.397,255.641,335.6
			C254.304,334.286,260.592,340.453,255.641,335.6z M242.991,323.383c2.628,0.008,4.013,1.309,3.997,3.745
			c-0.017,1.999-2.027,4-4.063,4.042c-1.868,0.039-3.858-2.367-3.818-4.617C239.143,324.363,240.355,323.375,242.991,323.383
			C245.619,323.391,240.355,323.375,242.991,323.383z M242.737,348.688c-3.31-0.029-5.878-2.556-5.796-5.694
			c0.161-6.195,12.053-5.781,12.147,0.615C249.13,346.571,246.439,348.725,242.737,348.688
			C239.427,348.659,246.439,348.725,242.737,348.688z"/>
		<path fill="#EFEFEF" d="M222.102,335.171c-2.078-1.651,0.3-3.354,1.003-5.039c1.248-2.992,0.805-6.415-0.856-9.153
			c-3.092-5.103-9.397-6.629-14.971-5.68c-5.329,0.909-10.551,4.362-11.293,10.126c-0.334,2.591,0.506,5.111,2.088,7.16
			c1.456,1.886-2.312,4.561-3.129,6.14c-5.899,11.408,5.957,18.703,15.819,19.003C222.157,359.827,231.597,342.714,222.102,335.171
			C220.875,334.196,228.387,340.163,222.102,335.171z M209.534,322.585c2.043-0.125,4.252,2.367,4.247,4.795
			c-0.004,1.929-1.742,3.783-3.521,3.759c-2.45-0.032-4.211-1.693-4.238-3.997C205.999,325.123,207.875,322.689,209.534,322.585
			C211.577,322.46,207.875,322.689,209.534,322.585z M215.552,345.597c-3.312,6.635-15.775,1.206-11.383-4.831
			C207.645,335.999,218.722,339.229,215.552,345.597C214.422,347.86,216.534,343.626,215.552,345.597z"/>
	</g>
	<g>
		<path fill="#EFEFEF" d="M321.475,190.398c0-37.174-0.047-74.347-0.003-111.521c0.004-3.203,2.004-22.164-1.025-23.276
			c-6.499-2.387-17.804-0.135-24.751-0.137c-4.414-0.002-8.825-0.011-13.236-0.027c-3.04-0.013-8.744-1.175-11.515,0.201
			c-2.896,1.438-0.811,19.466-0.805,22.721c0.056,36.333,0.039,72.667,0.013,109c-0.004,7.971-1.379,17.315,0.035,25.148
			c0.478,2.649,19.152,1.068,21.925,1.064c8.908-0.013,17.819,0.002,26.728,0.043C323.969,213.637,321.475,194.393,321.475,190.398z
			 M307.431,202.309c-3.132-0.035-25.281,1.466-25.51-1.351c-0.842-10.372-0.038-21.227-0.064-31.646
			c-0.057-22.201,0.049-44.4,0.064-66.604c0.008-11.135,0.016-22.271-0.048-33.406c-0.021-3.973,23.336-3.816,26.94-2.365
			c3.143,1.265,0.863,26.011,0.861,29.79c-0.005,12.57,0.005,25.141,0.005,37.711c0.004,0,0.009,0,0.014,0
			c0,11.971-0.006,23.94-0.001,35.911C309.694,174.716,311.864,202.362,307.431,202.309
			C299.936,202.223,309.181,202.33,307.431,202.309z"/>
		<path fill="#EFEFEF" d="M252.39,89.615c-0.003-10.6-0.034-21.199,0.057-31.798c0.043-4.662-21.187-2.348-25.102-2.347
			c-3.063,0-25.086-1.884-26.091,0.394c-1.469,3.327-0.169,9.654-0.169,13.235c-0.001,5.663-0.002,11.328-0.003,16.991
			c-0.002,22.597,0.002,45.191-0.02,67.788c-0.012,11.031-0.034,22.062-0.053,33.094c-0.008,4.294-0.005,8.153-0.002,12.321
			c0.001,2.646-1.588,12.491,0.018,14.234c1.183,1.282,9.378,0.157,11.242,0.153c7.903-0.016,15.807-0.041,23.711-0.043
			c3.513,0,16.498,2.479,16.485-2.82c-0.02-8.081-0.034-16.161-0.045-24.241C252.376,154.256,252.39,121.936,252.39,89.615
			C252.387,79.016,252.39,130.015,252.39,89.615z M240.623,134.438c-0.005,0,0.443,0,0.443,0c0,13.979,0,27.957,0,41.936
			c0,6.575,0,13.15,0,19.727c0,7.843-2.348,6.248-9.765,6.225c-3.395-0.011-15.731,1.931-18.118-0.549
			c-2.31-2.402-0.758-15.051-0.447-18.353c1.371-14.585,0.028-30.1,0.059-44.78c0.031-14.786,0.547-29.64-0.045-44.417
			c-0.264-6.61,0.284-13.228-0.087-19.836c-0.084-1.497-0.92-5.867,0.124-7.166c1.438-1.788,9.82-0.409,11.934-0.405
			c2.397,0.006,14.712-1.639,15.74,0.812c2.194,5.232,0.172,15.395,0.165,21.087C240.614,103.958,240.623,119.198,240.623,134.438
			C240.618,134.438,240.623,112.999,240.623,134.438z"/>
		<path fill="#EFEFEF" d="M183.646,189.581c1.653-6.362-0.302-15.033-0.324-21.637c-0.03-8.796-0.01-17.593-0.011-26.39
			c-0.002-19.023-0.001-38.048-0.002-57.072c0-8.99-0.041-17.98,0.024-26.97c0.031-3.966-18.828-2.051-22.234-2.049
			c-8.995,0.006-17.99-0.009-26.985-0.043c-4.351-0.018-2.152,19.307-2.149,22.84c0.036,37.747,0.017,75.494-0.01,113.242
			c-0.002,3.333-2.323,20.59,0.303,22.351c2.024,1.357,6.824,0.416,9.046,0.431c5.421,0.04,10.841,0.024,16.262,0.015
			c6.903-0.01,18.73,2.349,25.096-0.369C187.404,211.905,182.533,193.871,183.646,189.581
			C184.535,186.164,183.291,190.954,183.646,189.581z M169.25,202.319c-3.825-0.036-25.939,2.09-25.832-2.227
			c0.293-11.619,0.406-23.31,0.276-34.937c-0.24-21.501-1.201-43.431-0.169-64.892c0.504-10.471,0.555-21.115-0.11-31.58
			c-0.187-2.941,23.838-2.956,27.184-1.77c3.176,1.127,0.921,27.774,0.919,31.656c-0.005,11.956,0.003,23.911,0.003,35.866
			c0.014,0,0.357,0,0.357,0c0,12.144,0,24.287,0,36.43C171.878,175.367,174.348,202.371,169.25,202.319
			C163.37,202.264,171.055,202.338,169.25,202.319z"/>
	</g>
	<g>
		<path fill="#EFEFEF" d="M166.984,274.317c0.855,5.776-3.688,6.369-8.868,5.109c-3.424-0.834,1.815-15.219-2.29-15.219
			c-2.087,0-8.344-0.944-9.844-0.056c-2.171,1.287-1.257,3.802-1.329,6.472c-0.044,1.588,0.969,7.14-0.034,8.334
			c-1.291,1.537-4.763,0.287-6.506,0.413c-6.419,0.466-3.427-10.252-3.35-14.846c0.111-6.566,0.138-13.25,0.013-19.814
			c-0.118-6.268,2.094-5.693,8.356-5.223c4.244,0.319-0.42,12.422,1.438,14.666c1.305,1.579,5.089,0.396,7.132,0.469
			c3.831,0.135,5.406,1.197,5.633-2.982c0.185-3.388,0.006-6.79-0.042-10.183c-0.043-3.075,3.039-1.989,5.305-1.888
			c3.579,0.161,3.296-0.73,4.628,2.046c1.055,2.198-0.158,8.187-0.147,10.715c0.03,7.315-0.134,14.653-0.098,21.986H166.984z"/>
		<path fill="#EFEFEF" d="M202.309,274.206c-0.278,5.184-0.165,5.007-5.46,5.191c-2.938,0.101-5.778-0.069-8.721,0.142
			c-3.539,0.25-7.047-0.196-10.602,0.037c-3.531,0.233-3.185-0.677-3.629-3.602c-0.896-5.906,0.146-13.098,0.146-19.117
			c0-2.841-1.63-15.547,0.634-17.396c2.41-1.97,16.784,0.023,20.258,0.082c2.021,0.034,5.22-0.953,6.494,0.635
			c0.747,0.931,0.151,5.838,0.073,7.153c-0.213,3.575-11.583,1.884-14.571,1.659c-2.758-0.209-3.191,0.293-3.191,3.063
			c0,3.465,1.682,2.816,4.769,2.816c5.681,0,14.317-2.7,12.144,6.077c-1.682,6.79-9.804,0.341-14.912,2.761
			c-1.943,0.92-1.871,0.552-2.023,3.314c-0.192,3.507,1.247,2.849,4.361,2.982C192.564,270.198,203.496,266.963,202.309,274.206z"/>
		<path fill="#EFEFEF" d="M246.257,277.853c-0.161,3.028-9.581,2.696-10.438,0.068c-1.487-4.562-1.087-4.674-5.643-5.097
			c-2.696-0.25-6.138-0.601-8.82-0.11c-4.169,0.761-3.335,0.749-4.823,5.247c-0.847,2.561-4.501,1.176-6.582,1.328
			c-7.438,0.543-1.254-8.107,0.347-12.266c2.455-6.38,4.857-12.796,7.568-19.076c1.054-2.445,1.846-4.996,2.836-7.467
			c0.607-1.515,8.433-1.541,9.624-0.855c3.543,2.033,5.169,10.735,6.628,14.749c2.188,6.02,4.961,11.803,7.224,17.778
			C244.893,274.045,245.607,275.936,246.257,277.853z M229.983,262.274c-1.34-4.82-2.753-14.731-6.189-5.357
			c-0.672,1.831-2.557,4.836-1.023,6.297C224.016,264.404,229.162,263.731,229.983,262.274z"/>
		<path fill="#EFEFEF" d="M279.78,240.453c-2.522,12.102-8.756,24.27-13.109,35.854c-1.812,4.827-10.038,5.065-11.857,0.097
			c-2.341-6.393-4.441-12.911-7.063-19.195c-1.124-2.693-7.048-14.324-5.981-16.808c0.857-1.997,5.568-1.012,7.386-0.883
			c3.851,0.272,3.629,0.75,4.624,4.361c0.798,2.892,2.188,5.644,3.004,8.552c0.647,2.312,1.795,10.447,3.405,11.665
			c1.632,1.234,4.831-11.043,5.574-13.771c0.508-1.858,2.238-10.456,4.123-10.812C272.38,239.042,278.362,238.439,279.78,240.453z"
			/>
		<path fill="#EFEFEF" d="M318.613,240.123c-4.697,7.89-14.132,18.606-14.034,27.84c0.025,2.38,1.438,11.599-1.416,11.599
			c-2.397,0-7.049,0.71-8.376-0.939c-1.029-1.279-0.053-7.719-0.193-9.887c-0.644-9.934-7.865-18.719-12.598-27.597
			c-1.474-2.764,10.101-2.404,11.741,0.807c1.777,3.479,3.683,8.116,6.264,10.934c2.387-4.2,4.32-9.132,7.111-13.09
			C308,238.531,317.575,239.463,318.613,240.123z"/>
	</g>
</g>
</svg>
